<?xml version="1.0" standalone="no"?>
<!DOCTYPE svg PUBLIC "-//W3C//DTD SVG 1.1//EN" "http://www.w3.org/Graphics/SVG/1.1/DTD/svg11.dtd" >
<svg>
<metadata>
Created by FontForge 20090914 at Wed Oct 23 20:57:50 2013
 By www-data
Copyright (c) International Typeface Corporation 1997.  Portions Copyright (c) Microsoft Corporation 1997.  All rights reserved.
</metadata>
<defs>
<font id="EdwardianScriptITC" horiz-adv-x="979" >
  <font-face 
    font-family="Edwardian Script ITC"
    font-weight="400"
    font-stretch="semi-expanded"
    units-per-em="2048"
    panose-1="3 3 3 2 4 7 7 13 8 4"
    ascent="1638"
    descent="-410"
    x-height="535"
    cap-height="1333"
    bbox="-659.001 -672.001 3465 1742"
    underline-thickness="80"
    underline-position="-249"
    unicode-range="U+0020-U+F002"
  />
<missing-glyph horiz-adv-x="1024" 
d="M128 0v1380h768v-1380h-768zM256 128h512v1124h-512v-1124z" />
    <glyph glyph-name=".notdef" horiz-adv-x="1024" 
d="M128 0v1380h768v-1380h-768zM256 128h512v1124h-512v-1124z" />
    <glyph glyph-name="space" unicode=" " horiz-adv-x="362" 
 />
    <glyph glyph-name="four" unicode="!" horiz-adv-x="588" 
d="M903 1104c0 -30.667 -76.333 -151.667 -229 -363c-167.333 -230 -278 -399.333 -332 -508c-4 -8 -8.66699 -12 -14 -12c-6 0 -9 3.33301 -9 10c0 2 4.33301 9 13 21c68 100 178.667 325.333 332 676c38.667 89.333 71 150.833 97 184.5s54.333 50.5 85 50.5
c38 0 57 -19.667 57 -59zM330 117c0 -30 -13.668 -58.666 -41.001 -85.999s-55.333 -41 -84 -41s-43 15 -43 45c0 27.333 14.333 54.666 43 81.999s57.334 41 86.001 41c26 0 39 -13.667 39 -41z" />
    <glyph glyph-name="five" unicode="&#x22;" 
d="M1225 1270c0 -20 -4.99902 -41 -14.999 -63c-8 -19.333 -40.667 -84.333 -98 -195c-38.667 -76 -65.334 -135.333 -80.001 -178h-16c9.33301 32.667 34 137.667 74 315c22.667 112 54.667 168 96 168c26 0 39 -15.667 39 -47zM1057 1268
c0 -26.667 -15.002 -68.333 -45.002 -125c-76.667 -145.333 -126 -248.333 -148 -309h-18c20.667 71.333 45.334 176.333 74.001 315c22.667 112 55.334 168 98.001 168c26 0 39 -16.333 39 -49z" />
    <glyph glyph-name="six" unicode="#" 
d="M1309 655c-4 -12 -23.333 -18.002 -58 -18.002h-235l-107 -227h197c30 0 43 -7 39 -21c-4 -12 -23.333 -18 -58 -18h-194l-143 -305c-14.667 -30 -27.667 -43 -39 -39s-11.333 18.333 0 43l139 301h-268l-144 -305c-14 -30.667 -27 -43.667 -39 -39
c-10.667 4 -10.667 18.333 0 43l140 301h-244c-22.667 0 -31.667 7.33301 -27 22c4 11.333 18.333 17 43 17h246l107 227h-205c-22.667 0 -31.667 7.33301 -27 22c4 11.333 18.333 17 43 17h207l139 299c12.667 26.667 25 38.334 37 35.001c13.333 -4 14 -18.333 2 -43
l-137 -291h268l142 299c12 26.667 24 38.334 36 35.001c13.333 -4 14 -18.333 2 -43l-137 -291h236c30 0 43 -7 39 -21zM975 636.998h-270l-105 -227h268z" />
    <glyph glyph-name="seven" unicode="$" 
d="M1233 768c0 -50 -23.168 -92.166 -69.501 -126.499s-103.833 -51.5 -172.5 -51.5c-88.667 0 -133 32 -133 96c0 26 13.5 55 40.5 87s51.167 48 72.5 48c5.33301 0 8 -2 8 -6c-0.666992 -2.66699 -2 -4 -4 -4c-67.333 -30 -101 -71 -101 -123c0 -53.333 30.333 -80 91 -80
c44 0 88.333 21.333 133 64s67 85 67 127c0 72 -50.333 108 -151 108c-76 0 -145.167 -24.333 -207.5 -73s-93.5 -102 -93.5 -160c0 -34.667 24.667 -74 74 -118l114 -89c76.667 -60.667 115 -125 115 -193c0 -86.667 -43.167 -161.5 -129.5 -224.5
s-188.5 -94.5 -306.5 -94.5c-15.333 0 -30.333 0.666992 -45 2l-201 -375c-6 -10.667 -12.333 -16 -19 -16s-10 4 -10 12c0 5.33301 2.66699 13 8 23l201 360c-156.667 26 -235 95 -235 207c0 59.333 33.667 115.166 101 167.499s139.333 78.5 216 78.5
c8.66699 0 13.334 -1.33301 14.001 -4c0 -4 -7.33301 -7.66699 -22 -11c-62.667 -12 -115.167 -41 -157.5 -87s-63.5 -96.667 -63.5 -152c0 -60.667 18.833 -108 56.5 -142s89.834 -51 156.501 -51c90 0 168 24 234 72s99 105.333 99 172c0 36 -9.33301 65 -28 87
s-69.834 64.5 -153.501 127.5s-125.5 127.167 -125.5 192.5c0 78 40.667 148.167 122 210.5s173.333 93.5 276 93.5c14.667 0 29 -0.666992 43 -2l153 290c8 15.333 15 23 21 23c6.66699 0 10 -4 10 -12c0 -2.66699 -2.66699 -11 -8 -25l-154 -281
c109.333 -22 164 -71 164 -147z" />
    <glyph glyph-name="eight" unicode="%" horiz-adv-x="1096" 
d="M1227 1030c0 -4.66699 -3.33008 -10.666 -9.99707 -17.999c-137.333 -146.667 -334 -451.334 -590 -914.001c-26 7.33301 -51.333 11 -76 11c-2.66699 0 -21.667 -1.66699 -57 -5c205.333 285.333 416.666 560 633.999 824l29 35
c-44.667 -46 -114.334 -95.333 -209.001 -148c-59.333 -32.667 -108.333 -77 -147 -133c-73.333 -105.333 -145 -158 -215 -158c-30.667 0 -55.834 10.333 -75.501 31s-29.5 47.334 -29.5 80.001c0 60.667 36.333 125.667 109 195s141 104 205 104c50 0 75 -27.333 75 -82
c0 -34.667 -14.333 -75 -43 -121c44 56 104.333 106 181 150c83.333 47.333 149.333 95.666 198 144.999c7.33301 6.66699 12.333 10 15 10c3.33301 -1.33301 5.33301 -3.33301 6 -6zM844.003 866.001c0 36 -14.333 54 -43 54c-45.333 0 -99.666 -41 -162.999 -123
s-95 -151.667 -95 -209c0 -32.667 14.333 -49 43 -49c47.333 0 102.166 39.5 164.499 118.5s93.5 148.5 93.5 208.5zM1257 481.001c0 -66 -32.999 -137 -98.999 -213s-127.667 -114 -185 -114c-30.667 0 -55.834 10 -75.501 30s-29.5 46 -29.5 78
c0 61.333 36.167 126.833 108.5 196.5s140.833 104.5 205.5 104.5c50 0 75 -27.333 75 -82zM1231 496.001c0 35.333 -14.3311 53.001 -42.998 53.001c-44.667 0 -98.834 -40.833 -162.501 -122.5s-95.5 -150.834 -95.5 -207.501c0 -34 14.333 -51 43 -51
c47.333 0 102.166 39.5 164.499 118.5s93.5 148.833 93.5 209.5z" />
    <glyph glyph-name="nine" unicode="&#x26;" horiz-adv-x="1821" 
d="M2042 457c0 -117.333 -37.667 -217.003 -113 -299.003s-166.666 -123 -273.999 -123c-42.667 0 -93.334 11 -152.001 33c-104.667 -68.667 -220 -103 -346 -103c-104.667 0 -198.834 23.833 -282.501 71.5s-144.5 111.834 -182.5 192.501
c-89.333 30 -159.333 78.333 -210 145s-76 144 -76 232c0 156 69.667 287.5 209 394.5s310.333 160.5 513 160.5c113.333 0 227.333 -17.667 342 -53c50.667 58.667 102.334 107.834 155.001 147.501s92.667 59.5 120 59.5c23.333 0 35 -11 35 -33
c0 -39.333 -67 -111 -201 -215c141.333 -63.333 253.833 -150.166 337.5 -260.499s125.5 -226.833 125.5 -349.5zM1761 1282c0 10.667 -5.33301 16.001 -16 16.001c-21.333 0 -57.5 -19.667 -108.5 -59s-99.5 -85 -145.5 -137l8 -4l21 -6l26 -13l13 -4
c52 36 98.667 75.167 140 117.5s62 72.166 62 89.499zM1542 1063l-62.999 22c-26.667 -32 -52 -68 -76 -108c35.333 17.333 81.666 46 138.999 86zM1993 497.998c0 117.333 -37.3311 224.332 -111.998 320.999s-180.667 175.334 -318 236.001
c-46.667 -34 -104.667 -70.333 -174 -109c-30 -58.667 -54.667 -124.667 -74 -198c37.333 6.66699 70 10 98 10c39.333 0 76.333 -5.66699 111 -17c25.333 51.333 41.666 100 48.999 146c2.66699 18.667 8.66699 28 18 28c8.66699 0 13 -5.33301 13 -16
c0 -30 -18.667 -85.333 -56 -166c120.667 -52 181 -146 181 -282c0 -145.333 -69 -269 -207 -371c35.333 -14 71.333 -21 108 -21c99.333 0 184.666 43.167 255.999 129.5s107 189.5 107 309.5zM1518 726.997c-36.667 9.33301 -71.667 13.998 -105 13.998
c-32 0 -66 -4.66699 -102 -14c-19.333 -70.667 -29 -154 -29 -250c0 -23.333 0.666992 -43.666 2 -60.999c101.333 92.667 179.333 196.334 234 311.001zM1694 476.995c0 112 -51.333 192.668 -154 242.001c-64 -126 -148.667 -234.667 -254 -326
c8.66699 -85.333 40 -158.333 94 -219c90 55.333 136 120.333 138 195c0 18.667 6.66699 28 20 28c15.333 0 23 -8 23 -24c0 -28.667 -17.167 -64.834 -51.5 -108.501s-72.5 -77.834 -114.5 -102.501c9.33301 -10 29 -26.333 59 -49l10 -7
c70 52.667 125.833 112.334 167.5 179.001s62.5 130.667 62.5 192zM1458 1094c-94.667 30 -188.667 45.001 -282 45.001c-187.333 0 -352.666 -58.333 -495.999 -175s-215 -251 -215 -403c0 -144 71.667 -245.667 215 -305c-15.333 41.333 -23 82.333 -23 123
c0 160 101.333 297.333 304 412c53.333 30 189.666 86.667 408.999 170c22 37.333 51.333 81.666 88 132.999zM1352 925.997l-107 -54c-331.333 -167.333 -497 -357.666 -497 -570.999c0 -19.333 2.66699 -42 8 -68c40.667 -4 68 -6 82 -6c44 0 92.333 7 145 21
c-20.667 38.667 -31 76.667 -31 114c0 79.333 30 153.666 90 222.999s137.333 119.333 232 150c15.333 51.333 41.333 115 78 191zM1268 712.997c-79.333 -35.333 -143.667 -86 -193 -152s-74 -135 -74 -207c0 -30 6.33301 -61.333 19 -94c82 26.667 156.333 67 223 121
c-8 40.667 -12 76.667 -12 108c0 66 12.333 140.667 37 224zM1360 163.997c-56.667 62.667 -94.333 128.667 -113 198c-68.667 -52 -141 -92 -217 -120c39.333 -71.333 109 -107 209 -107c38.667 0 79 9.66699 121 29zM1448 93.9971
c-34.667 21.333 -59.333 40.666 -74 57.999c-52 -23.333 -101.667 -35 -149 -35c-95.333 0 -172 38 -230 114c-57.333 -16 -109 -24 -155 -24c-20.667 0 -46.667 2 -78 6c26.667 -67.333 74.5 -121.666 143.5 -162.999s146.167 -62 231.5 -62c102 0 205.667 35.333 311 106z
" />
    <glyph glyph-name="colon" unicode="'" horiz-adv-x="657" 
d="M981 1268c0 -26.667 -15.002 -68.333 -45.002 -125c-76.667 -145.333 -126 -248.333 -148 -309h-18c20.667 71.333 45.334 176.333 74.001 315c22.667 112 55.334 168 98.001 168c26 0 39 -16.333 39 -49z" />
    <glyph glyph-name="semicolon" unicode="(" horiz-adv-x="899" 
d="M1749 1442c0 -6 -12.334 -11 -37.001 -15c-272 -44 -517.833 -195 -737.5 -453s-329.5 -524.667 -329.5 -800c0 -130 41 -235 123 -315c4 -4 6 -7.66699 6 -11c-0.666992 -4 -2.66699 -6 -6 -6c-8 0 -29 20 -63 60c-94.667 108 -142 245 -142 411
c0 185.333 61.833 371 185.5 557s278.834 327.333 465.501 424c69.333 36 161 71 275 105s196 51 246 51c9.33301 0 14 -2.66699 14 -8z" />
    <glyph glyph-name="less" unicode=")" horiz-adv-x="899" 
d="M946 1018c0 -143.333 -16.667 -266.835 -50 -370.502s-89 -206.167 -167 -307.5c-90 -116 -190.167 -210.167 -300.5 -282.5s-246.5 -132.5 -408.5 -180.5c-114.667 -34 -184 -51 -208 -51c-7.33301 0 -11 2.66699 -11 8s8.33301 9.33301 25 12
c262 48.667 500.5 203.834 715.5 465.501s322.5 527.834 322.5 798.501c0 136 -40.333 241 -121 315c-5.33301 4 -8 8.33301 -8 13c0 4 2.66699 6 8 6s18.333 -10.333 39 -31c109.333 -107.333 164 -239 164 -395z" />
    <glyph glyph-name="equal" unicode="*" horiz-adv-x="569" 
d="M1006 1051c-6 -30.667 -29.334 -48.667 -70.001 -54c-8.66699 -0.666992 -34.667 4.33301 -78 15c-20 4 -48 4.66699 -84 2c9.33301 -18.667 24.333 -39.334 45 -62.001c18.667 -16.667 40 -40.334 64 -71.001c10 -24.667 8.66699 -46.667 -4 -66
c-12.667 -18.667 -27 -18.667 -43 0c-8.66699 9.33301 -21 44.333 -37 105c-9.33301 32.667 -20.333 62 -33 88c-15.333 -28.667 -28.333 -56.667 -39 -84c-7.33301 -29.333 -19.666 -66.333 -36.999 -111c-17.333 -27.333 -39.666 -41 -66.999 -41
c-21.333 0 -27.666 13.667 -18.999 41c3.33301 10 33.333 48.333 90 115c30 35.333 51.333 64 64 86c-32 -3.33301 -62 -10.333 -90 -21c-25.333 -9.33301 -58.333 -19.333 -99 -30c-14 -1.33301 -24.833 0.666992 -32.5 6s-10.5 12.666 -8.5 21.999
c7.33301 30 28 46.333 62 49c15.333 1.33301 43.333 -2.66699 84 -12c27.333 -6 54.666 -8 81.999 -6c-12 17.333 -25.667 35 -41 53c-20 18.667 -41.333 44 -64 76c-11.333 23.333 -10 45.333 4 66c12 16 26.333 18 43 6c12 -11.333 25 -47.666 39 -108.999
c6 -25.333 15.667 -54.666 29 -87.999c8 18 20.333 48.667 37 92c17.333 55.333 31.666 92.333 42.999 111c16.667 27.333 37 41 61 41c22.667 0 31 -13.667 25 -41c-4.66699 -20.667 -33.334 -59 -86.001 -115c-38 -40 -61.333 -70 -70 -90
c12.667 1.33301 54.334 13 125.001 35c20.667 6.66699 42 12 64 16c12.667 2.66699 23 1.33398 31 -3.99902s11.333 -12 10 -20z" />
    <glyph glyph-name="greater" unicode="+" horiz-adv-x="1071" 
d="M1300 528c-2 -12 -22.332 -18 -60.999 -18h-391l-168 -360c-13.333 -28.667 -24.333 -43 -33 -43c-2 0 -4 0.666992 -6 2c-12 4.66699 -11.333 21 2 49l166 352h-414c-22.667 0 -32.667 6 -30 18c2 12.667 22.333 19 61 19h399l166 356c16 34 29 49 39 45
c13.333 -4.66699 13.333 -21 0 -49l-166 -352h402c25.333 0 36.666 -6.33301 33.999 -19z" />
    <glyph glyph-name="question" unicode="," horiz-adv-x="457" 
d="M309 121c0 -45.333 -24.332 -94.666 -72.999 -147.999c-19.333 -20 -44.333 -40 -75 -60s-52.334 -30 -65.001 -30c-4 0 -6 2 -6 6s2.66699 7 8 9c28 10 53.167 24.167 75.5 42.5s33.5 34.166 33.5 47.499c0 4 -3.33301 6 -10 6c-30 0 -45 14.333 -45 43
c0 26 13.5 53.667 40.5 83s52.167 44 75.5 44c27.333 0 41 -14.333 41 -43z" />
    <glyph glyph-name="at" unicode="-" horiz-adv-x="733" 
d="M733 272c0 -8 -27.3301 -20.5 -81.9971 -37.5s-96.334 -25.5 -125.001 -25.5c-26.667 0 -54.667 3.33301 -84 10c-34.667 8 -60.334 12 -77.001 12c-28 0 -54.667 -6.66699 -80 -20c-1.33301 -1.33301 -3.33301 -2 -6 -2c-2.66699 0.666992 -4.33398 2 -5.00098 4
c0 8 25.833 21 77.5 39s89.5 27 113.5 27c14 0 42.667 -5 86 -15c36.667 -8 63.334 -12 80.001 -12c31.333 0 60.666 6.66699 87.999 20c4 2.66699 7.33301 4 10 4s4 -1.33301 4 -4z" />
    <glyph glyph-name="A" unicode="." horiz-adv-x="457" 
d="M348 117c0 -30 -13.668 -58.666 -41.001 -85.999s-55.333 -41 -84 -41s-43 15 -43 45c0 27.333 14.333 54.666 43 81.999s57.334 41 86.001 41c26 0 39 -13.667 39 -41z" />
    <glyph glyph-name="B" unicode="/" horiz-adv-x="1083" 
d="M1454 1487l-1075 -1694h-31l1075 1694h31z" />
    <glyph glyph-name="C" unicode="0" 
d="M1292 791c0 -152.667 -76.333 -315.331 -229 -487.998c-186 -210 -358 -315 -516 -315c-80 0 -145.5 28.5 -196.5 85.5s-76.5 130.167 -76.5 219.5c0 179.333 110 361.666 330 546.999c190 159.333 341.667 239 455 239c70.667 0 127.167 -26.333 169.5 -79
s63.5 -122.334 63.5 -209.001zM1219 901.003c0 109.333 -52.667 164 -158 164c-86 0 -185.333 -50.667 -298 -152c-107.333 -96 -199.333 -211.667 -276 -347c-80 -142 -120 -267.333 -120 -376c0 -125.333 59.333 -188 178 -188c146.667 0 294 102.333 442 307
c70 96.667 126.167 199 168.5 307s63.5 203 63.5 285z" />
    <glyph glyph-name="D" unicode="1" 
d="M1249 1038c0 -6 -75.667 -126 -227 -360c-121.333 -187.333 -205.166 -325.5 -251.499 -414.5s-81.166 -178.833 -104.499 -269.5c-24 5.33301 -44.667 8 -62 8c-19.333 0 -55.333 -4 -108 -12c45.333 132.667 183.666 338.667 414.999 618
c142 171.333 236.333 293.666 283 366.999c-173.333 -205.333 -347.333 -374.666 -522 -507.999c-112.667 -86 -180.334 -129 -203.001 -129c-5.33301 0 -8 2 -8 6c0 4.66699 4 8.66699 12 12c169.333 76.667 415 294 737 652l13 14c12.667 13.333 20 20 22 20
c2.66699 0 4 -1.33301 4 -4z" />
    <glyph glyph-name="E" unicode="2" 
d="M1294 850c0 -92 -38.001 -174.003 -114.001 -246.003c-54.667 -51.333 -111 -92.5 -169 -123.5s-172.333 -80.5 -343 -148.5c-213.333 -85.333 -360.333 -177 -441 -275c59.333 46.667 124.333 70 195 70c55.333 0 129 -14.333 221 -43
c78.667 -24.667 138.667 -37 180 -37c56.667 0 109.167 23 157.5 69s81.166 104.333 98.499 175c2 8 5.66699 12 11 12c2 -0.666992 3.33301 -2 4 -4c0 -38 -22.667 -88.667 -68 -152c-83.333 -116 -187 -174 -311 -174c-46 0 -114.333 13.667 -205 41
c-108.667 32.667 -177.667 49 -207 49c-69.333 0 -107.666 -27.667 -114.999 -83c-1.33301 -15.333 -6 -23 -14 -23c-5.33301 0 -8 2.66699 -8 8c0 31.333 26.667 74.333 80 129c46 47.333 92.667 86 140 116c50.667 30.667 142.667 77.334 276 140.001
c167.333 78.667 298.5 169.167 393.5 271.5s142.5 203.833 142.5 304.5c0 42 -15.5 75.333 -46.5 100s-72.833 37 -125.5 37c-117.333 0 -244.333 -60.167 -381 -180.5s-205 -232.166 -205 -335.499c0 -75.333 45 -113 135 -113c72 0 152.167 35.167 240.5 105.5
s148.833 146.5 181.5 228.5c2 6.66699 5 10 9 10s6 -2 6 -6c0 -28.667 -28.667 -77 -86 -145c-50 -59.333 -107.667 -108 -173 -146s-123.666 -57 -174.999 -57s-92.5 15.333 -123.5 46s-46.5 71.334 -46.5 122.001c0 124.667 82.333 241.334 247 350.001
c134.667 88.667 259.667 133 375 133c78 0 141.5 -20.833 190.5 -62.5s73.5 -95.834 73.5 -162.501z" />
    <glyph glyph-name="F" unicode="3" 
d="M1235 897c0 -158 -137.335 -261.001 -412.002 -309.001c161.333 -36.667 242 -118.667 242 -246c0 -96 -55 -180.333 -165 -253s-237.333 -109 -382 -109c-91.333 0 -166.333 18.333 -225 55s-88 83.667 -88 141c0 59.333 29.167 110 87.5 152s128.833 63 211.5 63
c62.667 0 94 -4 94 -12c0 -4 -2 -6 -6 -6h-8c-24.667 4 -45.334 6 -62.001 6c-72.667 0 -134.167 -20.833 -184.5 -62.5s-75.5 -92.5 -75.5 -152.5c0 -49.333 19.833 -89.666 59.5 -120.999s90.834 -47 153.501 -47c122 0 234.167 43.333 336.5 130s153.5 182 153.5 286
c0 86 -52.667 142.667 -158 170c-57.333 -8.66699 -104.333 -13 -141 -13c-34.667 0 -52 4.33301 -52 13c0 13.333 24.667 20 74 20c38 0 77.667 -3.33301 119 -10c101.333 34 182 83 242 147s90 133.667 90 209c0 84.667 -54 127 -162 127
c-93.333 0 -186.666 -32.167 -279.999 -96.5s-140 -129.166 -140 -194.499c0 -60 38.333 -90 115 -90c46 0 98 18.5 156 55.5s103.667 80.833 137 131.5c3.33301 6.66699 7.33301 10 12 10c2.66699 -0.666992 4 -2 4 -4c0 -7.33301 -12.667 -25 -38 -53s-49 -50.667 -71 -68
c-70.667 -56 -138.667 -84 -204 -84c-39.333 0 -71.333 11.5 -96 34.5s-37 52.5 -37 88.5c0 67.333 47.333 131.166 142 191.499s195.334 90.5 302.001 90.5c78 0 140.167 -17.167 186.5 -51.5s69.5 -80.5 69.5 -138.5z" />
    <glyph glyph-name="G" unicode="4" 
d="M1602 1167c0 -5.33301 -2.99805 -8.00391 -8.99805 -8.00391c-2 0 -5.33301 0.666992 -10 2c-30.667 11.333 -60.667 17 -90 17c-173.333 0 -396 -140.667 -668 -422c-133.333 -138 -231.5 -233.5 -294.5 -286.5s-136.167 -101.5 -219.5 -145.5c78.667 20 182 30 310 30
c47.333 0 86.666 -1.33301 117.999 -4c36.667 56 116 168 238 336c104.667 144.667 170.334 244.334 197.001 299.001c3.33301 8 7.33301 12 12 12c2.66699 -0.666992 4 -2 4 -4c0 -1.33301 -0.666992 -3.33301 -2 -6l-10 -20c-8 -16 -56 -102.667 -144 -260
c-84.667 -153.333 -148 -274.333 -190 -363c40.667 -2.66699 78.667 -4 114 -4c70 0 126.833 15.333 170.5 46s65.5 70 65.5 118c0 17.333 -4.66699 36.333 -14 57c-1.33301 2.66699 -2 6 -2 10c0 4.66699 2 7 6 7c14.667 0 22 -24.667 22 -74
c0 -134 -127.667 -201 -383 -201c-58 -127.333 -93.333 -229.666 -106 -306.999c-24.667 8 -49.334 12 -74.001 12c-30.667 0 -64 -4 -100 -12c35.333 96 90.666 198.333 165.999 307c-14.667 0.666992 -50.334 3.33398 -107.001 8.00098
c-78.667 8.66699 -136.667 13 -174 13c-36.667 0 -77.667 -3 -123 -9c-79.333 -50 -142.666 -75 -189.999 -75c-11.333 0 -17 3.33301 -17 10c0 22.667 64.333 47.334 193 74.001c92 54 168.667 107.667 230 161c58 49.333 156 145 294 287c276.667 284 502.667 426 678 426
c24.667 0 49 -3.33301 73 -10s36 -13.667 36 -21z" />
    <glyph glyph-name="H" unicode="5" 
d="M1307 1100c0 -42 -19.168 -79.168 -57.501 -111.501s-82.166 -48.5 -131.499 -48.5c-37.333 0 -77 7.66699 -119 23c-64.667 22.667 -111.667 34 -141 34c-38.667 0 -66.667 -23 -84 -69c-38 -102 -87 -194.333 -147 -277c55.333 26 111.333 39 168 39
c90 0 165 -25.5 225 -76.5s90 -114.833 90 -191.5c0 -112.667 -62.833 -214.167 -188.5 -304.5s-267.5 -135.5 -425.5 -135.5c-83.333 0 -151.333 18.833 -204 56.5s-79 86.167 -79 145.5c0 68.667 34 126.167 102 172.5s152 69.5 252 69.5c57.333 0 86 -4 86 -12
c-0.666992 -2.66699 -2.66699 -4 -6 -4c-8 0 -19.833 0.666992 -35.5 2s-27.834 2 -36.501 2c-88.667 0 -161.667 -23.167 -219 -69.5s-86 -105.166 -86 -176.499c0 -53.333 18.667 -95.333 56 -126s88.333 -46 153 -46c122 0 240.667 51 356 153s173 206.667 173 314
c0 63.333 -21.333 114 -64 152s-100 57 -172 57c-47.333 0 -100 -11 -158 -33c-70 -90 -118.333 -135 -145 -135c-8 0 -12 3.33301 -12 10c0 26.667 49 68.334 147 125.001c117.333 157.333 176 292.333 176 405c0 12.667 -0.666992 21.667 -2 27
c-1.33301 2.66699 -2 6 -2 10c0 8.66699 4 13 12 13c8.66699 0 13 -11 13 -33c0 -20 -4.33301 -47.333 -13 -82c38 65.333 88 98 150 98c24 0 88 -17.667 192 -53c36.667 -12 64.667 -18 84 -18c20.667 0 38.834 7.5 54.501 22.5s23.5 32.5 23.5 52.5
c0 5.33301 -1.33301 11.666 -4 18.999s-4 12 -4 14c0 8 3.33301 12 10 12c8.66699 0 13 -8.66699 13 -26z" />
    <glyph glyph-name="I" unicode="6" 
d="M1325 1169c0 -6.66699 -6.66602 -10 -19.999 -10h-19c-118.667 0 -265.334 -84.667 -440.001 -254s-305 -353 -391 -551c66.667 108 144.5 195.167 233.5 261.5s172.833 99.5 251.5 99.5c66.667 0 120.834 -20.5 162.501 -61.5s62.5 -94.167 62.5 -159.5
c0 -118 -64.833 -233.167 -194.5 -345.5s-262.834 -168.5 -399.501 -168.5c-74.667 0 -134.167 24 -178.5 72s-66.5 112.667 -66.5 194c0 120.667 49.667 247 149 379s238.666 257.333 417.999 376c72 48 149.333 89.833 232 125.5s143.334 53.5 182.001 53.5
c12 0 18 -3.66699 18 -11zM1079 567c0 90 -49.667 135 -149 135c-106 0 -218.833 -62.167 -338.5 -186.5s-179.5 -241.5 -179.5 -351.5c0 -52 13 -93.667 39 -125s60.667 -47 104 -47c103.333 0 216.5 67.5 339.5 202.5s184.5 259.167 184.5 372.5z" />
    <glyph glyph-name="J" unicode="7" 
d="M1311 1124c0 -30.667 -16.332 -72.998 -48.999 -126.998c-26.667 -43.333 -53 -79.333 -79 -108c-30 -34.667 -98.667 -104.334 -206 -209.001c-268 -262 -407.333 -490 -418 -684c-30.667 6.66699 -61.334 10 -92.001 10c-28 0 -54 -3.33301 -78 -10
c23.333 129.333 83.166 252.333 179.499 369s252.833 257 469.5 421c116.667 88 193.334 170.667 230.001 248c-48 -70.667 -120.333 -106 -217 -106c-50 0 -115.667 15 -197 45s-134 45 -158 45c-20 0 -39.667 -5.66699 -59 -17l-6 -12
c-52 -103.333 -89.667 -155 -113 -155c-8 0 -12 4 -12 12c0 33.333 39 85 117 155c14.667 30.667 22 56.667 22 78c0 8.66699 -2 19.667 -6 33v4c0 8 4 12 12 12c8.66699 0 13 -6.66699 13 -20c0 -24.667 -7.66699 -55.334 -23 -92.001c53.333 43.333 107.333 65 162 65
c32 0 99 -17 201 -51c56.667 -19.333 103.667 -29 141 -29c92.667 0 139 33 139 99c0 5.33301 -0.666992 11.333 -2 18v6c0 11.333 4.66699 17 14 17c10 0 15 -5.66699 15 -17z" />
    <glyph glyph-name="K" unicode="8" 
d="M1327 930c0 -117.333 -141.332 -217.669 -423.999 -301.002c62.667 -59.333 104.667 -107 126 -143s32 -76.333 32 -121c0 -99.333 -50.667 -188.333 -152 -267s-216 -118 -344 -118c-92 0 -166.5 20.833 -223.5 62.5s-85.5 96.5 -85.5 164.5
c0 80.667 39.5 150.834 118.5 210.501s214.167 121.834 405.5 186.501c-66.667 65.333 -100 126.666 -100 183.999c0 78 43.167 149.167 129.5 213.5s181.833 96.5 286.5 96.5c65.333 0 120.166 -16.167 164.499 -48.5s66.5 -72.166 66.5 -119.499zM1260 960.997
c0 35.333 -15.6689 64.833 -47.002 88.5s-70.333 35.5 -117 35.5c-84 0 -158.333 -24.5 -223 -73.5s-97 -105.5 -97 -169.5c0 -36.667 13.667 -74.334 41 -113.001c10.667 -15.333 37.334 -46 80.001 -92c110.667 38 198.834 86.333 264.501 145s98.5 118.334 98.5 179.001z
M957.999 300.997c0 56 -18 110 -54 162c-10.667 14.667 -50 59 -118 133c-301.333 -110 -452 -251.333 -452 -424c0 -120 76.333 -180 229 -180c107.333 0 200 30.5 278 91.5s117 133.5 117 217.5z" />
    <glyph glyph-name="L" unicode="9" 
d="M1253 819c0 -113.333 -51.0029 -235.669 -153.003 -367.002s-240.667 -252.666 -416 -363.999c-77.333 -49.333 -159.5 -91.333 -246.5 -126s-152.833 -52 -197.5 -52c-11.333 0 -17 3.33301 -17 10c0 9.33301 8.33301 14 25 14h14c120.667 0 270.834 80.5 450.501 241.5
s312.834 334.5 399.501 520.5c-65.333 -97.333 -145.666 -178 -240.999 -242s-183 -96 -263 -96c-64 0 -115.167 19.5 -153.5 58.5s-57.5 91.167 -57.5 156.5c0 118.667 68.333 231.334 205 338.001c66 52 138 94.333 216 127s144.667 49 200 49
c69.333 0 125.833 -24.667 169.5 -74s65.5 -114 65.5 -194zM1167 904.997c0 113.333 -49 170.001 -147 170.001c-102.667 0 -218.167 -68.333 -346.5 -205s-192.5 -259.334 -192.5 -368.001c0 -86 45.667 -129 137 -129c60 0 131.667 24.667 215 74s155.333 110 216 182
c78.667 93.333 118 185.333 118 276z" />
    <glyph glyph-name="M" unicode=":" horiz-adv-x="457" 
d="M528 410c0 -30 -13.499 -58.666 -40.499 -85.999s-55.167 -41 -84.5 -41c-28.667 0 -43 15 -43 45c0 27.333 14.167 54.666 42.5 81.999s57.166 41 86.499 41c26 0 39 -13.667 39 -41zM348.001 117.001c0 -30 -13.668 -58.666 -41.001 -85.999s-55.333 -41 -84 -41
s-43 15 -43 45c0 27.333 14.333 54.666 43 81.999s57.334 41 86.001 41c26 0 39 -13.667 39 -41z" />
    <glyph glyph-name="N" unicode=";" horiz-adv-x="457" 
d="M508 418c0 -30 -13.667 -58.667 -41 -86s-55.333 -41 -84 -41s-43 14.333 -43 43s14 56.667 42 84s57 41 87 41c26 0 39 -13.667 39 -41zM311 121c0 -45.333 -24.333 -94.666 -73 -147.999c-18.667 -20 -43.5 -40 -74.5 -60s-52.833 -30 -65.5 -30c-4 0 -6 2 -6 6
s2.66699 7 8 9c28 10 53.167 24.167 75.5 42.5s33.5 34.166 33.5 47.499c0 4 -3.33301 6 -10 6c-30 0 -45 14.333 -45 43c0 26 13.5 53.667 40.5 83s52.167 44 75.5 44c27.333 0 41 -14.333 41 -43z" />
    <glyph glyph-name="O" unicode="&#x3c;" horiz-adv-x="1071" 
d="M1409 909l-16 -43l-979 -364l733 -373l-31 -25l-749 381l16 43z" />
    <glyph glyph-name="P" unicode="=" horiz-adv-x="1071" 
d="M1337 610c-2.66699 -12 -23 -18 -61 -18h-844c-22.667 0 -33 6 -31 18c2.66699 12.667 23.334 19 62.001 19h840c25.333 0 36.666 -6.33301 33.999 -19zM1217 426c-2.66699 -12 -23.333 -18 -62 -18h-844c-22.667 0 -32.667 6 -30 18c2 12 22.333 18 61 18h840
c25.333 0 37 -6 35 -18z" />
    <glyph glyph-name="Q" unicode="&#x3e;" horiz-adv-x="1071" 
d="M1274 532l-17 -43l-1026 -380l17 43l979 364l-733 373l30 24z" />
    <glyph glyph-name="R" unicode="?" horiz-adv-x="893" 
d="M1253 909c0 -104.667 -63.3311 -196.669 -189.998 -276.002c-46 -29.333 -158 -78 -336 -146c-182.667 -70 -274 -142.333 -274 -217c0 -34 17.667 -51 53 -51c60 0 116.667 39 170 117c2 4 4.66699 6 8 6c2.66699 -0.666992 4 -2.66699 4 -6
c0 -11.333 -19 -34.666 -57 -69.999c-45.333 -40.667 -87 -61 -125 -61c-45.333 0 -68 21 -68 63c0 36 21.333 73 64 111c20 18 38.667 32.333 56 43c24.667 16 81.667 48.667 171 98c281.333 156.667 422 310.334 422 461.001c0 110 -65.667 172 -197 186
c6 -25.333 9 -50.333 9 -75c0 -118 -47.167 -230.5 -141.5 -337.5s-193.5 -160.5 -297.5 -160.5c-44 0 -80.5 14.167 -109.5 42.5s-43.5 63.833 -43.5 106.5c0 108.667 58.833 208.334 176.5 299.001s247.167 136 388.5 136c-34.667 81.333 -91.334 122 -170.001 122
c-27.333 0 -53.333 -4.66699 -78 -14c-5.33301 -2.66699 -8.66602 -4 -9.99902 -4c-3.33301 1.33301 -5.33301 3.33301 -6 6c0 5.33301 11 11.166 33 17.499s42.333 9.5 61 9.5c85.333 0 146.666 -45.667 183.999 -137c89.333 -6.66699 162.166 -35 218.499 -85
s84.5 -111.333 84.5 -184zM950.002 1092c0 24.667 -3.33301 49.667 -10 75c-134 0 -259.667 -55.333 -377 -166c-108 -101.333 -162 -196 -162 -284c0 -72.667 40.333 -109 121 -109c95.333 0 190.5 54 285.5 162s142.5 215.333 142.5 322zM477.002 116.998
c0 -30 -13.668 -58.666 -41.001 -85.999s-55.333 -41 -84 -41s-43 15 -43 45c0 27.333 14.333 54.666 43 81.999s57.334 41 86.001 41c26 0 39 -13.667 39 -41z" />
    <glyph glyph-name="S" unicode="@" horiz-adv-x="1393" 
d="M1663 526c-24 -77.333 -67.665 -145.332 -130.998 -203.999c-4.66699 -66.667 -30 -127 -76 -181c-112.667 -130.667 -288.667 -196 -528 -196c-154.667 0 -286.334 35.667 -395.001 107c-131.333 87.333 -197 212 -197 374c0 182 82.333 334 247 456
c158.667 118 348.667 177 570 177c153.333 0 280.666 -46.333 381.999 -139c94.667 -86 142 -185.667 142 -299c0 -32.667 -4.66699 -64.334 -14 -95.001zM1623 638.001c0 108.667 -41.335 202.668 -124.002 282.001c-90 86 -206.667 129 -350 129
c-210.667 0 -389 -59 -535 -177c-148.667 -120 -223 -269.333 -223 -448c0 -147.333 59.667 -265 179 -353c103.333 -76 223.333 -114 360 -114c232 0 403.333 63.333 514 190c40 46.667 64.667 100 74 160c-98 -84 -200.333 -126 -307 -126c-10 0 -22 0.666992 -36 2
c-98 12.667 -147 60.334 -147 143.001c0 36 11 74.667 33 116c-67.333 -93.333 -118.666 -156.166 -153.999 -188.499s-69.333 -48.5 -102 -48.5c-36 0 -65.833 15.167 -89.5 45.5s-35.5 68.5 -35.5 114.5c0 127.333 90 240.666 270 339.999c80 43.333 144.333 65 193 65
c40.667 0 61 -19.667 61 -59c0 -12 -2.66699 -27 -8 -45l51 96c20.667 -4 38.334 -6 53.001 -6c18 0 41.333 2 70 6l-176 -293c-61.333 -102 -92 -169.667 -92 -203c0 -43.333 30 -67.666 90 -72.999c53.333 -5.33301 110 8 170 40s112.667 76.667 158 134
c-2.66699 60.667 -20.667 111 -54 151c-10.667 11.333 -15.334 17.666 -14.001 18.999c3.33301 3.33301 10.333 -0.333984 21 -11.001c32.667 -32.667 52.334 -80.334 59.001 -143.001c60.667 84 91 169 91 255zM1190 707.002c0 32.667 -15 48.999 -45 48.999
c-61.333 0 -141.833 -60.167 -241.5 -180.5s-149.5 -217.166 -149.5 -290.499c0 -44 19 -66 57 -66c46 0 126 76.667 240 230c92.667 124.667 139 210.667 139 258z" />
    <glyph glyph-name="T" unicode="A" horiz-adv-x="1860" 
d="M1786 1016c0 -7.33301 -12.332 -24.998 -36.999 -52.998c-68 -78 -132.333 -117 -193 -117c-38.667 0 -70.167 13.5 -94.5 40.5s-36.5 62.5 -36.5 106.5c0 37.333 22 97.666 66 180.999c20.667 38.667 31 70.667 31 96c0 33.333 -18.5 61.833 -55.5 85.5
s-82.167 35.5 -135.5 35.5c-152.667 0 -294.167 -58.667 -424.5 -176s-195.5 -244.333 -195.5 -381c0 -69.333 21.833 -126 65.5 -170s100.167 -66 169.5 -66c75.333 0 151.166 27.5 227.499 82.5s130.166 121.167 161.499 198.5c2 6.66699 4.66699 10 8 10
c6 0 9 -3.33301 9 -10c0 -14 -11.667 -38.833 -35 -74.5s-47.333 -65.5 -72 -89.5c-90 -88.667 -191 -133 -303 -133c-76 0 -137 23.333 -183 70s-69 108.667 -69 186c0 140.667 67.833 271 203.5 391s282.834 180 441.501 180c70 0 124.833 -17.333 164.5 -52
s59.5 -82.334 59.5 -143.001c0 -45.333 -16 -99 -48 -161c-28.667 -56.667 -43 -95 -43 -115c0 -49.333 29.333 -74 88 -74c66.667 0 135.667 49.333 207 148c6 8 11 12 15 12c5.33301 0 8 -2.66699 8 -8zM2857 1198c0 -12 -6.99902 -17.999 -20.999 -17.999
c-6 0 -28.333 4 -67 12c-71.333 14.667 -130.666 22 -178 22c-107.333 -32.667 -202.166 -96 -284.5 -190c-82.333 -94 -176.166 -246.333 -281.499 -457c-161.333 -323.333 -368 -514.333 -620 -573c52.667 -8 98.334 -12 137.001 -12c122.667 0 225.667 39.333 309 118
c80.667 76 147.667 156.667 201 242c6 9.33301 10.667 14 14 14c4 0 6.33301 -1.33301 7 -4c0 -10 -38.333 -61.667 -115 -155c-71.333 -87.333 -136.333 -147.5 -195 -180.5s-130.334 -49.5 -215.001 -49.5c-48.667 0 -108 7 -178 21c-42.667 -14 -91.667 -21 -147 -21
c-38.667 0 -58 7 -58 21c0 16 26 24 78 24c36.667 0 79 -3.33301 127 -10c103.333 24.667 181.5 65.334 234.5 122.001s155.167 210 306.5 460h-385c-163.333 -172 -289.666 -294.333 -378.999 -367c-208.667 -169.333 -405.334 -254 -590.001 -254
c-105.333 0 -194.833 24.667 -268.5 74s-110.5 109.333 -110.5 180c0 36.667 11.167 68 33.5 94s49.5 39 81.5 39c43.333 0 65 -21 65 -63c0 -22 -7.5 -40.833 -22.5 -56.5s-32.5 -23.5 -52.5 -23.5c-31.333 0 -47 15 -47 45l2 20c1.33301 2.66699 2 6.33398 2 11.001
c0 6.66699 -3 10 -9 10c-6.66699 0 -13.334 -8.33301 -20.001 -25s-10 -33.667 -10 -51c0 -65.333 34.333 -120.5 103 -165.5s153 -67.5 253 -67.5c143.333 0 301 70.333 473 211c39.333 31.333 83 72.666 131 123.999l228 234l30 31h-194l12 18
c64 0 129.667 -0.666992 197 -2c195.333 217.333 384.833 376.166 568.5 476.499s377.834 151.166 582.5 152.499c47.333 9.33301 91.666 14 132.999 14c92.667 0 139 -15 139 -45zM2540 1210c-174 -8.66699 -335.332 -58.668 -483.999 -150.001
s-320 -244.666 -514 -459.999h379c85.333 148.667 188.333 282 308.999 400c118.667 117.333 222 187.333 310 210z" />
    <glyph glyph-name="U" unicode="B" horiz-adv-x="1903" 
d="M2488 1040c0 -34.667 -4.66602 -72.667 -13.999 -114s-18.333 -62 -27 -62c-6.66699 0 -10 3.33301 -10 10c0 2 0.666992 5 2 9c18 46.667 27 97 27 151c0 84 -25 151.5 -75 202.5s-116 76.5 -198 76.5c-110 0 -223.333 -36.333 -340 -109
c93.333 -69.333 140 -150.333 140 -243c0 -148.667 -101 -237 -303 -265c166 -58 249 -164.333 249 -319c0 -114.667 -48.833 -215 -146.5 -301s-211.834 -129 -342.501 -129c-62.667 0 -112.5 16.167 -149.5 48.5s-55.5 76.166 -55.5 131.499
c0 85.333 39.167 169.833 117.5 253.5s157.166 125.5 236.499 125.5c44 0 80 -13.833 108 -41.5s42 -63.167 42 -106.5c0 -26 -8 -58.333 -24 -97s-29 -58 -39 -58c-7.33301 0 -11 2.66699 -11 8c0 2.66699 1.33301 6.66699 4 12c34.667 50.667 52 96.334 52 137.001
c0 38 -12.333 68.667 -37 92s-57 35 -97 35c-75.333 0 -149 -39.667 -221 -119s-108 -160.333 -108 -243c0 -44 15 -80.667 45 -110s67.333 -44 112 -44c102 0 195.5 49.5 280.5 148.5s127.5 207.833 127.5 326.5c0 110.667 -53.333 192 -160 244l-58 -7
c-16 -2 -32 -3 -48 -3c-50.667 0 -76 8.33301 -76 25c0 12 21 18 63 18c30 0 69.667 -6 119 -18c69.333 21.333 124.166 58.666 164.499 111.999s60.5 114.666 60.5 183.999c0 66.667 -25.667 127 -77 181c-146 -112 -283.333 -302 -412 -570
c-79.333 -164.667 -152 -284 -218 -358c-64 -71.333 -155 -136.333 -273 -195c-139.333 -68 -263.666 -102 -372.999 -102c-89.333 0 -163.666 20.5 -222.999 61.5s-89 92.167 -89 153.5c0 34 10.167 63.333 30.5 88s44.5 37 72.5 37c40.667 0 61 -22.667 61 -68
c0 -22.667 -6.83301 -42 -20.5 -58s-30.5 -24 -50.5 -24c-34.667 0 -51.334 18 -50.001 54c0.666992 14.667 -0.666016 22 -3.99902 22c-10.667 0 -16 -17.667 -16 -53c0 -55.333 27.167 -101.333 81.5 -138s122.833 -55 205.5 -55c146 0 278.333 54 397 162
c51.333 46.667 96 95.5 134 146.5s125 180.5 261 388.5c66 99.333 145.333 200.333 238 303s170.334 175.667 233.001 219c-105.333 88.667 -258 133 -458 133c-281.333 0 -526 -101.667 -734 -305c-170.667 -166.667 -256 -323.667 -256 -471c0 -74.667 24 -134 72 -178
s113 -66 195 -66c134 0 272.5 64.333 415.5 193s214.5 253.667 214.5 375c0 96.667 -49.667 145 -149 145s-205.833 -55.167 -319.5 -165.5s-170.5 -214.166 -170.5 -311.499c0 -24 8 -44.667 24 -62s34.667 -26 56 -26c11.333 -2 17 -4.66699 17 -8
c0 -6 -6.33301 -9 -19 -9c-32 0 -59 14.5 -81 43.5s-33 64.5 -33 106.5c0 103.333 57 204.166 171 302.499s231 147.5 351 147.5c114.667 0 172 -53 172 -159c0 -129.333 -73 -260 -219 -392s-290 -198 -432 -198c-92.667 0 -166.834 27.833 -222.501 83.5
s-83.5 130.167 -83.5 223.5c0 188.667 106.5 360.834 319.5 516.501s448.5 233.5 706.5 233.5c194 0 358.667 -43.667 494 -131c122 76 240 114 354 114c89.333 0 161.166 -26.667 215.5 -80c54.333 -53.333 81.5 -123.666 81.5 -210.999z" />
    <glyph glyph-name="V" unicode="C" horiz-adv-x="1632" 
d="M1917 1110c0 -43.333 -29.999 -88.333 -89.999 -135c54.667 -80.667 82 -155 82 -223c0 -16.667 -5 -25 -15 -25c-8 0 -12 11 -12 33c0 66.667 -23.333 134.334 -70 203.001c-96.667 -72 -228.167 -134.167 -394.5 -186.5s-313.833 -78.5 -442.5 -78.5
c-18 0 -33.667 0.666992 -47 2c-106.667 -148.667 -160 -292 -160 -430c0 -94 29.167 -168.333 87.5 -223s137.833 -82 238.5 -82c190 0 359.333 91 508 273c90 110 135 214.333 135 313c0 52 -15.667 93.333 -47 124s-73 46 -125 46
c-83.333 0 -172.833 -43.833 -268.5 -131.5s-143.5 -169.5 -143.5 -245.5c0 -6.66699 2 -10 6 -10c3.33301 0.666992 6 2 8 4c18 16 34.667 24 50 24c34 0 51 -18.333 51 -55c0 -49.333 -24 -74 -72 -74c-44 0 -66 26.667 -66 80c0 95.333 48.333 189.833 145 283.5
s194.667 140.5 294 140.5c128 0 192 -70.333 192 -211c0 -145.333 -69.5 -277.833 -208.5 -397.5s-293.167 -179.5 -462.5 -179.5c-118 0 -217.167 39.667 -297.5 119s-120.5 177.333 -120.5 294c0 113.333 39.667 229.666 119 348.999
c-288.667 53.333 -433 167.333 -433 342c0 104 53.667 191 161 261s241 105 401 105c223.333 0 449 -74.333 677 -223c39.333 8 79.666 12 120.999 12c132.667 0 199 -32.667 199 -98zM1901 1110c0 54.667 -53.333 82.001 -160 82.001c-33.333 0 -73 -4.66699 -119 -14
c79.333 -54.667 145 -118.334 197 -191.001c54.667 46.667 82 87.667 82 123zM1804 977.001c-51.333 74 -120.332 139.667 -206.999 197c-124.667 -34 -246.334 -92.5 -365.001 -175.5s-216 -177.5 -292 -283.5c139.333 0 293.5 25.5 462.5 76.5
s302.833 112.833 401.5 185.5zM1569 1192c-202.667 117.333 -418.333 176 -647 176c-141.333 0 -264.833 -33.333 -370.5 -100s-158.5 -144.667 -158.5 -234c0 -159.333 135.333 -262.333 406 -309c168 234 424.667 389.667 770 467z" />
    <glyph glyph-name="W" unicode="D" horiz-adv-x="1735" 
d="M2568 1028c0 -34 -3.99805 -69.832 -11.998 -107.499s-15.667 -56.5 -23 -56.5c-4 0 -6 2 -6 6c0 4.66699 0.666992 9 2 13c15.333 40.667 23 88.334 23 143.001c0 84 -25.5 151.5 -76.5 202.5s-118.5 76.5 -202.5 76.5c-161.333 0 -317.666 -76.667 -468.999 -230
c57.333 -106.667 86 -219.334 86 -338.001c0 -218.667 -83.833 -404 -251.5 -556s-372.5 -228 -614.5 -228c-74.667 0 -177 10.333 -307 31c-112.667 -20.667 -220.667 -31 -324 -31c-176 0 -264 17.667 -264 53c0 17.333 21.5 32.666 64.5 45.999s93.167 20 150.5 20
c69.333 0 207.333 -22.667 414 -68c139.333 36.667 249 94.334 329 173.001c78 76.667 197.667 243.667 359 501c97.333 156 204.333 289 321 399c-97.333 164 -255 246 -473 246c-225.333 0 -432 -88.667 -620 -266c-94.667 -89.333 -170.334 -188 -227.001 -296
s-85 -207.333 -85 -298c0 -72 22.833 -129.667 68.5 -173s106.167 -65 181.5 -65c127.333 0 259.5 68.667 396.5 206s205.5 269.333 205.5 396c0 48 -13.333 86.667 -40 116s-61.667 44 -105 44c-49.333 0 -74 -8 -74 -24c0 -4.66699 3.66699 -7 11 -7
c4 0 7.33301 0.666992 10 2h14c32.667 0 49 -15 49 -45c0 -22 -8.33301 -41.167 -25 -57.5s-36.334 -24.5 -59.001 -24.5c-40.667 0 -61 22 -61 66c0 30 13.333 55.667 40 77s59 32 97 32c48.667 0 88.167 -16.167 118.5 -48.5s45.5 -74.5 45.5 -126.5
c0 -134.667 -70.167 -272.334 -210.5 -413.001s-277.833 -211 -412.5 -211c-92.667 0 -169 30.833 -229 92.5s-90 140.834 -90 237.501c0 207.333 102.333 393.166 307 557.499s436 246.5 694 246.5c219.333 0 384.666 -81 495.999 -243c162.667 150 328 225 496 225
c84 0 152 -27.167 204 -81.5s78 -125.5 78 -213.5zM1835 811.001c0 85.333 -17.667 165.333 -53 240c-90 -102.667 -170.667 -231.667 -242 -387c-94 -206 -191.333 -354.333 -292 -445c-104 -92.667 -256.333 -167 -457 -223c84.667 -18 174.667 -27 270 -27
c255.333 0 462 123.667 620 371c102.667 160 154 317 154 471zM682.002 -9.99902c-184 26 -321.333 39 -412 39c-80 0 -120 -7.66699 -120 -23c0 -23.333 87.333 -35 262 -35c100 0 190 6.33301 270 19z" />
    <glyph glyph-name="X" unicode="E" horiz-adv-x="1722" 
d="M2124 1120c0 -44.667 -40.9961 -66.999 -122.996 -66.999c-64.667 0 -218.334 30 -461.001 90c-113.333 -64.667 -170 -146 -170 -244c0 -47.333 16.333 -80 49 -98c47.333 4 83 6 107 6c69.333 0 104 -8.33301 104 -25c0 -10.667 -18.333 -16 -55 -16
c-46.667 0 -97.334 6.66699 -152.001 20c-74 -10.667 -160 -39.334 -258 -86.001c-249.333 -119.333 -374 -274 -374 -464c0 -126 68 -206 204 -240c-24.667 40.667 -37 87.667 -37 141c0 131.333 67 252.333 201 363s280.667 166 440 166c73.333 0 131.666 -18 174.999 -54
s65 -84.333 65 -145c0 -130 -71.333 -247.167 -214 -351.5s-303.334 -156.5 -482.001 -156.5c-36 0 -69.667 2 -101 6c64 -86 159 -129 285 -129c78 0 141.667 11.667 191 35l12 2c4 -1.33301 6 -4 6 -8c0 -9.33301 -24.667 -19.166 -74 -29.499s-94.333 -15.5 -135 -15.5
c-139.333 0 -245.666 50.333 -318.999 151c-102 22.667 -181.833 61.167 -239.5 115.5s-86.5 117.5 -86.5 189.5c0 96.667 40 187.167 120 271.5s186.667 148.166 320 191.499c80.667 26.667 173 46 277 58c-74 31.333 -111 81 -111 149c0 87.333 54 160.333 162 219
c-154.667 37.333 -282.334 56 -383.001 56c-197.333 0 -365.5 -49.333 -504.5 -148s-208.5 -218 -208.5 -358c0 -62.667 18.333 -116.334 55 -161.001s80.667 -67 132 -67c35.333 0 53 5.66699 53 17c0 6 -6.33301 8 -19 6c-35.333 0 -53 16.333 -53 49
c0 18.667 7.83301 34.667 23.5 48s34.5 20 56.5 20c42.667 0 64 -20.667 64 -62c0 -27.333 -12.167 -50.5 -36.5 -69.5s-53.833 -28.5 -88.5 -28.5c-62 0 -114.833 27.833 -158.5 83.5s-65.5 122.834 -65.5 201.501c0 118 51.333 226.333 154 325
c122 117.333 293.333 176 514 176c122.667 0 286 -25 490 -75c92 44.667 199 67 321 67c90.667 0 168 -12.167 232 -36.5s96 -53.833 96 -88.5zM2103 1122c0 26 -27.501 49 -82.501 69s-118.167 30 -189.5 30c-98 0 -187.333 -21.333 -268 -64
c176.667 -57.333 325.334 -86 446.001 -86c62.667 0 94 17 94 51zM1821 475.001c0 48 -19.001 87.667 -57.001 119s-86 47 -144 47c-143.333 0 -283.333 -59.5 -420 -178.5s-205 -240.5 -205 -364.5c0 -36 11 -72.667 33 -110c38.667 -7.33301 74.334 -11 107.001 -11
c157.333 0 311 54.5 461 163.5s225 220.5 225 334.5z" />
    <glyph glyph-name="Y" unicode="F" horiz-adv-x="1352" 
d="M2540 1167c0 -32.667 -32.6641 -60.5029 -97.9971 -83.5029s-144 -34.5 -236 -34.5c-120 0 -267 18.333 -441 55c-84.667 -40 -162.5 -100.833 -233.5 -182.5s-148.167 -199.167 -231.5 -352.5c41.333 -6.66699 75.666 -12 102.999 -16c37.333 86 90.666 129 159.999 129
c47.333 0 71 -18.333 71 -55c0 -29.333 -15.833 -53.166 -47.5 -71.499s-73.167 -27.5 -124.5 -27.5h-20c-2 -2.66699 -10.333 -20.334 -25 -53.001c-16.667 -38.667 -40.667 -71.5 -72 -98.5s-60.666 -40.5 -87.999 -40.5c-9.33301 0 -14 2 -14 6c0 3.33301 3.33301 6 10 8
c46 14 92.667 75.667 140 185c-19.333 2 -47.333 6 -84 12l-19 4l-41 -74c-57.333 -102.667 -103.833 -176 -139.5 -220s-83.834 -87.333 -144.501 -130c-161.333 -113.333 -328 -170 -500 -170c-101.333 0 -184.333 21.167 -249 63.5s-97 96.833 -97 163.5
c0 33.333 9.83301 61.833 29.5 85.5s43.167 35.5 70.5 35.5c44 0 66 -22.333 66 -67c0 -20.667 -6.83301 -38.5 -20.5 -53.5s-30.167 -22.5 -49.5 -22.5c-32.667 0 -49 15.667 -49 47c2 16 0 24 -6 24c-12.667 0 -19 -17.667 -19 -53c0 -56 29.167 -103.833 87.5 -143.5
s128.833 -59.5 211.5 -59.5c130 0 247 38.833 351 116.5s218 211.834 342 402.501l47 71h-19c-74.667 0 -126.334 -28.667 -155.001 -86c-3.33301 -9.33301 -7 -14 -11 -14c-5.33301 0 -8 2.66699 -8 8c0 26.667 18.833 51.834 56.5 75.501s77.5 35.5 119.5 35.5h29
c174.667 264 357.667 438.667 549 524c-51.333 11.333 -104.666 24.333 -159.999 39c-178.667 46.667 -317.334 70 -416.001 70c-20 0 -39 -0.666992 -57 -2c28.667 -55.333 43 -117.666 43 -186.999c0 -145.333 -56.833 -282.333 -170.5 -411s-235.167 -193 -364.5 -193
c-54.667 0 -99 17.167 -133 51.5s-51 79.166 -51 134.499c0 126 65.5 253.5 196.5 382.5s277.167 210.5 438.5 244.5c-50.667 75.333 -128.334 113 -233.001 113c-171.333 0 -326.333 -83.333 -465 -250c-11.333 -11.333 -17.666 -17 -18.999 -17
c-4 0 -6.66699 2.33301 -8 7c0 12 28 44 84 96c129.333 120 263 180 401 180c122.667 0 211.667 -41.667 267 -125c70.667 18 153 27 247 27c59.333 0 114 -4.66699 164 -14s170.333 -36.666 361 -81.999c148.667 57.333 288 86 418 86c76.667 0 138.5 -8.5 185.5 -25.5
s70.5 -39.5 70.5 -67.5zM2521 1165c0 20.667 -21.834 38.5 -65.501 53.5s-96.167 22.5 -157.5 22.5c-145.333 0 -278.666 -25.333 -399.999 -76l134 -30c112 -26 215 -39 309 -39c48 0 90 7 126 21s54 30 54 48zM1616 624.997c0 28.667 -16.333 42.999 -49 42.999
c-43.333 0 -80.333 -34.333 -111 -103l-8 -18h25c41.333 0 75.5 7.33301 102.5 22s40.5 33.334 40.5 56.001zM1114 1077c0 44.667 -11 89.668 -33 135.001c-153.333 -19.333 -297 -92.5 -431 -219.5s-201 -253.167 -201 -378.5c0 -46.667 14.833 -86.334 44.5 -119.001
s66.5 -49 110.5 -49c116 0 230 69.5 342 208.5s168 279.833 168 422.5z" />
    <glyph glyph-name="Z" unicode="G" horiz-adv-x="1503" 
d="M1866 926c0 -16.667 -25.832 -55.4961 -77.499 -116.496s-103.834 -113.833 -156.501 -158.5c-47.333 -76 -82 -138.833 -104 -188.5s-49.333 -128.167 -82 -235.5c-40.667 -130.667 -90.834 -234.334 -150.501 -311.001s-143.5 -145 -251.5 -205
c-154.667 -86 -313 -129 -475 -129c-137.333 0 -248.333 37.333 -333 112s-127 172.667 -127 294c0 103.333 32 201.5 96 294.5s151.5 168.167 262.5 225.5s213.833 86 308.5 86c8 0 15 -0.666992 21 -2c0 16.667 4.66699 46 14 88c-12 -1.33301 -26.333 -2 -43 -2
c-107.333 0 -192.833 23.667 -256.5 71s-95.5 110.333 -95.5 189c0 136 77 256.667 231 362s331 158 531 158c158.667 0 288.334 -39.667 389.001 -119c70 26 121.667 39 155 39c64.667 0 97 -26.667 97 -80c0 -49.333 -37.667 -110.666 -113 -183.999
c5.33301 -36.667 8 -67.334 8 -92.001c0 -72 -21 -149 -63 -231c-12.667 -24.667 -21.667 -37 -27 -37c-3.33301 0 -5.33301 2 -6 6c0.666992 3.33301 2 6.66602 4 9.99902c49.333 81.333 74 166.666 74 255.999c0 27.333 -1.33301 52.666 -4 75.999
c-111.333 -98 -235.5 -183.5 -372.5 -256.5s-267.5 -123.5 -391.5 -151.5c-21.333 -34.667 -37.666 -70.667 -48.999 -108c176 -30 264 -125.667 264 -287v-20c132.667 36 295.667 167.667 489 395c43.333 68 87.666 128 132.999 180s76.333 78 93 78c4 0 6.66699 -2 8 -6z
M1800 1296c0 44 -25.333 66 -76 66c-38.667 0 -85 -13 -139 -39c57.333 -49.333 96.333 -112.666 117 -189.999c65.333 63.333 98 117.666 98 162.999zM1688 1120c-17.333 79.333 -57 145 -119 197c-119.333 -59.333 -238 -145.5 -356 -258.5s-209.667 -228.167 -275 -345.5
c118.667 28 246.167 78.833 382.5 152.5s258.833 158.5 367.5 254.5zM1548 1333c-88.667 70 -210.666 105.002 -365.999 105.002c-187.333 0 -358.833 -51.833 -514.5 -155.5s-233.5 -217.834 -233.5 -342.501c0 -76.667 30.667 -136.5 92 -179.5
s146.666 -64.5 255.999 -64.5h35c78 255.333 321.667 467.666 731 636.999zM1126 274.006c4.66699 79.333 -14.999 144.833 -58.999 196.5s-107.333 84.5 -190 98.5c-10 -34 -15 -68 -15 -102c0 -59.333 19.167 -107 57.5 -143s88.833 -54 151.5 -54
c19.333 0 37.666 1.33301 54.999 4zM1597 610.006c-179.333 -199.333 -332.003 -316.001 -458.003 -350.001c-13.333 -91.333 -56.166 -174.5 -128.499 -249.5s-145.5 -112.5 -219.5 -112.5c-39.333 0 -72.166 12 -98.499 36s-39.5 53.667 -39.5 89
c0 36.667 12.5 69.667 37.5 99s52.833 44 83.5 44c46.667 0 70 -21.333 70 -64c0 -19.333 -7.66699 -36.666 -23 -51.999s-32.333 -23 -51 -23c-35.333 0 -53 15.667 -53 47c0 4.66699 1.33301 12 4 22c1.33301 5.33301 2 10.333 2 15c0 4 -2 6 -6 6
c-10 0 -20 -10.833 -30 -32.5s-15 -42.167 -15 -61.5c0 -31.333 11.333 -57.333 34 -78s51 -31 85 -31c68 0 137.833 37 209.5 111s112.167 151 121.5 231c-14.667 -2.66699 -31.667 -4 -51 -4c-85.333 0 -152.666 28.833 -201.999 86.5s-74 135.834 -74 234.501
c-168 -10.667 -314.833 -80.5 -440.5 -209.5s-188.5 -274.167 -188.5 -435.5c0 -96.667 35.833 -175 107.5 -235s165.5 -90 281.5 -90c157.333 0 300.333 55.667 429 167s278 308.666 448 591.999c52 88 107 170.667 165 248z" />
    <glyph glyph-name="bracketleft" unicode="H" horiz-adv-x="1767" 
d="M2796 1075c0 -106.667 -64.3311 -195.997 -192.998 -267.997c-56 -31.333 -94.333 -47 -115 -47c-5.33301 0 -8 2.66699 -8 8c0 3.33301 9.66699 8.66602 29 15.999c74.667 29.333 135.667 71.166 183 125.499s71 110.166 71 167.499
c0 53.333 -18.333 96.666 -55 129.999s-84.667 50 -144 50c-190.667 0 -361.334 -109.667 -512 -329c-26 -38 -105 -184.333 -237 -439c-143.333 -274 -312 -442.333 -506 -505c58 -7.33301 103.667 -11 137 -11c121.333 0 224.333 39.667 309 119
c73.333 68 139.666 147.333 198.999 238c7.33301 9.33301 12.666 14 15.999 14c2.66699 -0.666992 4 -2 4 -4c0 -6.66699 -31.333 -50.334 -94 -131.001c-74 -95.333 -141.833 -160.833 -203.5 -196.5s-137.167 -53.5 -226.5 -53.5c-55.333 0 -115.333 4.66699 -180 14
c-49.333 -13.333 -94.333 -20 -135 -20c-34.667 0 -52 7.33301 -52 22c0 16.667 27.333 25 82 25c30.667 0 69 -4 115 -12c88 38.667 155 86.334 201 143.001c49.333 61.333 123 189.666 221 384.999l16 33h-389c-62.667 -116.667 -117 -203 -163 -259
s-107.667 -110.333 -185 -163c-170 -116 -334 -174 -492 -174c-92 0 -166.833 19.5 -224.5 58.5s-86.5 89.833 -86.5 152.5c0 32.667 9.83301 61 29.5 85s43.5 36 71.5 36c43.333 0 65 -22 65 -66c0 -21.333 -6.66699 -39.666 -20 -54.999s-30 -23 -50 -23
c-31.333 0 -47 15.667 -47 47c2 16.667 0 25 -6 25c-12 0 -18 -17.667 -18 -53c0 -54.667 25.667 -99.5 77 -134.5s117 -52.5 197 -52.5c140.667 0 263.834 41.833 369.501 125.5s225.5 233.834 359.5 450.501h-307l8 20h312c8 13.333 21.667 34.666 41 63.999
c140 226.667 271.667 385 395 475c26 19.333 60.667 40.166 104 62.499s70 33.5 80 33.5c4 -1.33301 6 -4 6 -8s-6.66699 -8.66699 -20 -14c-82 -33.333 -155.333 -90.666 -220 -171.999s-153.334 -228.333 -266.001 -441h390
c124.667 222.667 260.167 395.834 406.5 519.501s289.166 185.5 428.5 185.5c68.667 0 124.5 -18.5 167.5 -55.5s64.5 -84.833 64.5 -143.5zM1499 1051c0 -14 -19.666 -42.002 -58.999 -84.002c-58.667 -63.333 -114.667 -95 -168 -95c-38 0 -69.667 13.5 -95 40.5
s-38 60.167 -38 99.5c0 36.667 13.667 82.334 41 137.001c34 68 51 115 51 141c0 34 -16 61.333 -48 82s-74 31 -126 31c-148.667 0 -288.334 -59.833 -419.001 -179.5s-196 -247.5 -196 -383.5c0 -70 21.333 -127.167 64 -171.5s98 -66.5 166 -66.5
c131.333 0 242 60.667 332 182c1.33301 4 3.33301 6.33301 6 7c5.33301 0 8 -3 8 -9c0 -14 -21.333 -39.667 -64 -77c-88 -79.333 -183.333 -119 -286 -119c-72 0 -130.667 23.333 -176 70s-68 107.334 -68 182.001c0 144 66.833 276.833 200.5 398.5
s279.834 182.5 438.501 182.5c139.333 0 209 -61.333 209 -184c0 -42 -14.333 -92.333 -43 -151s-43 -97.667 -43 -117c0 -50.667 27.333 -76 82 -76c33.333 0 71.333 15.667 114 47s75.667 68.333 99 111c3.33301 6.66699 6.66602 10 9.99902 10c5.33301 0 8 -2.66699 8 -8
z" />
    <glyph glyph-name="backslash" unicode="I" horiz-adv-x="1307" 
d="M2083 1323c0 -11.333 -27.5029 -29.166 -82.5029 -53.499s-117.833 -46.166 -188.5 -65.499c-166 -118.667 -330.333 -330.334 -493 -635.001l-16 -30c8 -1.33301 17.333 -2 28 -2c81.333 0 156.333 25 225 75s110.334 110.333 125.001 181
c2.66699 10.667 6.33398 16 11.001 16c4 0 6 -2.66699 6 -8c0 -40.667 -22 -87 -66 -139c-78.667 -94.667 -180.334 -142 -305.001 -142c-12 0 -23.667 0.666992 -35 2l-28 -55c-48.667 -93.333 -91.667 -162.666 -129 -207.999c-34.667 -42.667 -82 -85.334 -142 -128.001
c-167.333 -118.667 -338.666 -178 -513.999 -178c-98 0 -178.833 20.667 -242.5 62s-95.5 94.333 -95.5 159c0 34.667 9.83301 64.167 29.5 88.5s43.5 36.5 71.5 36.5c43.333 0 65 -22.667 65 -68c0 -22 -7.16699 -40.667 -21.5 -56s-31.833 -23 -52.5 -23
c-31.333 0 -47 15 -47 45v20c0 6 -2 9.33301 -6 10c-12 0 -18 -17 -18 -51c0 -57.333 28 -105.5 84 -144.5s125.667 -58.5 209 -58.5c200.667 0 381.334 100.333 542.001 301c47.333 59.333 111 151 191 275c-113.333 49.333 -170 129 -170 239
c0 133.333 75 232.333 225 297c76 33.333 195.667 63.666 359 90.999l110 18l94 20c36 26.667 82.833 53.167 140.5 79.5s97.5 39.5 119.5 39.5c11.333 0 17 -3.33301 17 -10zM1782 1196c-15.333 -3.33301 -38 -8.66699 -68 -16c-24.667 -6.66699 -60.667 -15.667 -108 -27
c-162.667 -38.667 -292.167 -95.5 -388.5 -170.5s-144.5 -156.167 -144.5 -243.5c0 -84 41 -143.333 123 -178c176.667 282 372 493.667 586 635z" />
    <glyph glyph-name="bracketright" unicode="J" horiz-adv-x="1153" 
d="M1923 1386c0 -10 -26.6699 -27.3311 -80.0029 -51.998c-55.333 -24.667 -116 -46 -182 -64c-114.667 -95.333 -211.5 -199.333 -290.5 -312s-166.5 -272.334 -262.5 -479.001h25c112.667 0 207.334 41.667 284.001 125c38 41.333 64.667 96 80 164
c2.66699 10.667 6.66699 16 12 16c6 0 9 -3.33301 9 -10c0 -74.667 -40.833 -145.167 -122.5 -211.5s-168.5 -99.5 -260.5 -99.5c-14 0 -25.667 0.666992 -35 2c-4 -8.66699 -24 -49.667 -60 -123c-83.333 -170 -153.5 -291.667 -210.5 -365
s-130.833 -138.666 -221.5 -195.999c-144.667 -91.333 -292.667 -137 -444 -137c-87.333 0 -159 19.667 -215 59s-84 89.333 -84 150c0 33.333 9.5 61.666 28.5 84.999s42.167 35 69.5 35c44 0 66 -22.333 66 -67c0 -53.333 -24 -80 -72 -80c-34.667 0 -53 21.667 -55 65
c0 2.66699 -0.666992 5 -2 7c-11.333 0 -17 -16 -17 -48c0 -52.667 26.5 -96.834 79.5 -132.501s119.5 -53.5 199.5 -53.5c170.667 0 318 69.667 442 209c48.667 54.667 95.334 120.334 140.001 197.001l219 387l16 28c-67.333 20.667 -121 57.167 -161 109.5
s-60 112.166 -60 179.499c0 120 49.667 220.333 149 301c58.667 47.333 117.834 80.333 177.501 99s167.167 37.667 322.5 57c68 8 149.333 23.667 244 47c124 79.333 210 119 258 119c9.33301 0 14 -3.66699 14 -11zM1632 1262
c-45.333 -11.333 -106.668 -25.668 -184.001 -43.001c-125.333 -28 -220.666 -55.667 -285.999 -83s-125 -64 -179 -110c-114.667 -98 -172 -201 -172 -309c0 -105.333 58.667 -177.666 176 -216.999c200 362 415 616 645 762z" />
    <glyph glyph-name="asciicircum" unicode="K" horiz-adv-x="1804" 
d="M2816 1108c0 -118 -76.335 -213.666 -229.002 -286.999c-43.333 -20 -71.333 -30 -84 -30c-6 0 -9 2 -9 6c0 5.33301 3 8.66602 9 9.99902c80.667 22.667 147.834 62.5 201.501 119.5s80.5 116.833 80.5 179.5c0 53.333 -18.833 96.666 -56.5 129.999
s-87.167 50 -148.5 50c-78.667 0 -154.667 -22.5 -228 -67.5s-162.333 -124.167 -267 -237.5c-182 -197.333 -354.667 -303.666 -518 -318.999c61.333 -35.333 92 -97 92 -185c0 -40.667 -16.333 -124 -49 -250c-15.333 -57.333 -23 -99 -23 -125
c0 -48 14.833 -87.167 44.5 -117.5s68.167 -45.5 115.5 -45.5c41.333 0 78.333 12.667 111 38c8 7.33301 13.333 11 16 11c4 0 6 -2 6 -6c0 -12.667 -16.333 -26.167 -49 -40.5s-62.667 -21.5 -90 -21.5c-65.333 0 -121.666 27.833 -168.999 83.5s-71 121.5 -71 197.5
c0 49.333 19.333 129 58 239c18.667 55.333 28 98.333 28 129c0 37.333 -13 68.333 -39 93c-24.667 -3.33301 -45 -5 -61 -5c-49.333 0 -74 6.33301 -74 19c0 9.33301 13.667 14 41 14s57.333 -6 90 -18c68 12 130 37.333 186 76c54 37.333 133.333 109 238 215
c122 122.667 231 210.667 327 264s192.667 80 290 80c66.667 0 121.834 -18.833 165.5 -56.5c43.667 -37.667 65.5 -85.167 65.5 -142.5zM1501 1051c0 -14.667 -19.666 -42.6689 -58.999 -84.002c-60 -63.333 -116.667 -95 -170 -95c-38 0 -69.667 13.5 -95 40.5
s-38 60.167 -38 99.5c0 34.667 14.333 80.334 43 137.001c34 67.333 51 114.333 51 141c0 34 -16.333 61.333 -49 82s-75 31 -127 31c-148 0 -287.5 -59.833 -418.5 -179.5s-196.5 -247.5 -196.5 -383.5c0 -70 21.333 -127.167 64 -171.5s98 -66.5 166 -66.5
c60.667 0 122.167 17.167 184.5 51.5s112.166 78.5 149.499 132.5c2.66699 3.33301 4.66699 5 6 5c5.33301 0 8 -3 8 -9c0 -13.333 -21.333 -39 -64 -77c-88 -79.333 -183.333 -119 -286 -119c-72.667 0 -131.834 23.333 -177.501 70s-68.5 107.334 -68.5 182.001
c0 144 67 276.833 201 398.5s280.667 182.5 440 182.5c139.333 0 209 -61.333 209 -184c0 -42.667 -22 -107.667 -66 -195c-14.667 -30 -22 -54.333 -22 -73c0 -50.667 27.333 -76 82 -76c40 0 82 18.333 126 55c36 30 66.333 65.667 91 107c2.66699 4 5.33398 6 8.00098 6
c5.33301 0 8 -2.66699 8 -8zM1847 1196c0 -4 -6.66602 -8.66602 -19.999 -13.999c-86 -36 -161.167 -95.833 -225.5 -179.5s-159.166 -243.834 -284.499 -480.501c-58.667 -110.667 -115.834 -196.334 -171.501 -257.001s-129.5 -119 -221.5 -175
c-153.333 -92.667 -297.333 -139 -432 -139c-93.333 0 -169 19.333 -227 58s-87 89 -87 151c0 34.667 10 63.834 30 87.501s45 35.5 75 35.5c43.333 0 65 -22 65 -66c0 -21.333 -7 -39.666 -21 -54.999s-31 -23 -51 -23c-32.667 0 -49 18 -49 54c0 13.333 -2.66699 20 -8 20
c-10.667 0 -16 -18.333 -16 -55c0 -55.333 26 -100.333 78 -135s120 -52 204 -52c145.333 0 278.666 53.333 399.999 160c61.333 54 111.833 107.5 151.5 160.5s114.167 166.833 223.5 341.5c140.667 225.333 273 383.666 397 474.999c24 18 58 38.5 102 61.5
s70.667 34.5 80 34.5c5.33301 0 8 -2.66699 8 -8z" />
    <glyph glyph-name="underscore" unicode="L" horiz-adv-x="1554" 
d="M2124 1264c0 -47.333 -58.1631 -138.33 -174.496 -272.997s-229.5 -242.334 -339.5 -323.001c-83.333 -182.667 -169.333 -316 -258 -400s-208.334 -145.333 -359.001 -184c265.333 -70.667 424.166 -111.834 476.499 -123.501s102.5 -17.5 150.5 -17.5
c69.333 0 132 25 188 75c6 3.33301 9.66699 5 11 5c3.33301 -1.33301 5.33301 -3 6 -5c0 -10.667 -17.667 -28.334 -53 -53.001c-65.333 -44.667 -160.333 -67 -285 -67c-91.333 0 -179.333 8.66699 -264 26s-213.667 53.666 -387 108.999c-111.333 -22 -226 -33 -344 -33
c-209.333 0 -314 32 -314 96c0 60 80 90 240 90c124 0 309 -32 555 -96c73.333 28.667 138.5 71.167 195.5 127.5s128.833 149.833 215.5 280.5c-198.667 -173.333 -384.334 -260 -557.001 -260c-117.333 0 -210.833 34.667 -280.5 104s-104.5 163 -104.5 281
c0 180.667 85.5 352 256.5 514s351.833 243 542.5 243c88 0 158.167 -22.667 210.5 -68s78.5 -106.666 78.5 -183.999c0 -136.667 -64 -278 -192 -424s-251.667 -219 -371 -219c-50.667 0 -93.5 16 -128.5 48s-52.5 71.333 -52.5 118c0 36 11.167 67.167 33.5 93.5
s48.833 39.5 79.5 39.5c41.333 0 62 -20.333 62 -61c0 -22 -8 -41.5 -24 -58.5s-34 -25.5 -54 -25.5c-32.667 0 -48.334 15 -47.001 45c0.666992 19.333 -1.66602 29 -6.99902 29c-14.667 0 -22 -20.667 -22 -62c0 -42 15.833 -77 47.5 -105s71.167 -42 118.5 -42
c110 0 227.167 71.833 351.5 215.5s186.5 279.167 186.5 406.5c0 68.667 -23.5 125.167 -70.5 169.5s-107.167 66.5 -180.5 66.5c-176.667 0 -345.834 -88.333 -507.501 -265s-242.5 -360.667 -242.5 -552c0 -90 28.833 -160.667 86.5 -212s136.834 -77 237.501 -77
c86.667 0 172.834 21.333 258.501 64s191.167 117 316.5 223c104.667 175.333 180.667 297 228 365c45.333 65.333 99.666 131.333 162.999 198c123.333 129.333 217.666 194 282.999 194c27.333 0 41 -12 41 -36zM2107 1264c0 14.667 -8 21.999 -24 21.999
c-49.333 0 -117 -50.333 -203 -151c-76.667 -90 -162 -235.667 -256 -437c114 92.667 223 199.834 327 321.501s156 203.167 156 244.5zM803.004 43.002c-234 74 -393 111 -477 111c-87.333 0 -131 -19.333 -131 -58c0 -52 102.333 -78 307 -78
c110.667 0 211 8.33301 301 25z" />
    <glyph glyph-name="grave" unicode="M" horiz-adv-x="2003" 
d="M2599 1270c0 -3.33301 -9 -9.66602 -27 -18.999c-78 -41.333 -146.667 -101 -206 -179s-127 -197.667 -203 -359c-110.667 -234.667 -209.5 -403.334 -296.5 -506.001s-194.5 -176.334 -322.5 -221.001c59.333 -8.66699 105 -13 137 -13
c102.667 0 184.834 21.833 246.501 65.5s148.834 141.5 261.501 293.5c7.33301 9.33301 13 14 17 14c2.66699 -0.666992 4 -2.66699 4 -6c0 -6.66699 -31.333 -49.667 -94 -129c-76.667 -97.333 -145.167 -163.666 -205.5 -198.999s-134.5 -53 -222.5 -53
c-54.667 0 -113.667 6 -177 18c-44.667 -14.667 -90.334 -22 -137.001 -22c-35.333 0 -53 6.66699 -53 20c0 16.667 24.667 25 74 25c27.333 0 63.333 -3.33301 108 -10h13c70.667 25.333 130.5 65.5 179.5 120.5s107.833 147.833 176.5 278.5
c139.333 264.667 249.666 452 330.999 562c78.667 105.333 173 195.333 283 270c55.333 36.667 91 55 107 55c4 0 6 -2 6 -6zM3080 999c0 -26 -2.8291 -51.1699 -8.49609 -75.5029s-11.5 -36.5 -17.5 -36.5c-4.66699 0 -7 2 -7 6l2 8c10 23.333 15 54.666 15 93.999
c0 88.667 -35.333 163.834 -106 225.501s-157 92.5 -259 92.5c-164.667 0 -333.334 -80.667 -506.001 -242c-68 -63.333 -126.667 -125 -176 -185c-47.333 -56.667 -140 -176.667 -278 -360c-204 -270 -371.333 -438.667 -502 -506c-58.667 -30 -96.334 -45 -113.001 -45
c-4 0 -6 2.33301 -6 7c0.666992 0.666992 7.66699 6 21 16c65.333 48.667 117.333 114 156 196c36 75.333 100.667 253.666 194 534.999c79.333 240 170 412 272 516c4 4 6 7.33301 6 10c-8.66699 2.66699 -28.334 -11.666 -59.001 -42.999
c-99.333 -98.667 -216 -276 -350 -532c-82.667 -157.333 -155.167 -276.5 -217.5 -357.5s-136.5 -152.167 -222.5 -213.5c-141.333 -101.333 -283.333 -152 -426 -152c-92.667 0 -168.167 19.5 -226.5 58.5s-87.5 89.167 -87.5 150.5c0 34.667 10 63.834 30 87.501
s45 35.5 75 35.5c43.333 0 65 -21.333 65 -64c0 -22 -7 -40.833 -21 -56.5s-31 -23.5 -51 -23.5c-32.667 0 -49 18 -49 54c0 13.333 -2.66699 20 -8 20c-10.667 0 -16 -18.333 -16 -55c0 -54.667 27.167 -99.5 81.5 -134.5s124.166 -52.5 209.499 -52.5
c174 0 344.667 90.333 512 271c67.333 72.667 124.333 143.5 171 212.5s139.667 219.167 279 450.5c58.667 98 124.834 187 198.501 267s126.167 120 157.5 120c4.66699 0 7 -2 7 -6c-0.666992 -2.66699 -2 -5.33398 -4 -8.00098c-62 -68 -118 -196.333 -168 -385
c-74.667 -276.667 -145 -478 -211 -604c-65.333 -122.667 -149.333 -215.667 -252 -279c-2.66699 -0.666992 -4 -2 -4 -4c0.666992 -0.666992 2 -1.33398 4 -2.00098c15.333 0 52.666 21.333 111.999 64c72 50.667 138.333 111.334 199 182.001s170.667 215.334 330 434.001
c112.667 154.667 202.167 267.834 268.5 339.501s139.833 134.834 220.5 189.501c126 84.667 253 127 381 127c112 0 204.167 -32.667 276.5 -98s108.5 -148.333 108.5 -249zM1495 1055c0 -14.667 -19 -43.333 -57 -86c-57.333 -64.667 -112.666 -97 -165.999 -97
c-36.667 0 -67.667 13.5 -93 40.5s-38 60.167 -38 99.5c0 38 13.667 83.667 41 137c34 66.667 51 113.667 51 141c0 34 -16 61.333 -48 82s-74 31 -126 31c-148.667 0 -288.334 -60 -419.001 -180s-196 -247.667 -196 -383c0 -70 21.5 -127.167 64.5 -171.5
s98.167 -66.5 165.5 -66.5c60 0 120.833 17.167 182.5 51.5s111.5 78.5 149.5 132.5c2.66699 3.33301 4.66699 5 6 5c5.33301 0 8 -3 8 -9c0 -13.333 -21.333 -39 -64 -77c-88 -79.333 -183.333 -119 -286 -119c-72 0 -130.667 23.333 -176 70s-68 107.334 -68 182.001
c0 144.667 66.833 277.667 200.5 399s279.834 182 438.501 182c65.333 0 116.5 -16.333 153.5 -49s55.5 -77.667 55.5 -135c0 -42.667 -21.333 -107.667 -64 -195c-14.667 -30.667 -22 -55 -22 -73c0 -50.667 27.333 -76 82 -76c32.667 0 69.167 15.667 109.5 47
s72.833 69.666 97.5 114.999c3.33301 6.66699 6.66602 10 9.99902 10c5.33301 0 8 -2.66699 8 -8z" />
    <glyph glyph-name="a" unicode="N" horiz-adv-x="1784" 
d="M3097 985c0 -56 -6.33301 -84.0029 -19 -84.0029c-5.33301 0 -8 2 -8 6c0 7.33301 1.33301 19 4 35s4 28.333 4 37c0 92 -32.667 167.5 -98 226.5s-148.666 88.5 -250 88.5c-200.667 0 -402.667 -130.333 -606 -391c-64 -81.333 -188.333 -277.333 -373 -588
c-53.333 -90 -108.166 -170.167 -164.499 -240.5s-93.5 -105.5 -111.5 -105.5c-10 0 -15 5 -15 15c0 12.667 15 26.334 45 41.001c58.667 27.333 88 95.333 88 204c0 20.667 -1.33301 55 -4 103c-6.66699 118.667 -10 221 -10 307c0 143.333 13.833 261.166 41.5 353.499
s73.834 173.833 138.501 244.5c1.33301 2 2.66602 4.66699 3.99902 8c-20.667 2.66699 -66.334 -39.666 -137.001 -126.999c-37.333 -46 -70.833 -93.667 -100.5 -143s-106.834 -186.666 -231.501 -411.999c-106.667 -192.667 -231 -341.5 -373 -446.5
s-290 -157.5 -444 -157.5c-86.667 0 -158.167 19.333 -214.5 58s-84.5 88.334 -84.5 149.001c0 34.667 10 63.834 30 87.501s45 35.5 75 35.5c43.333 0 65 -21.333 65 -64c0 -22 -7 -40.833 -21 -56.5s-31 -23.5 -51 -23.5c-32.667 0 -49 18 -49 54
c0 13.333 -2.66699 20 -8 20c-10.667 0 -16 -18.333 -16 -55c0 -54.667 26.167 -99.5 78.5 -134.5s118.833 -52.5 199.5 -52.5c154.667 0 298.167 58.333 430.5 175s283.833 318.667 454.5 606c139.333 234 250.666 387.667 333.999 461c57.333 50 94 75 110 75
c2.66699 -0.666992 4.33398 -2 5.00098 -4c0 -1.33301 -4.33301 -7.33301 -13 -18c-42 -56.667 -68.5 -116.834 -79.5 -180.501s-18.5 -199.5 -22.5 -407.5c-5.33301 -254 -36.666 -435.667 -93.999 -545c-1.33301 0 -2 -1.33301 -2 -4l2 -2c12 0 113 167.333 303 502
c138.667 244.667 272.5 421.5 401.5 530.5s268.167 163.5 417.5 163.5c106.667 0 194.834 -32.5 264.5 -97.5c69.667 -65 104.5 -147.167 104.5 -246.5zM1495 1055c0 -14.667 -19 -43.333 -57 -86c-57.333 -64.667 -112.666 -97 -165.999 -97
c-36.667 0 -67.667 13.5 -93 40.5s-38 60.167 -38 99.5c0 38 13.667 83.667 41 137c34 66.667 51 113.667 51 141c0 34 -16 61.333 -48 82s-74 31 -126 31c-148.667 0 -288.334 -60 -419.001 -180s-196 -247.667 -196 -383c0 -70 21.5 -127.167 64.5 -171.5
s98.167 -66.5 165.5 -66.5c60 0 120.833 17.167 182.5 51.5s111.5 78.5 149.5 132.5c2.66699 3.33301 4.66699 5 6 5c5.33301 0 8 -3 8 -9c0 -13.333 -21.333 -39 -64 -77c-88 -79.333 -183.333 -119 -286 -119c-72 0 -130.667 23.333 -176 70s-68 107.334 -68 182.001
c0 144.667 66.833 277.667 200.5 399s279.834 182 438.501 182c65.333 0 116.5 -16.333 153.5 -49s55.5 -77.667 55.5 -135c0 -42.667 -21.333 -107.667 -64 -195c-14.667 -30.667 -22 -55 -22 -73c0 -50.667 27.333 -76 82 -76c32.667 0 69.167 15.667 109.5 47
s72.833 69.666 97.5 114.999c3.33301 6.66699 6.66602 10 9.99902 10c5.33301 0 8 -2.66699 8 -8z" />
    <glyph glyph-name="b" unicode="O" horiz-adv-x="1624" 
d="M1858 799c0 -102 -28.668 -205.832 -86.001 -311.499s-136.666 -201.167 -237.999 -286.5c-97.333 -82.667 -201.833 -148.167 -313.5 -196.5s-214.167 -72.5 -307.5 -72.5c-122.667 0 -222.167 41.667 -298.5 125s-114.5 192 -114.5 326c0 122.667 38 247.667 114 375
s178.667 237 308 329c92 66.667 195.5 120.667 310.5 162s218.833 62 311.5 62c92 0 165.5 -22.333 220.5 -67s82.5 -104.334 82.5 -179.001c0 -30.667 -5.33301 -67 -16 -109c18 -52.667 27 -105 27 -157zM1831 1063c0 67.333 -23.6709 121.664 -71.0039 162.997
s-109.666 62 -186.999 62c-153.333 0 -308.333 -51 -465 -153c-150 -98 -273 -223.667 -369 -377c-100.667 -158.667 -151 -315.667 -151 -471c0 -98.667 29.167 -179 87.5 -241s133.5 -93 225.5 -93c186.667 0 374.334 96 563.001 288s293.334 393 314.001 603
c-22.667 -40 -63.167 -87.167 -121.5 -141.5s-97.833 -81.5 -118.5 -81.5c-5.33301 0 -8 2.66699 -8 8c0 3.33301 5.33301 8 16 14c108 60 186 139.333 234 238c0 83.333 -24.333 149.5 -73 198.5s-114.667 73.5 -198 73.5c-154.667 0 -313.5 -82.5 -476.5 -247.5
s-244.5 -326.167 -244.5 -483.5c0 -62.667 14.667 -113.5 44 -152.5s68 -58.5 116 -58.5c22.667 0 45.834 6.66699 69.501 20s35.5 26.333 35.5 39c-0.666992 4 -2 6 -4 6l-9 -4c-8 -8 -21 -12 -39 -12c-31.333 0 -47 18.333 -47 55c0 22.667 7.66699 41.667 23 57
s33.666 23 54.999 23c42.667 0 64 -23.667 64 -71c0 -35.333 -15.167 -66 -45.5 -92s-65.833 -39 -106.5 -39c-57.333 0 -105.166 23.5 -143.499 70.5s-57.5 105.833 -57.5 176.5c0 162.667 84.833 324.834 254.5 486.501s339.5 242.5 509.5 242.5
c72.667 0 137.667 -17.167 195 -51.5s96.333 -79.166 117 -134.499c8 26.667 12 53.334 12 80.001z" />
    <glyph glyph-name="c" unicode="P" horiz-adv-x="1575" 
d="M2488 1040c0 -34.667 -4.66602 -72.666 -13.999 -113.999s-18.333 -62 -27 -62c-6.66699 0 -10 3.33301 -10 10c0 2 0.666992 5 2 9c18 46.667 27 97 27 151c0 84 -25 151.5 -75 202.5s-116 76.5 -198 76.5c-110.667 0 -224.667 -36.333 -342 -109
c100 -80 150 -170.667 150 -272c0 -85.333 -34.333 -159.666 -103 -222.999s-149 -95 -241 -95c-36 0 -74.667 7.16699 -116 21.5s-62 27.833 -62 40.5c1.33301 4 4 6 8 6c3.33301 0 8.66602 -2 15.999 -6c41.333 -23.333 83 -35 125 -35c76 0 141.167 32.667 195.5 98
s81.5 143.333 81.5 234c0 78 -28 147.667 -84 209c-144.667 -108 -282 -298 -412 -570c-78.667 -164.667 -150.667 -283.334 -216 -356.001s-157 -138.334 -275 -197.001c-139.333 -68 -263.666 -102 -372.999 -102c-89.333 0 -163.666 20.5 -222.999 61.5
s-89 92.167 -89 153.5c0 34 10.167 63.333 30.5 88s44.5 37 72.5 37c40.667 0 61 -22.667 61 -68c0 -22.667 -6.83301 -42 -20.5 -58s-30.5 -24 -50.5 -24c-34.667 0 -51.334 18 -50.001 54c0.666992 14.667 -0.666016 22 -3.99902 22c-10.667 0 -16 -17.667 -16 -53
c0 -55.333 27.167 -101.333 81.5 -138s122.833 -55 205.5 -55c146 0 278.333 54 397 162c52 47.333 96.333 95.666 133 144.999c40 53.333 127.333 182.666 262 387.999c67.333 101.333 146.666 203 237.999 305s169 175 233 219c-104 88.667 -256.667 133 -458 133
c-281.333 0 -526 -101.667 -734 -305c-170.667 -166.667 -256 -323.667 -256 -471c0 -74.667 24 -134 72 -178s113 -66 195 -66c134 0 272.5 64.333 415.5 193s214.5 253.667 214.5 375c0 96.667 -49.667 145 -149 145s-205.833 -55.5 -319.5 -166.5
s-170.5 -215.167 -170.5 -312.5c0 -24 8 -44.667 24 -62s34.667 -26 56 -26c11.333 0 17 -3 17 -9c0 -5.33301 -6.33301 -8 -19 -8c-32 0 -59 14.5 -81 43.5s-33 64.5 -33 106.5c0 104 57 205.333 171 304s231 148 351 148c114.667 0 172 -53 172 -159
c0 -129.333 -73 -260 -219 -392s-290 -198 -432 -198c-92.667 0 -166.834 27.833 -222.501 83.5s-83.5 130.167 -83.5 223.5c0 188.667 106.5 360.834 319.5 516.501s448.5 233.5 706.5 233.5c196 0 360.667 -43.667 494 -131c122 76 240 114 354 114
c89.333 0 161.166 -26.667 215.5 -80c54.333 -53.333 81.5 -123.666 81.5 -210.999z" />
    <glyph glyph-name="d" unicode="Q" horiz-adv-x="1438" 
d="M1710 922c0 -110 -31.166 -221.167 -93.499 -333.5s-147.833 -211.5 -256.5 -297.5c-126 -100 -283 -178 -471 -234c218 -65.333 358 -105.666 420 -120.999c58 -14.667 107.667 -22 149 -22c61.333 0 116.666 22.667 165.999 68c2 1.33301 4.66699 2.66602 8 3.99902
c4 -2 6 -5 6 -9c0 -10 -16.333 -25.667 -49 -47c-58 -36.667 -140.667 -55 -248 -55c-100.667 0 -183 6.33301 -247 19c-86.667 18 -200 56 -340 114l-25 10c-88 -20 -183.667 -30 -287 -30c-190.667 0 -286 30.667 -286 92c0 52 73.667 78 221 78
c127.333 0 289.666 -30.667 486.999 -92c214 68 392.833 191.667 536.5 371s215.5 367.333 215.5 564c0 102.667 -26.667 182.667 -80 240s-127.666 86 -222.999 86c-196 0 -387 -91.667 -573 -275s-279 -372.333 -279 -567c0 -82 23.667 -146.5 71 -193.5
s112.333 -70.5 195 -70.5c170.667 0 323 82 457 246c112 137.333 168 270.333 168 399c0 53.333 -13.833 97.5 -41.5 132.5s-63.167 52.5 -106.5 52.5c-21.333 0 -44.333 -6.5 -69 -19.5s-37 -25.167 -37 -36.5c0.666992 -2.66699 2.66699 -4 6 -4
c0.666992 0 6 2.66699 16 8c6.66699 4.66699 15.667 7 27 7c32.667 0 49 -18 49 -54c0 -21.333 -7.5 -40 -22.5 -56s-32.833 -24 -53.5 -24c-42 0 -63 22.667 -63 68c0 36 14.167 66.5 42.5 91.5s62.5 37.5 102.5 37.5c57.333 0 104.5 -24.333 141.5 -73
s55.5 -111 55.5 -187c0 -153.333 -69 -292.666 -207 -417.999s-291.667 -188 -461 -188c-106.667 0 -191 31.5 -253 94.5s-93 148.167 -93 255.5c0 224 115.333 419.333 346 586c193.333 139.333 388 209 584 209c117.333 0 212.5 -39.333 285.5 -118
s109.5 -181.334 109.5 -308.001zM700.001 29c-201.333 65.333 -337.667 98 -409 98c-78 0 -117 -15.667 -117 -47c0 -49.333 90 -74 270 -74c104.667 0 190 7.66699 256 23z" />
    <glyph glyph-name="e" unicode="R" horiz-adv-x="1894" 
d="M2488 1040c0 -34.667 -4.66699 -72.665 -14 -113.998s-18.333 -62 -27 -62c-6.66699 0 -10 3.33301 -10 10c0 2 0.666992 5 2 9c18 46.667 27 97 27 151c0 84 -25 151.5 -75 202.5s-116 76.5 -198 76.5c-112.667 0 -226.667 -36.333 -342 -109
c98.667 -78.667 148 -164 148 -256c0 -78 -31.167 -144.5 -93.5 -199.5s-144.5 -88.833 -246.5 -101.5c69.333 -40 104 -98 104 -174c0 -50.667 -17.667 -127.667 -53 -231c-23.333 -68 -35 -121.333 -35 -160c0 -40 14.333 -73.833 43 -101.5s63.667 -41.5 105 -41.5
c42.667 0 83 14.333 121 43c8.66699 5.33301 14.667 8 18 8c5.33301 0 8 -2.66699 8 -8c0 -11.333 -18.667 -24.5 -56 -39.5s-69.666 -22.5 -96.999 -22.5c-64 0 -117.667 25.5 -161 76.5s-65 114.167 -65 189.5c0 54.667 24 151 72 289c12 35.333 18 65.333 18 90
c0 31.333 -13 58 -39 80c-42.667 -4 -67 -6 -73 -6c-66 0 -99 8.33301 -99 25c0 10.667 16.667 16 50 16c39.333 0 78.666 -7.66699 117.999 -23c79.333 12.667 144.333 49.5 195 110.5s76 132.833 76 215.5c0 65.333 -25.333 128 -76 188l-10 13
c-146 -109.333 -284 -300 -414 -572c-78.667 -164.667 -150.667 -283.334 -216 -356.001s-157 -138.334 -275 -197.001c-139.333 -68 -263.666 -102 -372.999 -102c-89.333 0 -163.666 20.5 -222.999 61.5s-89 92.167 -89 153.5c0 34 10.167 63.333 30.5 88s44.5 37 72.5 37
c40.667 0 61 -22.667 61 -68c0 -22.667 -6.83301 -42 -20.5 -58s-30.5 -24 -50.5 -24c-34.667 0 -51.334 18 -50.001 54c0.666992 14.667 -0.666016 22 -3.99902 22c-10.667 0 -16 -17.667 -16 -53c0 -55.333 27.167 -101.333 81.5 -138s122.833 -55 205.5 -55
c146 0 278.333 54 397 162c52 47.333 96.333 95.666 133 144.999c40 53.333 127.333 182.666 262 387.999c67.333 101.333 146.666 203 237.999 305s169 175 233 219c-104 88.667 -256.667 133 -458 133c-281.333 0 -526 -101.667 -734 -305
c-170.667 -166.667 -256 -323.667 -256 -471c0 -74.667 24 -134 72 -178s113 -66 195 -66c134 0 272.5 64.333 415.5 193s214.5 253.667 214.5 375c0 96.667 -49.667 145 -149 145s-205.833 -55.5 -319.5 -166.5s-170.5 -215.167 -170.5 -312.5c0 -24 8 -44.667 24 -62
s34.667 -26 56 -26c11.333 0 17 -3 17 -9c0 -5.33301 -6.33301 -8 -19 -8c-32 0 -59 14.5 -81 43.5s-33 64.5 -33 106.5c0 104 57 205.333 171 304s231 148 351 148c114.667 0 172 -53 172 -159c0 -129.333 -73 -260 -219 -392s-290 -198 -432 -198
c-92.667 0 -166.834 27.833 -222.501 83.5s-83.5 130.167 -83.5 223.5c0 188.667 106.5 360.834 319.5 516.501s448.5 233.5 706.5 233.5c196 0 360.667 -43.667 494 -131c122 76 240 114 354 114c89.333 0 161.166 -26.667 215.5 -80
c54.333 -53.333 81.5 -123.666 81.5 -210.999z" />
    <glyph glyph-name="f" unicode="S" horiz-adv-x="1448" 
d="M2036 1307c0 -32 -32.1689 -78.166 -96.502 -138.499s-142.833 -118.166 -235.5 -173.499c-12 -38 -29.667 -107 -53 -207c-37.333 -156.667 -71.666 -267.834 -102.999 -333.501s-83 -132.5 -155 -200.5c-208 -196.667 -441 -295 -699 -295
c-74 0 -139.333 12.333 -196 37c-31.333 -61.333 -47 -114.666 -47 -159.999c0 -57.333 19 -110 57 -158c4 -4 6 -8.66699 6 -14s-3.33301 -8 -10 -8c-15.333 0 -31.833 20.667 -49.5 62s-26.5 80 -26.5 116c0 52 17 109.333 51 172c-139.333 72 -209 195.667 -209 371
c0 112.667 33.333 224.667 100 336s160.334 211.666 281.001 300.999c154 113.333 306.333 170 457 170c82 0 147.167 -23 195.5 -69s72.5 -108.333 72.5 -187c0 -42 -6 -85.667 -18 -131c98 65.333 184.667 120.666 260 165.999c48 104.667 108.333 194.667 181 270
s136 113 190 113c31.333 0 47 -13 47 -39zM2017 1305c0 16 -9.33301 24.001 -28 24.001c-44.667 0 -94.5 -30.833 -149.5 -92.5s-97.5 -133.834 -127.5 -216.501c88 54 160.833 108 218.5 162s86.5 95 86.5 123zM1323 752.002l-66.001 -45.001
c-251.333 -173.333 -432.666 -317.666 -543.999 -432.999c28 -14.667 58 -22 90 -22c93.333 0 191 49 293 147s177.667 215.667 227 353zM1606 936.001l-256 -167.999c-44 -141.333 -121.167 -265.333 -231.5 -372s-216.166 -160 -317.499 -160
c-30.667 0 -64.334 8 -101.001 24c-75.333 -78 -139.333 -160 -192 -246c54.667 -24.667 116.667 -37 186 -37c125.333 0 246.666 35.5 363.999 106.5s218 169.5 302 295.5c39.333 58.667 70.333 113.167 93 163.5s59.334 145.166 110.001 284.499
c12 34.667 26.333 71 43 109zM1358 932.002c0 70 -22.166 126.33 -66.499 168.997s-102.833 64 -175.5 64c-179.333 0 -352.833 -93.333 -520.5 -280s-251.5 -380 -251.5 -580c0 -131.333 48.333 -224.666 145 -279.999c45.333 74.667 110.333 156.334 195 245.001
c-44 38 -66 83.333 -66 136c0 40 12.667 74.167 38 102.5s56 42.5 92 42.5c44.667 0 67 -20.667 67 -62c0 -21.333 -8.33301 -39.833 -25 -55.5s-36.334 -23.5 -59.001 -23.5c-32.667 0 -49 15.667 -49 47c0 10 3.33301 20.667 10 32c2.66699 8.66699 4 13.667 4 15
c0 4 -2 6 -6 6c-11.333 0 -23 -12 -35 -36s-18 -47.667 -18 -71c0 -44 20.333 -83.333 61 -118c134 141.333 345.667 306.333 635 495c16.667 58.667 25 109.334 25 152.001z" />
    <glyph glyph-name="g" unicode="T" horiz-adv-x="1202" 
d="M2531 1227c0 -36 -36.0039 -66.499 -108.004 -91.499s-160 -37.5 -264 -37.5c-104.667 0 -234.667 14.333 -390 43c-82 -42.667 -157 -105.834 -225 -189.501s-141 -202.167 -219 -355.5s-135.167 -255.5 -171.5 -306.5s-86.166 -100.5 -149.499 -148.5
c-167.333 -124 -341 -186 -521 -186c-96 0 -174.5 20.333 -235.5 61s-91.5 93.334 -91.5 158.001c0 32.667 9.66699 60.667 29 84s42.333 35 69 35c43.333 0 65 -22.667 65 -68c0 -21.333 -6.66699 -39.666 -20 -54.999s-29.666 -23 -48.999 -23
c-31.333 0 -47 15.333 -47 46c0 16 -2.66699 24 -8 24c-11.333 0 -17 -16.333 -17 -49c0 -54 27.833 -99.667 83.5 -137s124.167 -56 205.5 -56c178.667 0 339 80.667 481 242c66.667 75.333 152.667 199.666 258 372.999c172 281.333 351.667 466.333 539 555
c-36 6 -90 17 -162 33c-169.333 36.667 -299 55 -389 55c-9.33301 0 -37.333 -1.33301 -84 -4c31.333 -58.667 47 -125.667 47 -201c0 -146.667 -55.667 -284.334 -167 -413.001s-230.333 -193 -357 -193c-52.667 0 -95.5 17.5 -128.5 52.5s-49.5 80.167 -49.5 135.5
c0 76 28.833 160.167 86.5 252.5s132.334 173 224.001 242s192.167 117.167 301.5 144.5c-52.667 71.333 -127.667 107 -225 107c-82 0 -164.833 -23.833 -248.5 -71.5s-157.167 -112.5 -220.5 -194.5c-9.33301 -12.667 -15.666 -19 -18.999 -19c-4 0 -6.66699 2 -8 6
c0 11.333 27.333 44.333 82 99c131.333 130.667 268.666 196 411.999 196c111.333 0 196 -39 254 -117c80.667 23.333 173.334 35 278.001 35c54 0 103.333 -3.33301 148 -10c47.333 -7.33301 163.333 -30 348 -68c154 67.333 302 101 444 101c146 0 219 -28.667 219 -86z
M2515 1225c0 19.333 -18.833 35.667 -56.5 49s-85.167 20 -142.5 20c-142.667 0 -281 -30 -415 -90c16.667 -2.66699 61 -10.667 133 -24c106.667 -20.667 201.334 -31 284 -31c54 0 100.333 7.5 139 22.5s58 32.833 58 53.5zM1118 1077
c0 53.333 -12.333 102.666 -37 147.999c-149.333 -24.667 -288.333 -101.667 -417 -231s-193 -256.666 -193 -381.999c0 -48 14.833 -88.333 44.5 -121s66.167 -49 109.5 -49c112.667 0 223 69.5 331 208.5s162 281.167 162 426.5z" />
    <glyph glyph-name="h" unicode="U" horiz-adv-x="1845" 
d="M2363 1237c-462.667 -634.667 -694.003 -1044.33 -694.003 -1229c0 -45.333 14.833 -82.5 44.5 -111.5s67.5 -43.5 113.5 -43.5c79.333 0 157 42.333 233 127c6.66699 6.66699 11.667 10 15 10c4 0 6 -2.66699 6 -8c0 -7.33301 -11.667 -21 -35 -41
c-78.667 -70 -151.667 -105 -219 -105c-63.333 0 -116 24.667 -158 74s-63 111.333 -63 186c0 128 65.667 296.333 197 505l-31 -42l-48 -65c-120.667 -168.667 -236.5 -300.667 -347.5 -396s-203.167 -143 -276.5 -143c-48 0 -86.667 17.333 -116 52s-44 80.667 -44 138
c0 60.667 16.167 120.834 48.5 180.501s104.833 163.5 217.5 311.5c118 154 193 261.167 225 321.5s48 124.5 48 192.5c0 63.333 -23.5 113.666 -70.5 150.999s-110.833 56 -191.5 56c-204 0 -400.167 -92.833 -588.5 -278.5s-282.5 -378.834 -282.5 -579.501
c0 -75.333 21.167 -135.833 63.5 -181.5s98.5 -68.5 168.5 -68.5c132.667 0 260.334 75.667 383.001 227c128 158.667 192 303.334 192 434.001c0 110.667 -47 166 -141 166c-23.333 0 -45.333 -5.33301 -66 -16s-31 -22.334 -31 -35.001c0 -5.33301 3 -8 9 -8
c4 0.666992 10 2.66699 18 6c3.33301 1.33301 8 2 14 2c34.667 0 52 -16.333 52 -49c0 -21.333 -8 -40 -24 -56s-34.667 -24 -56 -24c-41.333 0 -62 22 -62 66c0 36 14.833 67.167 44.5 93.5s64.834 39.5 105.501 39.5c47.333 0 85 -16.667 113 -50s42 -78.333 42 -135
c0 -130.667 -62.667 -276 -188 -436c-127.333 -162.667 -262.333 -244 -405 -244c-84 0 -151.5 28.833 -202.5 86.5s-76.5 134.167 -76.5 229.5c0 218.667 114.667 418 344 598c89.333 70 186 126 290 168s197.667 63 281 63c101.333 0 180 -27.167 236 -81.5
s84 -130.166 84 -227.499c0 -82.667 -20.333 -161.167 -61 -235.5s-142 -218.5 -304 -432.5c-70.667 -93.333 -117 -160.166 -139 -200.499s-33 -78.5 -33 -114.5c0 -32.667 10.167 -59.667 30.5 -81s45.833 -32 76.5 -32c100 0 238.333 100.667 415 302
s406.334 520.666 689.001 957.999c35.333 -2.66699 55 -4 59 -4c25.333 0 57.333 3.33301 96 10z" />
    <glyph glyph-name="i" unicode="V" horiz-adv-x="1534" 
d="M3084 1423c0 -16 -9.33301 -24.001 -28 -24.001h-17c-36.667 4 -66.667 6 -90 6c-172 0 -374.667 -75 -608 -225c-112 -72.667 -207 -146.334 -285 -221.001c-75.333 -73.333 -216.666 -227.666 -423.999 -462.999c-244.667 -278.667 -429 -463 -553 -553
c-65.333 -48 -101.333 -72 -108 -72c-4 0 -6 2 -6 6c0 0.666992 7.33301 11 22 31c118 152.667 219.167 333.667 303.5 543s126.5 384 126.5 524c0 225.333 -91.333 338 -274 338c-72 0 -155 -24.667 -249 -74s-179.667 -113.333 -257 -192
c-84 -86 -151.167 -181.833 -201.5 -287.5s-75.5 -204.5 -75.5 -296.5c0 -82.667 22.333 -148 67 -196s105 -72 181 -72c148 0 292 94.667 432 284c100 135.333 150 256.333 150 363c0 48 -11.833 86.167 -35.5 114.5s-55.5 42.5 -95.5 42.5
c-22.667 0 -45.167 -5.16699 -67.5 -15.5s-33.5 -20.833 -33.5 -31.5c0 -4 2.33301 -6 7 -6h8c18.667 2.66699 29 4 31 4c30 0 45 -16.333 45 -49c0 -20.667 -8 -38.5 -24 -53.5s-34.667 -22.5 -56 -22.5c-41.333 0 -62 21.333 -62 64c0 34.667 15 64.834 45 90.501
s65.667 38.5 107 38.5c44.667 0 80.667 -15.833 108 -47.5s41 -73.167 41 -124.5c0 -130.667 -64.667 -274 -194 -430c-132 -158.667 -268 -238 -408 -238c-88 0 -159.833 30.667 -215.5 92s-83.5 140.666 -83.5 237.999c0 185.333 93 368.5 279 549.5
s373.667 271.5 563 271.5c112.667 0 204 -39.167 274 -117.5s105 -181.166 105 -308.499c0 -136 -38.333 -279 -115 -429s-200.334 -324.333 -371.001 -523c-6.66699 -8 -10 -12.667 -10 -14l2 -3c11.333 0 53 31 125 93c55.333 46.667 112.666 102.334 171.999 167.001
l422 476c134.667 153.333 253.334 274.166 356.001 362.499s217.667 168.833 345 241.5c207.333 118.667 390 178 548 178c54.667 0 82 -9.66699 82 -29z" />
    <glyph glyph-name="j" unicode="W" horiz-adv-x="1892" 
d="M3465 1516c0 -16.667 -10.333 -25.001 -31 -25.001h-14c-20.667 2.66699 -46.667 4 -78 4c-153.333 0 -338.333 -69 -555 -207c-123.333 -78.667 -226.666 -159.334 -310 -242.001c-86 -84.667 -231 -251 -435 -499c-246.667 -299.333 -439.334 -500 -578.001 -602
c-46 -34 -72.667 -51 -80 -51c-3.33301 0 -5.33301 1.33301 -6 4c0 0.666992 9.66699 10.667 29 30c84.667 86 172 253.333 262 502c80.667 222 144.5 384 191.5 486s97.167 187 150.5 255c12.667 16 19 25 19 27c-4.66699 1.33301 -9.66699 -1.33398 -15 -8.00098l-10 -10
l-25 -31l-305 -397c-252.667 -342 -474.334 -588 -665.001 -738c-102.667 -80 -162.334 -120 -179.001 -120c-3.33301 1.33301 -5.33301 3.33301 -6 6c0 2 4.33301 6.66699 13 14c130.667 119.333 255.834 298.5 375.501 537.5s179.5 429.833 179.5 572.5
c0 97.333 -23.667 174.5 -71 231.5s-112 85.5 -194 85.5c-172.667 0 -344.167 -96.333 -514.5 -289s-255.5 -387 -255.5 -583c0 -81.333 22.167 -147 66.5 -197s102.166 -75 173.499 -75c150.667 0 293.334 103 428.001 309c87.333 134 131 253.333 131 358
c0 49.333 -12.167 89 -36.5 119s-56.5 45 -96.5 45c-24 0 -47.333 -5.83301 -70 -17.5s-34 -23.5 -34 -35.5c0 -4 2 -6 6 -6c2 0 5.33301 0.666992 10 2c16.667 2.66699 27.667 4 33 4c30 0 45 -17 45 -51c0 -20.667 -8 -38.5 -24 -53.5s-34.667 -22.5 -56 -22.5
c-41.333 0 -62 22.333 -62 67c0 35.333 15.333 66.166 46 92.499s66 39.5 106 39.5c46 0 82.833 -16.667 110.5 -50s41.5 -77.666 41.5 -132.999c0 -125.333 -57.333 -266.666 -172 -423.999c-127.333 -173.333 -263.333 -260 -408 -260c-84 0 -153.167 32.167 -207.5 96.5
s-81.5 145.5 -81.5 243.5c0 92 24.5 188 73.5 288s116.167 191 201.5 273c191.333 186 375 279 551 279c103.333 0 190.166 -40.667 260.499 -122s105.5 -181.333 105.5 -300c0 -127.333 -52.667 -281.833 -158 -463.5s-233 -337.834 -383 -468.501
c-14.667 -13.333 -22 -20.666 -22 -21.999c0.666992 -2.66699 2 -4 4 -4c20.667 0 87 58 199 174c158.667 164.667 373 424.667 643 780c77.333 102 153.333 193.333 228 274s120.667 121 138 121c4 0 6 -2 6 -6c0 -2 -2 -5.33301 -6 -10c-42 -56 -76 -113 -102 -171
c-29.333 -66 -73.666 -190 -132.999 -372c-65.333 -198.667 -124.666 -350 -177.999 -454c-56 -107.333 -126.333 -204.333 -211 -291c-1.33301 -2.66699 -2.66602 -5 -3.99902 -7c0.666992 -2 2 -3.33301 4 -4c11.333 0 59 43.667 143 131
c58.667 60.667 222.667 254 492 580c139.333 168.667 264 301.834 374 399.501s233.667 184.834 371 261.501c187.333 105.333 350.666 158 490 158c47.333 0 71 -9.33301 71 -28z" />
    <glyph glyph-name="k" unicode="X" horiz-adv-x="2056" 
d="M2658 1180c0 -22.667 -6.33203 -47.1689 -18.999 -73.502s-24.667 -39.5 -36 -39.5c-6.66699 0 -10 3.33301 -10 10c0 2.66699 5.33301 9.66699 16 21c20.667 20 31 46.667 31 80c0 39.333 -15.667 72 -47 98s-71 39 -119 39c-150 0 -344.667 -99.667 -584 -299
c-98 -82 -202.333 -178.333 -313 -289l-14 -14l-9 -19l-10 -28c-92.667 -260 -139 -420.667 -139 -482c0 -138 63.333 -207 190 -207c117.333 0 243.333 69.333 378 208s202 262 202 370c0 49.333 -15.167 88.666 -45.5 117.999s-70.5 44 -120.5 44
c-55.333 0 -117.166 -20.333 -185.499 -61s-129.5 -92.667 -183.5 -156c-10 -12.667 -17.333 -19 -22 -19c-3.33301 1.33301 -5.33301 3.33301 -6 6c0 8 16.333 28 49 60c128.667 125.333 246.667 188 354 188c53.333 0 98.5 -19.333 135.5 -58s55.5 -86 55.5 -142
c0 -127.333 -69.667 -255.166 -209 -383.499s-278 -192.5 -416 -192.5c-78 0 -142.833 27.167 -194.5 81.5s-77.5 122.166 -77.5 203.499c0 92.667 28 200.334 84 323.001c-14 -12.667 -41.333 -40 -82 -82c-175.333 -188.667 -329 -325.5 -461 -410.5
s-257 -127.5 -375 -127.5c-80.667 0 -147.167 19.167 -199.5 57.5s-78.5 87.5 -78.5 147.5c0 33.333 9 61.333 27 84s40.333 34 67 34c44.667 0 67 -21.667 67 -65c0 -20.667 -6.66699 -38.834 -20 -54.501s-29 -23.5 -47 -23.5c-28.667 0 -44.334 15.667 -47.001 47
c-1.33301 15.333 -5 23 -11 23c-9.33301 0 -14 -14.333 -14 -43c0 -53.333 22.5 -97.5 67.5 -132.5s102.5 -52.5 172.5 -52.5c200.667 0 484.667 181 852 543c17.333 18 49.333 49.333 96 94l103 251c39.333 106 59 193.667 59 263c0 67.333 -19.667 120.333 -59 159
s-92.666 58 -159.999 58c-162.667 0 -334.667 -73 -516 -219c-209.333 -168 -314 -343.333 -314 -526c0 -67.333 23.333 -121.666 70 -162.999s108 -62 184 -62c160.667 0 315.667 83.667 465 251c106.667 120 160 230.667 160 332c0 41.333 -13.5 75 -40.5 101
s-62.167 39 -105.5 39c-95.333 0 -198 -55.667 -308 -167s-165 -215.666 -165 -312.999c0 -27.333 8.5 -50.666 25.5 -69.999s37.167 -28.666 60.5 -27.999c8.66699 0 13 -1.33301 13 -4c0 -5.33301 -5 -8 -15 -8c-36.667 0 -66.334 13.667 -89.001 41s-34 64 -34 110
c0 104.667 55.667 206.667 167 306s225.666 149 342.999 149c49.333 0 89.333 -14.5 120 -43.5s46 -66.5 46 -112.5c0 -131.333 -75 -267 -225 -407c-138.667 -130 -276.667 -195 -414 -195c-90 0 -162 26 -216 78s-81 121.667 -81 209
c0 189.333 108.667 360.666 326 513.999c191.333 135.333 371 203 539 203c90.667 0 164.167 -26.833 220.5 -80.5s84.5 -124.5 84.5 -212.5c0 -81.333 -24.667 -183.666 -74 -306.999c6.66699 6 81 79.667 223 221c116.667 116 233 207.5 349 274.5s216 100.5 300 100.5
c60.667 0 110.667 -15.833 150 -47.5s59 -71.834 59 -120.501z" />
    <glyph glyph-name="l" unicode="Y" horiz-adv-x="1907" 
d="M2474 1112c-0.666992 -2 -3.33594 -4.66699 -8.00195 -8c-115.333 -81.333 -221.666 -191.333 -318.999 -330c-94 -135.333 -199.333 -327 -316 -575c-100 -213.333 -235.667 -383.833 -407 -511.5s-347.666 -191.5 -528.999 -191.5c-90 0 -164 20.833 -222 62.5
s-87 95.167 -87 160.5c0 39.333 12 72.833 36 100.5s53 41.5 87 41.5c43.333 0 65 -20.667 65 -62c0 -22 -7.5 -41.167 -22.5 -57.5s-32.833 -24.5 -53.5 -24.5c-35.333 0 -53 16.667 -53 50c0 8 1.33301 15.333 4 22c1.33301 3.33301 2 7.33301 2 12c0 4 -1.33301 6 -4 6
c-9.33301 0 -18.5 -9.5 -27.5 -28.5s-13.5 -38.833 -13.5 -59.5c0 -59.333 26.667 -108.5 80 -147.5s121 -58.5 203 -58.5c110.667 0 216.167 30.167 316.5 90.5s182.166 131.166 245.499 212.499c62 79.333 156.667 234.333 284 465c44 79.333 96.333 167.333 157 264
c-147.333 -177.333 -257 -299.666 -329 -366.999c-134.667 -125.333 -244.667 -188 -330 -188c-51.333 0 -93.166 19.167 -125.499 57.5s-48.5 88.166 -48.5 149.499c0 62.667 18 126.667 54 192s111.333 171.333 226 318c148 187.333 222 340 222 458
c0 156 -94.333 234 -283 234c-210 0 -420.333 -95.667 -631 -287c-86.667 -78.667 -159.167 -172.167 -217.5 -280.5s-87.5 -203.833 -87.5 -286.5c0 -80 23.167 -143.667 69.5 -191s108.5 -71 186.5 -71c138.667 0 271 65.333 397 196c152 157.333 228 302.666 228 435.999
c0 47.333 -13.333 85.5 -40 114.5s-62 43.5 -106 43.5c-97.333 0 -199.833 -60.167 -307.5 -180.5s-161.5 -234.833 -161.5 -343.5c0 -70 33.667 -105 101 -105h4c6.66699 0 10 -2 10 -6c0 -5.33301 -8.33301 -8 -25 -8c-36.667 0 -66.667 15.333 -90 46s-35 70.667 -35 120
c0 114 54.833 224.833 164.5 332.5s222.167 161.5 337.5 161.5c50.667 0 91 -15.833 121 -47.5s45 -74.167 45 -127.5c0 -119.333 -61.333 -251.666 -184 -396.999c-143.333 -169.333 -295.666 -254 -456.999 -254c-90 0 -162.333 30.333 -217 91s-82 141 -82 241
c0 198.667 104.333 381.667 313 549c104 82.667 215.833 148.334 335.5 197.001s229.167 73 328.5 73c105.333 0 188.333 -29.5 249 -88.5s91 -140.167 91 -243.5c0 -82 -18.667 -161.833 -56 -239.5s-111 -187.5 -221 -329.5
c-94.667 -123.333 -154.834 -206.833 -180.501 -250.5s-38.5 -86.5 -38.5 -128.5c0 -83.333 39.667 -125 119 -125c74 0 162.667 45.5 266 136.5s239.333 243.5 408 457.5c174 220.667 349.333 390 526 508l13 8c5.33301 2.66699 8.66602 4 10 4c6.66699 0 10 -4 10 -12z
" />
    <glyph glyph-name="m" unicode="Z" horiz-adv-x="1337" 
d="M2038 1249c0 -35.333 -49.3311 -96.668 -147.998 -184.001c-79.333 -70.667 -162 -118.334 -248 -143.001c-6.66699 -11.333 -32.334 -59.333 -77.001 -144c-79.333 -153.333 -169.833 -270.833 -271.5 -352.5s-231.834 -141.5 -390.501 -179.5
c112 -6 201.5 -35.333 268.5 -88s100.5 -120.334 100.5 -203.001c0 -158.667 -93 -304 -279 -436c-174.667 -124.667 -338.334 -187 -491.001 -187c-86 0 -157.333 20.167 -214 60.5s-85 90.5 -85 150.5c0 34 9.5 62.667 28.5 86s42.833 35 71.5 35
c42.667 0 64 -21.667 64 -65c0 -22 -7.16699 -41.167 -21.5 -57.5s-31.166 -24.5 -50.499 -24.5c-14.667 0 -28 5.16699 -40 15.5s-17 21.5 -15 33.5l2 14v4c-0.666992 2.66699 -2 4 -4 4c-11.333 0 -17 -16.333 -17 -49c0 -53.333 26 -97.666 78 -132.999s117 -53 195 -53
c148.667 0 296.667 69.667 444 209c150 142 225 279 225 411c0 159.333 -94 246 -282 260c-73.333 -25.333 -135.666 -38 -186.999 -38c-20 0 -30 4.66699 -30 14c0 10 17.833 19 53.5 27s77.167 12 124.5 12h32c98 42.667 185.667 98 263 166s172.666 173 285.999 315
c66 82.667 118.667 146.334 158 191.001c-89.333 2 -154.166 24.333 -194.499 67s-62.166 110.334 -65.499 203.001c-4 114.667 -64 172 -180 172c-166.667 0 -335.667 -87.833 -507 -263.5s-257 -348.5 -257 -518.5c0 -76 22.167 -137 66.5 -183s103.5 -69 177.5 -69
c130 0 260.333 69.5 391 208.5s196 277.5 196 415.5c0 48.667 -12.667 87.5 -38 116.5s-59 43.5 -101 43.5c-86.667 0 -180.334 -60.167 -281.001 -180.5s-151 -232.166 -151 -335.499c0 -64 30.667 -100.333 92 -109c8 0 12 -2.66699 12 -8s-4 -8 -12 -8
c-38 0 -70.667 16.833 -98 50.5s-41 73.5 -41 119.5c0 107.333 52.667 215.666 158 324.999s209.666 164 312.999 164c51.333 0 91.833 -15.833 121.5 -47.5s44.5 -75.834 44.5 -132.501c0 -144 -67.5 -287.167 -202.5 -429.5s-271.167 -213.5 -408.5 -213.5
c-86 0 -155.167 29.167 -207.5 87.5s-78.5 135.833 -78.5 232.5c0 171.333 89.333 337 268 497c190 170.667 375.667 256 557 256c115.333 0 197.333 -38 246 -114c16 -26 26.667 -48.667 32 -68c3.33301 -15.333 10.333 -59.666 21 -132.999
c12.667 -89.333 58.334 -133 137.001 -131c201.333 232 338.666 348 411.999 348c23.333 0 35 -11 35 -33zM2015 1243c0 12.667 -6.66602 18.999 -19.999 18.999c-30.667 0 -78.334 -30.167 -143.001 -90.5s-130.334 -135.5 -197.001 -225.5
c102.667 32 202.334 100.333 299.001 205c40.667 44.667 61 75.334 61 92.001z" />
    <glyph glyph-name="n" unicode="[" horiz-adv-x="899" 
d="M1534 1432c0 -19.333 -45.001 -29.002 -135.001 -29.002c-50 0 -88.333 2 -115 6c-72.667 -106.667 -220 -364 -442 -772c-197.333 -362 -325 -616.667 -383 -764c47.333 2.66699 87.666 3.33398 120.999 2.00098c40 -1.33301 76 -6 108 -14
c28.667 -7.33301 41.667 -13.666 39 -18.999c-2 -4 -6.66699 -6 -14 -6c-1.33301 0 -17.166 2 -47.499 6s-61.166 6 -92.499 6c-134.667 0 -226 -3.33301 -274 -10c70.667 120 219.334 389.667 446.001 809c154 284 292 550.333 414 799
c45.333 -10 117.666 -16.333 216.999 -19c34 -0.666992 73 1.33301 117 6c27.333 3.33301 41 3 41 -1z" />
    <glyph glyph-name="o" unicode="\" horiz-adv-x="1083" 
d="M948 -207h-26l-70 1694h27z" />
    <glyph glyph-name="p" unicode="]" horiz-adv-x="899" 
d="M1419 1440c-70 -120 -218.668 -389.664 -446.001 -808.997c-154 -284 -292 -550.333 -414 -799c-44.667 10 -117 16 -217 18c-33.333 1.33301 -72 -0.333984 -116 -5.00098c-28 -3.33301 -42 -3 -42 1c0 19.333 45 29 135 29c50 0 88.333 -2 115 -6
c73.333 106.667 221 364 443 772c196.667 362 324.334 616.667 383.001 764c-47.333 -2.66699 -87.666 -3.33398 -120.999 -2.00098c-40 1.33301 -76.333 6 -109 14c-28 7.33301 -41 13.666 -39 18.999c2 4 6.66699 6 14 6c2 0 18.167 -2 48.5 -6s60.833 -6 91.5 -6
c135.333 0 226.666 3.33301 273.999 10z" />
    <glyph glyph-name="q" unicode="^" horiz-adv-x="1024" 
d="M1251 596c-12.667 0 -29 15 -49 45c-42.667 63.333 -84.334 144 -125.001 242c-83.333 -55.333 -203.666 -117.666 -360.999 -186.999s-256.666 -104 -297.999 -104c-8 0 -12 3.33301 -12 10c3.33301 4.66699 12.666 10 27.999 16c145.333 62 290.333 139 435 231
c147.333 94 248 175 302 243c-0.666992 -20.667 -1 -41.334 -1 -62.001c0 -144.667 25.667 -281 77 -409c6.66699 -16.667 8 -25 4 -25z" />
    <glyph glyph-name="r" unicode="_" horiz-adv-x="1024" 
d="M1118 -213h-1024v43h1024v-43z" />
    <glyph glyph-name="s" unicode="`" horiz-adv-x="1024" 
d="M895 639c-0.666992 -2.66699 -2.66797 -4 -6.00098 -4c-16.667 0 -38.5 24.667 -65.5 74s-47.5 101.666 -61.5 156.999l86 60c-11.333 -32.667 -17 -65 -17 -97c0 -69.333 18.667 -128.666 56 -177.999c4.66699 -4.66699 7.33398 -8.66699 8.00098 -12z" />
    <glyph glyph-name="t" unicode="a" horiz-adv-x="705" 
d="M889 313c0 -14 -48.6699 -78.666 -146.003 -193.999c-78.667 -94.667 -140.667 -142 -186 -142c-30.667 0 -55.667 11.5 -75 34.5s-29 51.833 -29 86.5c0 36 10.667 75 32 117c-66.667 -93.333 -117.667 -156.333 -153 -189s-69.666 -49 -102.999 -49
c-35.333 0 -65 15.167 -89 45.5s-36 68.5 -36 114.5c0 128 90.333 241.333 271 340c79.333 44 143.333 66 192 66c41.333 0 62 -20 62 -60c0 -11.333 -2.66699 -26.333 -8 -45l51 97c20 -4.66699 37.667 -7 53 -7c18 0 41.333 2.33301 70 7l-177 -293
c-61.333 -102.667 -92 -170.334 -92 -203.001c0 -31.333 13 -47 39 -47c26.667 0 69.334 30.5 128.001 91.5s118.334 136.167 179.001 225.5c4 6.66699 7.66699 10 11 10c4 0 6 -2 6 -6zM613.997 479.001c0 32.667 -15 49 -45 49c-61.333 0 -141.833 -60 -241.5 -180
s-149.5 -217 -149.5 -291c0 -43.333 19.333 -65 58 -65c46 0 125.667 76.333 239 229c92.667 125.333 139 211.333 139 258z" />
    <glyph glyph-name="u" unicode="b" horiz-adv-x="539" 
d="M723 1010l-448.999 -709c70 96 122.333 160.333 157 193s67.667 49 99 49c37.333 0 67.833 -15.167 91.5 -45.5s35.5 -68.5 35.5 -114.5c0 -100.667 -64 -199.667 -192 -297c-95.333 -72.667 -180 -109 -254 -109c-34.667 0 -62.834 13.167 -84.501 39.5
s-32.5 60.5 -32.5 102.5c0 50 32 126.333 96 229l414 664c18 -5.33301 37.333 -8 58 -8c16 0 36.333 2 61 6zM584.001 461c0 44.667 -18.667 67 -56 67c-48.667 0 -131.667 -80.333 -249 -241c-88 -120 -132 -200.667 -132 -242c0 -35.333 17.333 -53 52 -53
c60 0 139.167 59.833 237.5 179.5s147.5 216.167 147.5 289.5z" />
    <glyph glyph-name="v" unicode="c" horiz-adv-x="496" 
d="M682 313c0 -8.66699 -47.001 -64.667 -141.001 -168c-102.667 -112 -190 -168 -262 -168c-46.667 0 -86.667 17.833 -120 53.5s-50 78.167 -50 127.5c0 56 22.667 114 68 174s106.333 111.667 183 155c64.667 37.333 117.334 56 158.001 56c49.333 0 74 -29.333 74 -88
c0 -46 -15.5 -92 -46.5 -138s-61.833 -69 -92.5 -69c-30 0 -45 15 -45 45c0 35.333 30.667 68 92 98c47.333 23.333 71 54 71 92c0 30 -16.333 45 -49 45c-55.333 0 -123.333 -55 -204 -165s-121 -202.333 -121 -277c0 -62.667 29.333 -94 88 -94
c92 0 216.667 103.667 374 311c8.66699 10.667 15 16 19 16c2.66699 -0.666992 4 -2.66699 4 -6z" />
    <glyph glyph-name="w" unicode="d" horiz-adv-x="705" 
d="M1094 1012c-250 -397.333 -407.666 -651.333 -472.999 -762c-66 -112.667 -99 -183.667 -99 -213c0 -30 13.667 -45 41 -45c60.667 0 163.667 105.667 309 317c4 6.66699 7.66699 10 11 10c4 0 6 -2 6 -6c-0.666992 -2 -4 -7.33301 -10 -16l-43 -59
c-126 -174 -219 -261 -279 -261c-30.667 0 -55.667 11.5 -75 34.5s-29 52.5 -29 88.5s12 77.667 36 125c-116.667 -165.333 -203.334 -248 -260.001 -248c-35.333 0 -65 15.167 -89 45.5s-36 68.5 -36 114.5c0 110 68.333 209.667 205 299c108.667 71.333 194 107 256 107
c41.333 0 62 -20 62 -60c0 -18.667 -5.66699 -39.667 -17 -63l357 598c22 -6.66699 43.667 -10 65 -10c5.33301 0 26 1.33301 62 4zM612.001 475c0 35.333 -16.333 53 -49 53c-60 0 -139.167 -59.833 -237.5 -179.5s-147.5 -216.167 -147.5 -289.5
c0 -44.667 18.333 -67 55 -67c53.333 0 145 92.667 275 278c69.333 100 104 168.333 104 205z" />
    <glyph glyph-name="x" unicode="e" horiz-adv-x="504" 
d="M690 313c0 -2 -5.99805 -10.668 -17.998 -26.001l-43 -54c-138 -170.667 -256.333 -256 -355 -256c-46.667 0 -85.834 16.833 -117.501 50.5s-47.5 75.834 -47.5 126.501c0 120 83.667 225.667 251 317c88 48 159.667 72 215 72c24 0 44.5 -7.16699 61.5 -21.5
s25.5 -31.833 25.5 -52.5c0 -48 -31.333 -88.833 -94 -122.5s-167.334 -65.167 -314.001 -94.5c-45.333 -68.667 -68 -126 -68 -172c0 -57.333 31 -86 93 -86c105.333 0 234.333 103 387 309c8 10.667 14.667 16 20 16c2.66699 -0.666992 4 -2.66699 4 -6zM606.002 497.999
c0 21.333 -11.667 32 -35 32c-35.333 0 -81.833 -24.5 -139.5 -73.5s-114.167 -112.5 -169.5 -190.5c96 24.667 177.333 59.5 244 104.5s100 87.5 100 127.5z" />
    <glyph glyph-name="y" unicode="f" horiz-adv-x="272" 
d="M864 1030c0 -59.333 -41.999 -133.832 -125.999 -223.499s-194 -177.5 -330 -263.5h172l-9 -15h-174l-82 -159c-100.667 -196.667 -186.667 -344.834 -258 -444.501s-153.666 -188.5 -246.999 -266.5c-128.667 -106.667 -248.334 -160 -359.001 -160
c-49.333 0 -74 7 -74 21c0 6.66699 3.66699 10 11 10c5.33301 0 9.33301 -0.666992 12 -2c24 -6.66699 46.667 -10 68 -10c90 0 180.667 40.333 272 121c56 49.333 105 107.333 147 174c34.667 53.333 116.667 198.666 246 435.999l154 280h-107l8 15h109
c85.333 144.667 179.666 269.834 282.999 375.501s183 158.5 239 158.5c30 0 45 -15.667 45 -47zM852.001 1032c0 22 -11.001 33 -33.001 33c-50.667 0 -119.667 -58 -207 -174c-43.333 -58.667 -108.666 -168 -195.999 -328c109.333 76 209.333 162.667 300 260
s136 167 136 209z" />
    <glyph glyph-name="z" unicode="g" horiz-adv-x="686" 
d="M870 313c0 -10.667 -35.9961 -56.334 -107.996 -137.001c-80.667 -89.333 -185 -169 -313 -239l-50 -91c-90.667 -167.333 -192.334 -296.333 -305.001 -387c-108 -87.333 -201.333 -131 -280 -131c-28.667 0 -52.334 8.66699 -71.001 26s-28 38.666 -28 63.999
c0 136.667 154.333 275.334 463 416.001c66.667 30.667 109.667 51.334 129 62.001l170 313c-74 -98 -126.167 -161.167 -156.5 -189.5s-61.5 -42.5 -93.5 -42.5c-34.667 0 -64.167 15.333 -88.5 46s-36.5 68 -36.5 112c0 115.333 75.333 220 226 314
c100.667 62.667 179.667 94 237 94c40 0 60 -22 60 -66c0 -12 -3 -26.333 -9 -43l56 101c18 -4.66699 33.667 -7 47 -7c17.333 0 42.666 2.33301 75.999 7c-4.66699 -6 -34 -56 -88 -150l-248 -428c87.333 49.333 157.166 97 209.499 143s111.5 112.333 177.5 199
c10 13.333 16.667 20 20 20c2.66699 -0.666992 4 -2.66699 4 -6zM614.004 477c0 34 -16.333 51 -49 51c-60 0 -139.5 -59.833 -238.5 -179.5s-148.5 -216.167 -148.5 -289.5c0 -44.667 19.333 -67 58 -67c39.333 0 106 59.333 200 178c118.667 150 178 252.333 178 307z
M297.004 -121c-12.667 -7.33301 -50.332 -26.333 -112.999 -57c-304 -150.667 -456 -286 -456 -406c0 -20.667 7.66699 -38 23 -52s35 -21 59 -21c73.333 0 144.666 37.5 213.999 112.5s156.333 209.5 261 403.5z" />
    <glyph glyph-name="braceleft" unicode="h" horiz-adv-x="641" 
d="M825 315c0 -5.33301 -3.33203 -11.332 -9.99902 -17.999l-43 -59c-125.333 -174 -218.666 -261 -279.999 -261c-32 0 -58.167 11.5 -78.5 34.5s-30.5 51.833 -30.5 86.5c0 46.667 25.333 107.667 76 183c79.333 116.667 119 186 119 208c0 26 -13.667 39 -41 39
c-40 0 -94.667 -39.333 -164 -118c-66.667 -75.333 -158.334 -218 -275.001 -428c-20 4 -37 6 -51 6c-14.667 0 -34.334 -2 -59.001 -6l147 266l92 168l203 344l152 258c20 -4 37 -6 51 -6c26.667 0 52 3.33301 76 10l-310 -500l-155 -258c125.333 186 224.333 279 297 279
c28.667 0 53.167 -12.333 73.5 -37s30.5 -54.667 30.5 -90c0 -46 -29.333 -112.333 -88 -199c-65.333 -96.667 -98 -157.334 -98 -182.001c0 -28.667 14.333 -43 43 -43c52 0 138 84 258 252l31 43l18 22c3.33301 6.66699 7.33301 10 12 10c2.66699 0 4 -1.33301 4 -4z" />
    <glyph glyph-name="bar" unicode="i" horiz-adv-x="344" 
d="M514 727c0 -23.333 -9.83398 -45.167 -29.501 -65.5s-41.167 -30.5 -64.5 -30.5c-30 0 -45 15 -45 45c0 22 10.333 43.167 31 63.5s42.334 30.5 65.001 30.5c28.667 0 43 -14.333 43 -43zM527.999 312.999c-0.666992 -2 -3.99805 -7.33301 -9.99805 -16l-43 -59
c-125.333 -174 -221 -261 -287 -261c-31.333 0 -57.5 11.167 -78.5 33.5s-31.5 50.166 -31.5 83.499c0 38.667 23 97.334 69 176.001l156 265c20.667 -4.66699 37 -7 49 -7c18 0 43.333 2.33301 76 7l-227 -373c-32.667 -54 -49 -95.667 -49 -125c0 -30 15.667 -45 47 -45
c59.333 0 163.666 105.667 312.999 317c3.33301 6.66699 6.66602 10 9.99902 10c4 0 6 -2 6 -6z" />
    <glyph glyph-name="braceright" unicode="j" horiz-adv-x="309" 
d="M524 725c0 -22.667 -9.83301 -43.667 -29.5 -63s-41.167 -29 -64.5 -29c-27.333 0 -41 14.333 -41 43c0 21.333 9.83301 42 29.5 62s40.5 30 62.5 30c28.667 0 43 -14.333 43 -43zM496 315c0 -10 -37.001 -56.333 -111.001 -139c-76 -85.333 -179.667 -165 -311 -239
l-51 -89c-103.333 -176.667 -205.333 -306.334 -306 -389.001c-106.667 -87.333 -198 -131 -274 -131c-68 0 -102 31.333 -102 94c0 76.667 51.667 155.334 155 236.001c56.667 44 104.667 77.333 144 100c60.667 34.667 154 79 280 133l14 7l175 311l188 326
c18.667 -4.66699 34.334 -7 47.001 -7c18.667 0 43.334 2.33301 74.001 7l-242 -410l-92 -168c86 48 156.167 96 210.5 144s113.166 114 176.499 198c8 13.333 15 20 21 20c2 0 3.33301 -1.33301 4 -4zM-74.001 -121c-190 -96.667 -310.667 -162.668 -362 -198.001
c-139.333 -96 -209 -183.667 -209 -263c0 -21.333 8 -39.166 24 -53.499s36 -21.5 60 -21.5c70 0 139.333 39 208 117c58 65.333 147 198.333 267 399z" />
    <glyph glyph-name="asciitilde" unicode="k" horiz-adv-x="616" 
d="M717 1022c-5.33301 -9.33301 -13.6641 -23 -24.9971 -41l-78 -125l-77 -129l-172 -278c-57.333 -92.667 -106 -176.667 -146 -252c-44.667 -84 -80.667 -149 -108 -195l-13 -20c-18 4 -35.667 6 -53 6c-14.667 0 -36.334 -2 -65.001 -6l51 88l116 202l78 136l367 614
c27.333 -5.33301 47.666 -8 60.999 -8s34.666 2.66699 63.999 8zM803.002 313c-0.666992 -2 -3.99805 -7.33594 -9.99805 -16.0029l-43 -59c-126 -174 -221 -261 -285 -261c-28.667 0 -54 9.66699 -76 29s-33 41.333 -33 66c0 21.333 18.667 69 56 143l1 4
c12.667 24.667 19 43 19 55c0 14.667 -11 28.334 -33 41.001c-25.333 -10.667 -46.333 -16 -63 -16c-23.333 0 -35 6.66699 -35 20c0 11.333 11 17 33 17c21.333 0 41 -3.33301 59 -10c33.333 14.667 86.666 64.334 159.999 149.001c39.333 45.333 79.666 68 120.999 68
c50.667 0 76 -24 76 -72c0 -32 -12.833 -63.833 -38.5 -95.5s-51.167 -47.5 -76.5 -47.5c-28.667 0 -43 13 -43 39c0 24 21.667 49.667 65 77c18 11.333 27 27.333 27 48c0 16 -10.333 24 -31 24c-28.667 0 -64.667 -25.333 -108 -76
c-55.333 -63.333 -100.333 -102.666 -135 -117.999c69.333 -32 104 -69 104 -111c0 -23.333 -16.333 -68.333 -49 -135c-14 -28 -21 -47.333 -21 -58c0 -17.333 11 -26 33 -26c62.667 0 165 105.667 307 317c4.66699 6.66699 9 10 13 10s6 -2 6 -6z" />
    <glyph glyph-name="Adieresis" unicode="l" horiz-adv-x="328" 
d="M711 1022c-280 -466 -443.166 -740 -489.499 -822s-69.5 -136.333 -69.5 -163c0 -30 12.667 -45 38 -45c56 0 158.667 105.667 308 317c3.33301 6.66699 7.33301 10 12 10c2.66699 -0.666992 4 -2.66699 4 -6c0 -4 -3.33301 -9.33301 -10 -16l-43 -59
c-126 -174 -219 -261 -279 -261c-28.667 0 -52.167 10.833 -70.5 32.5s-27.5 49.167 -27.5 82.5c0 36.667 8.5 72.167 25.5 106.5s74.833 133.5 173.5 297.5l305 522c20 -5.33301 37.667 -8 53 -8c25.333 0 48.666 4 69.999 12z" />
    <glyph glyph-name="Aring" unicode="m" horiz-adv-x="1114" 
d="M1298 313c-0.666992 -2 -3.99902 -7.33203 -9.99902 -15.999l-43 -59c-125.333 -174 -218 -261 -278 -261c-31.333 0 -57 11.667 -77 35s-30 53.333 -30 90c0 37.333 12.667 77.666 38 120.999c4.66699 8 29 43.667 73 107c56 80 84 132.333 84 157
c0 27.333 -13.667 41 -41 41c-88 0 -239 -180.667 -453 -542c-13.333 2.66699 -31.666 4 -54.999 4c-27.333 0 -50.666 -1.33301 -69.999 -4l142 225c92.667 148 139 238.667 139 272c0 30 -12.333 45 -37 45c-36.667 0 -96.667 -52.667 -180 -158s-166 -233.333 -248 -384
c-15.333 2.66699 -35 4 -59 4c-26 0 -48.667 -1.33301 -68 -4l143 225c98.667 154.667 148 250.334 148 287.001c0 20 -7.66699 30 -23 30c-32.667 0 -100.334 -71.667 -203.001 -215c-6.66699 -9.33301 -12 -14 -16 -14c-2.66699 0.666992 -4 2.66699 -4 6
c0 6 30.667 47.667 92 125c60 75.333 106.333 113 139 113c21.333 0 39.666 -10.167 54.999 -30.5s23 -44.5 23 -72.5c0 -38.667 -19.667 -92.334 -59 -161.001c120 176 209.333 264 268 264c28 0 51 -11.333 69 -34s27 -51 27 -85c0 -38 -17.667 -86.333 -53 -145
c126.667 176 221.667 264 285 264c28.667 0 52.834 -12.333 72.501 -37s29.5 -54.667 29.5 -90c0 -41.333 -16.333 -89.666 -49 -144.999c-0.666992 -0.666992 -29.334 -43.334 -86.001 -128.001c-32.667 -48 -49 -84.667 -49 -110c0 -27.333 13.667 -41 41 -41
c52 0 138 84 258 252l31 43l18 22c3.33301 6.66699 6.66602 10 9.99902 10c4 0 6 -2 6 -6z" />
    <glyph glyph-name="Ccedilla" unicode="n" horiz-adv-x="801" 
d="M987 313c0 -14 -48.3311 -78.6641 -144.998 -193.997c-79.333 -94.667 -141.666 -142 -186.999 -142c-30 0 -55.167 11.667 -75.5 35s-30.5 52 -30.5 86c0 30 6.16699 57.833 18.5 83.5s44.5 76.5 96.5 152.5c54 80 81 131 81 153c0 27.333 -14.333 41 -43 41
c-97.333 0 -247.333 -180.667 -450 -542c-32.667 2.66699 -52.334 4 -59.001 4c-23.333 0 -45.333 -1.33301 -66 -4l156 247c88.667 141.333 133 229.666 133 264.999c0 20 -8.33301 30 -25 30c-34 0 -101 -71.667 -201 -215c-6 -8.66699 -10.667 -13.334 -14 -14.001
c-3.33301 0 -5.33301 2 -6 6c0.666992 3.33301 2 6 4 8l19 25c102 136.667 170.667 205 206 205c22.667 0 42 -10.333 58 -31s24 -45.334 24 -74.001c0 -42.667 -25 -102 -75 -178c78.667 108.667 139.167 183 181.5 223s81.5 60 117.5 60c29.333 0 54 -12 74 -36
s30 -53.667 30 -89c0 -44.667 -30.667 -113 -92 -205c-62.667 -94 -94 -154 -94 -180c0 -27.333 13.667 -41 41 -41c59.333 0 161.666 105.667 306.999 317c3.33301 6.66699 6.66602 10 9.99902 10c4 0 6 -2 6 -6z" />
    <glyph glyph-name="Eacute" unicode="o" horiz-adv-x="594" 
d="M778 315c0 -10.667 -19.666 -35.667 -58.999 -75c-58.667 -58.667 -112.667 -88 -162 -88c-20.667 0 -39 4 -55 12c-88 -124.667 -170.667 -187 -248 -187c-40 0 -74.167 16.5 -102.5 49.5s-42.5 72.5 -42.5 118.5c0 102.667 67.333 201.667 202 297
c94.667 67.333 172.667 101 234 101c57.333 0 86 -30.667 86 -92c0 -76.667 -40.333 -169 -121 -277c13.333 -8 28.333 -12 45 -12c30 0 65 14 105 42s72.667 61.667 98 101c7.33301 9.33301 12.666 14 15.999 14c2.66699 0 4 -1.33301 4 -4zM616.001 449
c0 54 -24.333 80.999 -73 80.999c-60.667 0 -134.667 -58 -222 -174s-131 -213.667 -131 -293c0 -46 22 -69 66 -69c72 0 150.667 59.333 236 178c-19.333 21.333 -29 43.333 -29 66c0 32.667 13 66.334 39 101.001s51.333 52 76 52c10.667 0 18 -6.66699 22 -20
c10.667 23.333 16 49.333 16 78z" />
    <glyph glyph-name="Ntilde" unicode="p" horiz-adv-x="543" 
d="M662 383c0 -108.667 -67.666 -207.667 -202.999 -297c-110 -72.667 -196 -109 -258 -109c-42.667 0 -64 20 -64 60c0 12 3.33301 28.333 10 49l-383 -639c-23.333 5.33301 -42.333 8 -57 8c-22 0 -43.667 -4 -65 -12l821 1350c18 -6 35.667 -9 53 -9c18 0 40 3 66 9
l-297 -480c71.333 94.667 123.166 156.667 155.499 186s64.5 44 96.5 44c35.333 0 65 -15.333 89 -46s36 -68.667 36 -114zM588.001 463c0 43.333 -19.332 64.998 -57.999 64.998c-48.667 0 -130.334 -78.333 -245.001 -235c-88.667 -121.333 -133 -204.666 -133 -249.999
c0 -34 15.667 -51 47 -51c61.333 0 141.5 59.833 240.5 179.5s148.5 216.834 148.5 291.501z" />
    <glyph glyph-name="Odieresis" unicode="q" horiz-adv-x="592" 
d="M791 537l-321.998 -531l-281 -469l-51 -82c-22 5.33301 -43 8 -63 8c-22.667 0 -44 -2.66699 -64 -8l469 752c-2.66699 -4 -15.667 -21 -39 -51c-88.667 -119.333 -160.334 -179 -215.001 -179c-34.667 0 -63.834 15.5 -87.501 46.5s-35.5 68.833 -35.5 113.5
c0 107.333 68.333 206.333 205 297c108.667 72.667 194.667 109 258 109c41.333 0 62 -20 62 -60c0 -13.333 -5 -32.333 -15 -57l60 109c12 -3.33301 27.667 -5 47 -5c14.667 0 38.667 2.33301 72 7zM612.002 479c0 32.667 -15 49.001 -45 49.001
c-60 0 -139.833 -60 -239.5 -180s-149.5 -217 -149.5 -291c0 -43.333 19.333 -65 58 -65c46.667 0 125.667 75 237 225c92.667 125.333 139 212.666 139 261.999z" />
    <glyph glyph-name="Udieresis" unicode="r" horiz-adv-x="569" 
d="M756 313c0 -5.33301 -19.999 -29.668 -59.999 -73.001c-50.667 -56 -98.334 -84 -143.001 -84c-50.667 0 -76 29.333 -76 88c0 18.667 4 42.334 12 71.001c-42 -36.667 -76.167 -73 -102.5 -109s-71.833 -109.333 -136.5 -220c-35.333 2.66699 -56 4 -62 4
c-2.66699 0 -23 -1.33301 -61 -4l164 266c82 133.333 123 216 123 248c0 18.667 -7.66699 28 -23 28c-37.333 0 -105 -71.667 -203 -215c-6 -9.33301 -11.333 -14 -16 -14c-2.66699 0.666992 -4 2.66699 -4 6c0.666992 3.33301 2 6 4 8l18 25
c102.667 136.667 172.334 205 209.001 205c53.333 0 80 -34.333 80 -103c0 -51.333 -27.333 -119.333 -82 -204c34.667 40 67.667 72.667 99 98c25.333 59.333 56.833 109 94.5 149s71.5 60 101.5 60c20.667 0 31 -9 31 -27c0 -32 -46.333 -77.667 -139 -137l-66 -41
l-12 -10c-9.33301 -30.667 -14 -56 -14 -76c0 -56 21 -84 63 -84c52 0 108.667 43 170 129c13.333 14.667 21.666 22 24.999 22c4 0 6 -2 6 -6z" />
    <glyph glyph-name="aacute" unicode="s" horiz-adv-x="399" 
d="M524 702c0 -26.667 -41.666 -79.667 -124.999 -159c-4 -20.667 -6 -38.667 -6 -54c0 -38.667 17.667 -100 53 -184c18 -42 27 -77.333 27 -106c0 -60 -29.167 -112 -87.5 -156s-127.5 -66 -207.5 -66c-45.333 0 -81.5 12.833 -108.5 38.5s-40.5 60.167 -40.5 103.5
c0 50 17.833 98.667 53.5 146s72.5 71 110.5 71c6.66699 0 12.667 -1.33301 18 -4l80 98l96 119c11.333 46.667 28.666 86.667 51.999 120s46.333 50 69 50c10.667 0 16 -5.66699 16 -17zM385.001 307c0 20 -0.666992 39.832 -2 59.499s-2 47.834 -2 84.501
c0 30 1.33301 55 4 75l-162 -200c12.667 -10.667 19 -23.667 19 -39c0 -39.333 -32.333 -66 -97 -80c-26 -6 -48.5 -20.167 -67.5 -42.5s-28.5 -45.833 -28.5 -70.5c0 -26.667 9.66699 -49 29 -67s43.333 -27 72 -27c56 0 109.167 32.5 159.5 97.5s75.5 134.833 75.5 209.5z
" />
    <glyph glyph-name="agrave" unicode="t" horiz-adv-x="338" 
d="M555 543l-8.00098 -15h-131l-223 -381c-27.333 -46 -41 -82.667 -41 -110c0 -30 15.667 -45 47 -45c60.667 0 163 105.667 307 317c4.66699 6.66699 8.66699 10 12 10c4 0 6 -2 6 -6c-0.666992 -2 -4 -7.33301 -10 -16l-43 -59
c-125.333 -174 -219.666 -261 -282.999 -261c-31.333 0 -57.5 11.333 -78.5 34s-31.5 51 -31.5 85c0 40 17.667 90 53 150l168 282h-102l10 15h100l117 194c20 -5.33301 39 -8 57 -8c18.667 0 38 2.66699 58 8l-115 -194h131z" />
    <glyph glyph-name="acircumflex" unicode="u" horiz-adv-x="641" 
d="M827 313c0 -15.333 -48.3359 -79.999 -145.003 -193.999c-80 -94.667 -143.333 -142 -190 -142c-29.333 0 -54.166 11.833 -74.499 35.5s-30.5 52.167 -30.5 85.5c0 26 13 62.333 39 109l-20 -27c-61.333 -78.667 -106.333 -131.334 -135 -158.001
c-31.333 -30 -61 -45 -89 -45c-29.333 0 -54 11.5 -74 34.5s-30 51.167 -30 84.5c0 38.667 15 83 45 133l182 306c22.667 -4.66699 40.334 -7 53.001 -7s35.334 2.33301 68.001 7l-238 -392c-24 -40 -36 -75.333 -36 -106c0 -30 12.667 -45 38 -45
c67.333 0 175.333 125.667 324 377l98 166c20.667 -4.66699 38 -7 52 -7c16.667 0 40.334 2.33301 71.001 7l-160 -261c-76 -124 -114 -203.667 -114 -239c0 -28.667 13.667 -43 41 -43c53.333 0 140 84 260 252l31 43l18 22c3.33301 6.66699 6.66602 10 9.99902 10
c4 0 6 -2 6 -6z" />
    <glyph glyph-name="adieresis" unicode="v" horiz-adv-x="559" 
d="M745 315c0 -8 -21.0039 -33.666 -63.0039 -76.999c-58 -60.667 -108.667 -91 -152 -91c-29.333 0 -53.666 16 -72.999 48c-59.333 -82 -107.666 -138.833 -144.999 -170.5s-75 -47.5 -113 -47.5c-34 0 -62.667 11.833 -86 35.5s-35 52.167 -35 85.5
c0 39.333 22.333 96.666 67 171.999l158 265c32.667 -3.33301 54.667 -5 66 -5c24.667 0 44.334 1.66699 59.001 5l-209 -338c-46 -76 -69 -128.667 -69 -158c0 -31.333 17.667 -47 53 -47c32.667 0 66.167 15 100.5 45s83.5 86.667 147.5 170c-6 20 -9 37.667 -9 53
c0 60.667 18.667 123 56 187s73.333 96 108 96c16.667 0 25 -9.66699 25 -29c0 -50 -55.333 -153 -166 -309c14 -30 35.667 -45 65 -45c50.667 0 112.334 45 185.001 135c13.333 16 22 24 26 24c2.66699 0 4 -1.33301 4 -4z" />
    <glyph glyph-name="atilde" unicode="w" horiz-adv-x="868" 
d="M1055 315c0 -7.33301 -21.3359 -33 -64.0029 -77c-57.333 -60.667 -107.666 -91 -150.999 -91c-29.333 0 -54 16 -74 48c-59.333 -82 -107.666 -138.833 -144.999 -170.5s-75 -47.5 -113 -47.5c-34 0 -62.333 11.5 -85 34.5s-34 51.167 -34 84.5c0 28 9 61.667 27 101
c-100 -146.667 -178.667 -220 -236 -220c-28.667 0 -52.834 11.667 -72.501 35s-29.5 51.333 -29.5 84c0 38 19.667 90.667 59 158l166 281c26.667 -4.66699 46.334 -7 59.001 -7c11.333 0 33.333 2.33301 66 7l-227 -371c-36 -58 -54 -100.333 -54 -127
c0 -30 13.667 -45 41 -45c30 0 74.833 33.333 134.5 100s118.834 150 177.501 250l112 193c36 -3.33301 58.667 -5 68 -5c23.333 0 42.333 1.66699 57 5l-209 -338c-46 -75.333 -69 -127.333 -69 -156c0 -32.667 17 -49 51 -49c68 0 150.667 71.667 248 215
c-4 24.667 -6 43 -6 55c0 59.333 18.5 121 55.5 185s72.833 96 107.5 96c15.333 0 23 -10.333 23 -31c0 -56 -54.667 -158.333 -164 -307c16.667 -30 38.667 -45 66 -45c50 0 111.333 45 184 135c13.333 16 22.333 24 27 24c2 0 3.33301 -1.33301 4 -4z" />
    <glyph glyph-name="aring" unicode="x" horiz-adv-x="713" 
d="M897 313l-4.00098 -7.99902l-12 -16c-87.333 -116.667 -155 -197.334 -203 -242.001c-50 -46.667 -95 -70 -135 -70s-75 15.5 -105 46.5s-45 66.833 -45 107.5c0 18 5 43.333 15 76c-90.667 -153.333 -170 -230 -238 -230c-21.333 0 -39.333 8.16699 -54 24.5
s-22 36.166 -22 59.499c0 34.667 12.333 66.667 37 96s51.334 44 80.001 44c35.333 0 53 -17 53 -51c0 -38.667 -27.333 -65.334 -82 -80.001c-30 -8 -45 -23 -45 -45c0 -20.667 12.333 -31 37 -31c49.333 0 106 45 170 135c101.333 142 152 254.667 152 338
c0 40.667 -18.667 61 -56 61c-63.333 0 -144.333 -68.667 -243 -206c-11.333 -15.333 -19 -23 -23 -23c-2.66699 1.33301 -4 3.33301 -4 6c0 12 33 54.667 99 128s125 110 177 110c40 0 73 -13.667 99 -41s39 -61.666 39 -102.999c0 -20 -5 -42.333 -15 -67
c92 140.667 171.333 211 238 211c50.667 0 76 -27.333 76 -82c0 -32.667 -11 -63 -33 -91s-46 -42 -72 -42c-32.667 0 -49 17 -49 51c0 32 24 55.333 72 70c30 8.66699 45 24.334 45 47.001c0 21.333 -13.667 32 -41 32c-56.667 0 -125.5 -57 -206.5 -171
s-121.5 -210.333 -121.5 -289c0 -50.667 24 -76 72 -76c69.333 0 176.333 101.667 321 305c10.667 14.667 17.667 22 21 22c4 0 6 -2 6 -6z" />
    <glyph glyph-name="ccedilla" unicode="y" horiz-adv-x="631" 
d="M815 313c0 -10 -36.6699 -55.666 -110.003 -136.999c-81.333 -89.333 -187.333 -170 -318 -242l-49 -88c-96.667 -173.333 -197.667 -302.333 -303 -387c-108.667 -87.333 -203 -131 -283 -131c-27.333 0 -50.166 8.66699 -68.499 26s-27.5 38.666 -27.5 63.999
c0 134 154.333 272.667 463 416c25.333 12.667 63.333 30.334 114 53.001l15 9l176 313c-69.333 -95.333 -119.666 -157.833 -150.999 -187.5s-63 -44.5 -95 -44.5c-27.333 0 -51.166 11.667 -71.499 35s-30.5 50.666 -30.5 81.999c0 38 23.667 97.333 71 178l154 260
c15.333 -2.66699 33 -4 53 -4c17.333 0 41.333 2.33301 72 7l-197 -320c-56 -90.667 -84 -150 -84 -178c0 -30 13.667 -45 41 -45c72 0 182.667 127.667 332 383l92 157c15.333 -2.66699 34 -4 56 -4c18 0 40.333 2.33301 67 7c-82.667 -131.333 -194.667 -324 -336 -578
c81.333 42 150 87.5 206 136.5s118.667 118.167 188 207.5c9.33301 12 15.333 18 18 18c4 0 6 -2 6 -6zM237.997 -120.999c-10.667 -6 -48.333 -25 -113 -57c-303.333 -150.667 -455 -286 -455 -406c0 -50 28 -75 84 -75c70.667 0 141 38.333 211 115s156.667 211 260 403z
" />
    <glyph glyph-name="eacute" unicode="z" horiz-adv-x="571" 
d="M786 532c0 -22 -30.665 -50.667 -91.998 -86c-68 -57.333 -183.333 -147.333 -346 -270l-84 -63l29 2c32 2 60.333 -9 85 -33s40.667 -54.667 48 -92c38 21.333 90.667 66 158 134s117.666 127 150.999 177c8 12 14.333 18 19 18c2 0 3.33301 -1.33301 4 -4
c0 -13.333 -36.333 -60.333 -109 -141c-74.667 -83.333 -148.334 -150.333 -221.001 -201v-26c0 -74 -26.333 -153.167 -79 -237.5s-117.667 -152.166 -195 -203.499c-170 -112 -305.333 -168 -406 -168c-78 0 -117 31.667 -117 95c0 73.333 53.333 150.333 160 231
c55.333 42 198.666 113.667 429.999 215c45.333 20 87.666 41.333 126.999 64c11.333 30.667 17 58.667 17 84c0 50 -26.667 75 -80 75c-15.333 0 -27 -0.666992 -35 -2l-14 -12l-37 -35c-62.667 -58.667 -103 -88 -121 -88c-16.667 0 -25 7.66699 -25 23
c0 42.667 61.667 83 185 121l426 329l-21 -14c-37.333 -26 -71.333 -39 -102 -39c-22 0 -50 14.333 -84 43c-31.333 26 -57.333 39 -78 39c-41.333 0 -103.666 -51.667 -186.999 -155c-7.33301 -8.66699 -12.666 -13 -15.999 -13c-2.66699 0.666992 -4 2.66699 -4 6
c0 11.333 30.667 49.666 92 114.999c74.667 79.333 137.667 119 189 119c20.667 0 65 -22 133 -66c23.333 -14.667 44.333 -22 63 -22c10 0 20.333 2.66699 31 8l12 16l33 41c15.333 19.333 30.333 29 45 29c10.667 0 16 -4.33301 16 -13zM342.002 -74
c-16.667 -8.66699 -111.665 -53.6689 -284.998 -135.002c-128.667 -59.333 -229.667 -121.166 -303 -185.499s-110 -123.166 -110 -176.499c0 -52 34 -78 102 -78c95.333 0 205.166 59.833 329.499 179.5s213.166 251.5 266.499 395.5z" />
    <glyph glyph-name="egrave" unicode="{" horiz-adv-x="899" 
d="M1452 1438c0 -8 -12.335 -12.9961 -37.002 -14.9961c-110 -8 -191.167 -42 -243.5 -102s-108.166 -181.667 -167.499 -365c-63.333 -192 -209.666 -303 -438.999 -333c2.66699 -0.666992 9.66699 -1.33398 21 -2.00098c92.667 -7.33301 139 -37 139 -89
c0 -50.667 -44.333 -152.334 -133 -305.001c-84.667 -145.333 -127 -238.666 -127 -279.999c0 -50.667 44.333 -75.334 133 -74.001c39.333 0.666992 59 -1.33301 59 -6c0 -12.667 -17 -19 -51 -19c-88.667 0 -142.667 2 -162 6c-66.667 12 -100 44.333 -100 97
c0 38 12.667 85.167 38 141.5s77 150.5 155 282.5c54 92.667 81 152 81 178c0 38 -27.667 57 -83 57c-10 0 -15 2.66699 -15 8c0 8 12.333 13.667 37 17c85.333 12.667 148.5 42.667 189.5 90s91.167 147.666 150.5 300.999c42.667 110.667 86.667 194 132 250
c43.333 53.333 99.666 95.666 168.999 126.999c66.667 30 138.334 45 215.001 45c26 0 39 -3.33301 39 -10z" />
    <glyph glyph-name="ecircumflex" unicode="|" horiz-adv-x="1024" 
d="M858 -342h-39v1708h39v-1708z" />
    <glyph glyph-name="edieresis" unicode="}" horiz-adv-x="899" 
d="M1042 1309c0 -32.667 -10 -68.498 -30 -107.498s-80.333 -139.167 -181 -300.5c-57.333 -92 -86 -153.333 -86 -184c0 -22.667 10.333 -42.167 31 -58.5s44.667 -24.166 72 -23.499c14.667 0.666992 22 -2.66602 22 -9.99902s-8.66699 -12.333 -26 -15
c-67.333 -8.66699 -115.333 -26.667 -144 -54s-63.334 -87 -104.001 -179c-68 -152 -115 -249.667 -141 -293c-70 -116.667 -147.333 -188.334 -232 -215.001c-43.333 -14 -124.333 -21 -243 -21c-22 0 -33 4.33301 -33 13s21 12.667 63 12
c90.667 -0.666992 160.667 22 210 68s107 140.667 173 284c76 165.333 139.333 271.166 190 317.499s131.334 73.166 242.001 80.499c-120 19.333 -180 65.666 -180 138.999c0 40 30 104.667 90 194l117 173c56 88.667 84 152.667 84 192c0 70 -43.667 104 -131 102
c-16.667 0 -25 3 -25 9c0 10.667 17 16 51 16c140.667 0 211 -46.333 211 -139z" />
    <glyph glyph-name="iacute" unicode="~" horiz-adv-x="1366" 
d="M1636 1430c-72.667 -127.333 -157.334 -191 -254.001 -191c-50.667 0 -144.667 37 -282 111c-76.667 40.667 -139 61 -187 61c-76 0 -147.667 -58.667 -215 -176l-34 22c74.667 127.333 159.334 191 254.001 191c52.667 0 133.667 -30 243 -90
c100 -54.667 173 -82 219 -82c80 0 154.667 58 224 174z" />
    <glyph glyph-name="guilsinglright" unicode="&#xa0;" horiz-adv-x="362" 
 />
    <glyph glyph-name="quoteleft" unicode="&#xa1;" horiz-adv-x="588" 
d="M926 1112c0 -27.333 -14.332 -54.667 -42.999 -82s-57.334 -41 -86.001 -41c-26 0 -39 13.667 -39 41c0 30 13.667 58.667 41 86s55.333 41 84 41s43 -15 43 -45zM762.001 921.999c0 -3.33301 -3.99902 -11.001 -11.999 -23.001
c-62.667 -91.333 -172.667 -316.666 -330 -675.999c-38.667 -88.667 -71.334 -150 -98.001 -184s-54.667 -51 -84 -51c-40 0 -60 19.667 -60 59c0 28.667 34.667 92.667 104 192l126 171c164.667 226.667 275 396 331 508c4.66699 8 9.66699 12 15 12s8 -2.66699 8 -8z" />
    <glyph glyph-name="mu" unicode="&#xa2;" 
d="M1094 1006c0 -6 -2.33203 -12.332 -6.99902 -18.999l-135 -221c57.333 -10.667 86 -41.334 86 -92.001c0 -46 -20.833 -87.167 -62.5 -123.5s-88.834 -54.5 -141.501 -54.5c-52 0 -78 23.667 -78 71c0 22 4.66699 33 14 33c2.66699 -0.666992 4 -2.66699 4 -6l-2 -6
l-2 -19c0 -35.333 17 -53 51 -53c35.333 0 73.5 22.333 114.5 67s61.5 86 61.5 124c0 31.333 -17.667 47 -53 47c-62 0 -136.833 -53.5 -224.5 -160.5s-131.5 -198.5 -131.5 -274.5c0 -57.333 28 -86 84 -86c87.333 0 175.333 67 264 201c4 7.33301 7.33301 11.333 10 12
c5.33301 0 8 -2.66699 8 -8c0 -7.33301 -12.333 -27 -37 -59s-47.667 -58 -69 -78c-58 -54.667 -118 -82 -180 -82c-11.333 0 -22.333 1.33301 -33 4l-176 -305c-6 -8 -11 -12 -15 -12c-6.66699 0 -10 3.33301 -10 10c0 5.33301 3.33301 12.333 10 21l174 290
c-73.333 30.667 -110 84 -110 160c0 82.667 45 164.5 135 245.5s186.333 126.167 289 135.5l133 227c7.33301 12.667 13.333 19 18 19c7.33301 0 11 -2.66699 11 -8z" />
    <glyph glyph-name="partialdiff" unicode="&#xa3;" 
d="M1196 905c0 -100.667 -106.333 -220.666 -319 -359.999c-25.333 -54 -52 -104 -80 -150h202l-16 -18h-197c-106 -160.667 -204 -261 -294 -301c144.667 -50.667 250.334 -76 317.001 -76c56.667 0 105 18.333 145 55c2.66699 2.66699 5.66699 4 9 4
c1.33301 -0.666992 2.66602 -2 3.99902 -4c0 -12 -20.167 -32 -60.5 -60s-85.833 -42 -136.5 -42c-103.333 0 -221.333 26.667 -354 80c-56 -22 -109.333 -33 -160 -33c-92.667 0 -137.667 20.333 -135 61c2 41.333 53.667 62 155 62c58 0 125 -13.667 201 -41
c34 27.333 103.667 125.666 209 294.999h-205l17 18h198c116.667 196.667 207.667 330 273 400c84.667 90 150.667 135 198 135c19.333 0 29 -8.33301 29 -25zM1184 905.001c0 11.333 -5.66602 17 -16.999 17c-28 0 -72.333 -35 -133 -105
c-19.333 -22 -68.333 -105.333 -147 -250c79.333 54 146.666 110.333 201.999 169c63.333 68 95 124.333 95 169zM403.001 41.001c-77.333 35.333 -141.334 53 -192.001 53c-53.333 0 -80 -11 -80 -33c0 -32.667 43 -49 129 -49c44.667 0 92.334 9.66699 143.001 29z" />
    <glyph glyph-name="Oacute" unicode="&#xa4;" horiz-adv-x="1040" 
d="M1378 958l-237 -174.001c18.667 -31.333 28 -68.666 28 -111.999c0 -36 -6.66699 -73 -20 -111c-32.667 -90.667 -88.667 -164.334 -168 -221.001l119 -186l-29 -21l-117 186c-81.333 -51.333 -161 -77 -239 -77c-82.667 0 -147.667 25.667 -195 77l-237 -174l-17 25
l234 172c-20.667 32 -31 72 -31 120c0 34.667 6 68.334 18 101.001c32.667 88.667 91 163.667 175 225l-121 185l24 18l121 -186c80.667 53.333 162.667 80 246 80c82 0 145.333 -25.333 190 -76l236 172zM1110 562.999c14.667 39.333 21.998 76 21.998 110
c0 56 -18.167 100.167 -54.5 132.5s-86.833 48.5 -151.5 48.5c-81.333 0 -161 -28.5 -239 -85.5s-131.667 -125.5 -161 -205.5c-12 -33.333 -18 -65.666 -18 -96.999c0 -56.667 19 -102.834 57 -138.501s89.333 -53.5 154 -53.5c82.667 0 160.834 27.5 234.501 82.5
s125.834 123.833 156.501 206.5z" />
    <glyph glyph-name="guillemotleft" unicode="&#xa5;" 
d="M1475 1059c0 -8.66699 -15 -13.667 -45 -15c-131.333 -4.66699 -300 -156 -506 -454h264l-12 -19h-265l-75 -112h315l-12 -19h-316c-64 -101.333 -153.333 -261.666 -268 -480.999c-26.667 8 -49.334 12 -68.001 12c-21.333 0 -44.333 -4 -69 -12l272 481h-235l10 19h235
c16.667 31.333 38 68.666 64 111.999h-272l10 19h272c108 198 162 323 162 375c0 56 -43 84 -129 84s-163.167 -26.833 -231.5 -80.5s-102.5 -113.834 -102.5 -180.501c0 -58.667 35 -88 105 -88c30.667 0 64.334 10.333 101.001 31s65.667 46 87 76
c2 3.33301 4.66699 5.33301 8 6c2.66699 -0.666992 4 -2.66699 4 -6c0 -4.66699 -12.333 -19 -37 -43c-51.333 -50.667 -107.333 -76 -168 -76c-38.667 0 -70.167 10.667 -94.5 32s-36.5 49 -36.5 83c0 64.667 37.333 123.834 112 177.501s157 80.5 247 80.5
c116 0 174 -49.333 174 -148c0 -86 -36.333 -207.333 -109 -364l-12 -27c244 364.667 445.333 547 604 547c11.333 0 17 -3.33301 17 -10z" />
    <glyph glyph-name="two" unicode="&#xa6;" horiz-adv-x="1024" 
d="M858 711h-39v655h39v-655zM858 -342h-39v655h39v-655z" />
    <glyph glyph-name="summation" unicode="&#xa7;" 
d="M1378 1212c0 -5.33301 -2.66602 -8.00293 -7.99902 -8.00293s-16.333 6.33301 -33 19c-56.667 42 -115.334 63 -176.001 63c-71.333 0 -131.166 -23 -179.499 -69s-72.5 -102.667 -72.5 -170c0 -38 22 -140.667 66 -308c26 -98.667 39 -197 39 -295
c0 -158.667 -47.333 -294.167 -142 -406.5s-209.334 -168.5 -344.001 -168.5c-55.333 0 -117.5 13.833 -186.5 41.5s-103.5 52.834 -103.5 75.501c0 6.66699 3.33301 10 10 10c4.66699 0 24.334 -12.333 59.001 -37c60 -42 124.333 -63 193 -63
c71.333 0 134.833 26.667 190.5 80s83.5 114 83.5 182c0 40 -7.33301 89 -22 147c-52 200.667 -78 348.334 -78 443.001c0 162.667 42.667 297.834 128 405.501s192.666 161.5 321.999 161.5c46 0 99.833 -12.5 161.5 -37.5s92.5 -46.833 92.5 -65.5zM1042 1280
c-188 -65.333 -282 -209.334 -282 -432.001c0 -83.333 16.333 -205.666 49 -366.999c22 -107.333 33 -190 33 -248c0 -126 -63 -230.333 -189 -313c183.333 70 275 218.333 275 445c0 68.667 -14 169.5 -42 302.5s-42 232.833 -42 299.5c0 144.667 66 249 198 313z" />
    <glyph glyph-name="oslash" unicode="&#xa8;" horiz-adv-x="1024" 
d="M1024 737c0 -24.667 -9 -46.833 -27 -66.5s-38.333 -29.5 -61 -29.5c-32.667 0 -49 15 -49 45c0 22.667 9.83301 43.667 29.5 63s41.167 29 64.5 29c28.667 0 43 -13.667 43 -41zM854 737.001c0 -24.667 -9 -46.834 -27 -66.501s-38.333 -29.5 -61 -29.5
c-32.667 0 -49 15.667 -49 47c0 22.667 9.83301 43.334 29.5 62.001s41.167 28 64.5 28c28.667 0 43 -13.667 43 -41z" />
    <glyph glyph-name="ordmasculine" unicode="&#xa9;" horiz-adv-x="1573" 
d="M1806 702c0 -204.667 -75.332 -382.332 -225.999 -532.999s-327.667 -226 -531 -226c-180.667 0 -332.334 61 -455.001 183s-184 272.667 -184 452c0 205.333 76 383.166 228 533.499s332 225.5 540 225.5c176 0 324.667 -61.5 446 -184.5s182 -273.167 182 -450.5z
M1780 698.002c0 176 -59.3311 322.499 -177.998 439.499s-267 175.5 -445 175.5c-191.333 0 -359.333 -73.333 -504 -220s-217 -317 -217 -511c0 -173.333 59.167 -319.166 177.5 -437.499s264.166 -177.5 437.499 -177.5c195.333 0 365.666 72.833 510.999 218.5
s218 316.5 218 512.5zM1524 897.001c0 -67.333 -28.167 -127.834 -84.5 -181.501s-119.833 -80.5 -190.5 -80.5c-30.667 0 -56.667 7.16699 -78 21.5s-32 31.833 -32 52.5c0 6.66699 2 10 6 10c2.66699 -0.666992 4 -2.66699 4 -6c4.66699 -34 25.667 -51 63 -51
c62.667 0 124.167 30 184.5 90s90.5 120.667 90.5 182s-34.333 92 -103 92c-100 0 -221.333 -56 -364 -168c-78.667 -62 -140.667 -131 -186 -207s-68 -149 -68 -219c0 -124 68.333 -186 205 -186c135.333 0 266.333 92 393 276c13.333 19.333 22.333 29 27 29
c3.33301 0 5.33301 -2 6 -6c0 -21.333 -36.333 -70.666 -109 -147.999c-106 -113.333 -212.333 -170 -319 -170c-78 0 -144.667 26.833 -200 80.5s-83 118.5 -83 194.5c0 78 28.333 156.333 85 235s132 144.334 226 197.001c132.667 73.333 253.667 110 363 110
c49.333 0 89 -13.333 119 -40s45 -62.334 45 -107.001z" />
    <glyph glyph-name="OE" unicode="&#xaa;" horiz-adv-x="705" 
d="M1171 1149c0 -10.667 -33.334 -55.6689 -100.001 -135.002c-56 -67.333 -101.667 -101 -137 -101c-49.333 0 -74 28.667 -74 86c0 24.667 8.33301 51.334 25 80.001c-81.333 -110.667 -141.333 -166 -180 -166c-25.333 0 -46.5 10.667 -63.5 32s-25.5 48.333 -25.5 81
c0 88.667 63.667 168 191 238c54.667 30 99 45 133 45c28.667 0 43 -13.667 43 -41c0 -11.333 -1.33301 -21.666 -4 -30.999l35 68c14 -4.66699 26.333 -7 37 -7c12 0 28.333 2.33301 49 7l-123 -205c-41.333 -68.667 -62 -114.334 -62 -137.001c0 -22 8.33301 -33 25 -33
c44 0 115.667 72.333 215 217c1.33301 2.66699 4 5.33398 8 8.00098c4.66699 0 7.33398 -2 8.00098 -6zM968.999 1266c0 17.333 -9 26.001 -27 26.001c-43.333 0 -99.5 -39.833 -168.5 -119.5s-103.5 -144.834 -103.5 -195.501c0 -31.333 13 -47 39 -47
c30 0 83.667 51.667 161 155c66 88 99 148.333 99 181z" />
    <glyph glyph-name="fraction" unicode="&#xab;" horiz-adv-x="733" 
d="M848 438c0 -6 -35.668 -36 -107.001 -90c-68 -52 -136 -93 -204 -123l145 -119c-0.666992 -2 -2 -3.33301 -4 -4c-3.33301 0 -24.666 11 -63.999 33l-184 103c110 18.667 246 84.667 408 198c2 2.66699 4.66699 4 8 4zM624.999 438c0 -6 -35.668 -36 -107.001 -90
c-68 -52 -136.333 -93 -205 -123l146 -119c-0.666992 -2 -2 -3.33301 -4 -4c-3.33301 0 -24.666 11 -63.999 33l-184 103c110 18.667 245.667 84.667 407 198c2.66699 2.66699 5.66699 4 9 4z" />
    <glyph glyph-name="quoteright" unicode="&#xac;" horiz-adv-x="1231" 
d="M1337 547l-266 -547h-39l248 510h-848l19 37h886z" />
    <glyph glyph-name="three" unicode="&#xad;" horiz-adv-x="1071" 
d="M1300 528c-2 -12 -22.332 -18 -60.999 -18h-844c-22.667 0 -32.667 6 -30 18c2 12.667 22.333 19 61 19h840c25.333 0 36.666 -6.33301 33.999 -19z" />
    <glyph glyph-name="ordfeminine" unicode="&#xae;" horiz-adv-x="1573" 
d="M1806 702c0 -204.667 -75.332 -382.332 -225.999 -532.999s-327.667 -226 -531 -226c-180.667 0 -332.334 61 -455.001 183s-184 272.667 -184 452c0 205.333 76 383.166 228 533.499s332 225.5 540 225.5c176 0 324.667 -61.5 446 -184.5s182 -273.167 182 -450.5z
M1780 698.002c0 176 -59.3311 322.499 -177.998 439.499s-267 175.5 -445 175.5c-191.333 0 -359.333 -73.333 -504 -220s-217 -317 -217 -511c0 -173.333 59.167 -319.166 177.5 -437.499s264.166 -177.5 437.499 -177.5c195.333 0 365.666 72.833 510.999 218.5
s218 316.5 218 512.5zM1593 1067c0 -3.33301 -9.3291 -6.00195 -27.9961 -8.00195c-34.667 -4 -79.667 -21.667 -135 -53c70.667 -44.667 106 -102 106 -172c0 -95.333 -69 -152.666 -207 -171.999c57.333 -31.333 86 -75.333 86 -132c0 -20 -6.66699 -58 -20 -114
c-15.333 -62 -23 -101.667 -23 -119c0 -52 24.667 -78 74 -78c35.333 0 65.333 15.667 90 47c5.33301 5.33301 8.66602 8 9.99902 8c2.66699 0 4 -2 4 -6c-2 -11.333 -16 -24 -42 -38s-48 -21 -66 -21c-36.667 0 -68.334 16.667 -95.001 50s-40 72.666 -40 117.999
c0 28 9.33301 71.667 28 131c14 42.667 21 74.667 21 96c0 22.667 -12.333 40.334 -37 53.001c-32.667 -2.66699 -54.667 -4 -66 -4c-31.333 0 -47 4.33301 -47 13c0 6.66699 11.667 10 35 10c27.333 0 53.333 -4 78 -12c98 30 147 95.333 147 196
c0 52.667 -21 94.334 -63 125.001c-106 -79.333 -186.667 -196 -242 -350c-59.333 -165.333 -130.333 -277.333 -213 -336c-64 -45.333 -128.667 -68 -194 -68c-50.667 0 -93.834 14.333 -129.501 43s-53.5 63 -53.5 103c0 25.333 7.83301 47 23.5 65s34.5 27 56.5 27
c34 0 51 -18.333 51 -55c0 -38.667 -17 -58 -51 -58c-31.333 0 -47 13.667 -47 41c0 7.33301 2.66699 18.333 8 33c1.33301 1.33301 2 3.33301 2 6c-0.666992 2.66699 -2 4 -4 4c-6 0 -12.167 -7.16699 -18.5 -21.5s-9.5 -28.166 -9.5 -41.499
c0 -36 16.833 -67.167 50.5 -93.5s73.5 -39.5 119.5 -39.5c56 0 107.667 28.667 155 86c28 33.333 78.667 131.666 152 294.999c66 146.667 176.667 270 332 370c-58.667 45.333 -127.667 68 -207 68c-116 0 -223.167 -39.167 -321.5 -117.5s-147.5 -163.5 -147.5 -255.5
c0 -78 45 -117 135 -117c30.667 0 60.667 5.66699 90 17c10.667 4 16.667 6 18 6c4 0 6.33301 -1.33301 7 -4c0 -6 -13.667 -12.333 -41 -19s-53.333 -10 -78 -10c-47.333 0 -85.5 13 -114.5 39s-43.5 60.333 -43.5 103c0 100 47.167 187.333 141.5 262
s204.833 112 331.5 112c89.333 0 174.666 -21.667 255.999 -65c79.333 39.333 133.333 59 162 59c9.33301 0 14 -2 14 -6z" />
    <glyph glyph-name="Thorn" unicode="&#xaf;" horiz-adv-x="1024" 
d="M1042 713l-6 -19h-452l6 19h452z" />
    <glyph glyph-name="Thorn" unicode="&#x2c9;" horiz-adv-x="1024" 
d="M1042 713l-6 -19h-452l6 19h452z" />
    <glyph glyph-name="yen" unicode="&#xb0;" 
d="M1184 1096c0 -48 -17.8311 -89.333 -53.498 -124s-77.834 -52 -126.501 -52c-49.333 0 -91.833 17.333 -127.5 52s-53.5 76 -53.5 124c0 49.333 17.667 91 53 125s78.666 51 129.999 51c48.667 0 90.5 -17.333 125.5 -52s52.5 -76 52.5 -124zM1151 1096
c0 40.667 -14.499 75.333 -43.499 104s-64.5 43 -106.5 43c-39.333 0 -73.333 -14.5 -102 -43.5s-43 -63.5 -43 -103.5c0 -41.333 14.333 -76.333 43 -105s63.667 -43 105 -43c39.333 0 73.666 14.667 102.999 44s44 64 44 104z" />
    <glyph glyph-name="florin" unicode="&#xb1;" horiz-adv-x="1071" 
d="M1300 528c-2 -12 -22.332 -18 -60.999 -18h-391l-168 -360c-13.333 -28.667 -24.333 -43 -33 -43c-2 0 -4 0.666992 -6 2c-12 4.66699 -11.333 21 2 49l166 352h-414c-22.667 0 -32.667 6 -30 18c2 12.667 22.333 19 61 19h399l166 356c16 34 29 49 39 45
c13.333 -4.66699 13.333 -21 0 -49l-166 -352h402c25.333 0 36.666 -6.33301 33.999 -19zM1128 18c-2 -12 -22.332 -18 -60.999 -18h-844c-22.667 0 -32.667 6 -30 18c2 12.667 22.333 19 61 19h840c25.333 0 36.666 -6.33301 33.999 -19z" />
    <glyph glyph-name="one" unicode="&#xb2;" horiz-adv-x="651" 
d="M1069 1047c0 -72.667 -43.665 -137.669 -130.998 -195.002c-44 -28.667 -129.333 -67.667 -256 -117c-109.333 -42 -194 -90.333 -254 -145c29.333 22 63.333 33 102 33c35.333 0 80.666 -9 135.999 -27c50.667 -16.667 86 -25 106 -25c77.333 0 129.333 47.333 156 142
c2 6.66699 4.66699 10 8 10c4 0 6 -2 6 -6c0 -22 -14.333 -52.667 -43 -92c-51.333 -71.333 -114.666 -107 -189.999 -107c-29.333 0 -90.333 15 -183 45c-24.667 8 -47 12 -67 12c-42.667 0 -66 -15.667 -70 -47c0 -10.667 -3.33301 -16 -10 -16
c-5.33301 0 -8 2.66699 -8 8c0 18.667 16.333 44.667 49 78c43.333 44.667 128.666 96 255.999 154c99.333 44.667 178.333 97.5 237 158.5s88 120.833 88 179.5c0 52.667 -34 79 -102 79c-71.333 0 -148.5 -35.5 -231.5 -106.5s-124.5 -137.167 -124.5 -198.5
c0 -42 26.667 -63 80 -63c44 0 92 20 144 60s89.333 85.333 112 136c1.33301 6 4 9 8 9s6 -2.33301 6 -7c0 -18.667 -17.667 -48 -53 -88c-74 -82 -145.667 -123 -215 -123c-71.333 0 -107 34.333 -107 103c0 70.667 40.5 136.834 121.5 198.501s168.167 92.5 261.5 92.5
c49.333 0 89.666 -12.667 120.999 -38s47 -57.666 47 -96.999z" />
    <glyph glyph-name="zero" unicode="&#xb3;" horiz-adv-x="651" 
d="M1026 1075c0 -94.667 -81.333 -156.667 -244 -186c94.667 -22 142 -70.667 142 -146c0 -57.333 -34.333 -107.833 -103 -151.5s-148.334 -65.5 -239.001 -65.5c-56.667 0 -103.667 11.167 -141 33.5s-56 50.833 -56 85.5c0 36.667 18.5 67.667 55.5 93
s81.833 38 134.5 38c40 0 60 -3.33301 60 -10c0 -4 -2.66699 -6 -8 -6l-17 2h-20c-46 0 -84.5 -11.833 -115.5 -35.5s-46.5 -52.834 -46.5 -87.501c0 -29.333 12 -53 36 -71s55 -27 93 -27c72.667 0 140 25.667 202 77s93 106.666 93 165.999
c0 48.667 -30.667 82.334 -92 101.001c-25.333 -5.33301 -54 -8 -86 -8h-12c-15.333 0 -23 3.33301 -23 10c0 9.33301 15.667 14 47 14c22.667 0 47.334 -2 74.001 -6c132 46.667 198 116.334 198 209.001c0 49.333 -31.333 74 -94 74c-56 0 -112.333 -19 -169 -57
s-85 -75.667 -85 -113c0 -34.667 22.667 -52 68 -52c61.333 0 120 37 176 111c2 4 5.33301 6 10 6c2.66699 -0.666992 4 -2 4 -4c0 -16 -22.333 -41.167 -67 -75.5s-87 -51.5 -127 -51.5c-56 0 -84 26 -84 78c0 44 27.667 83.333 83 118s118.333 52 189 52
c49.333 0 89 -10.5 119 -31.5s45 -48.833 45 -83.5z" />
    <glyph glyph-name="ae" unicode="&#xb4;" horiz-adv-x="1024" 
d="M1161 844c-64.667 -50.667 -147.334 -97 -248.001 -139c-77.333 -33.333 -121.666 -50 -132.999 -50c-2.66699 0 -4.66699 0.666992 -6 2c0 2 4 5 12 9c156 74 267.333 154.333 334 241z" />
    <glyph glyph-name="guillemotright" unicode="&#xb5;" horiz-adv-x="713" 
d="M897 313c-0.666992 -2 -4 -7.33105 -10 -15.998l-43 -59c-126 -174 -219.667 -261 -281 -261c-29.333 0 -54.333 11.833 -75 35.5s-31 52.167 -31 85.5c0 27.333 13 63.666 39 108.999c-95.333 -153.333 -174 -230 -236 -230c-43.333 0 -65 25.333 -65 76
c0 14 0.666992 25 2 33l-357 -639c-40 5.33301 -63 8 -69 8c-18.667 0 -38.667 -4 -60 -12l662 1092c22.667 -4.66699 41 -7 55 -7c10 0 32.667 2.33301 68 7l-238 -392c-20.667 -33.333 -31 -65.333 -31 -96c0 -36.667 14.333 -55 43 -55c63.333 0 168 125.667 314 377
l96 166c22.667 -4.66699 39.667 -7 51 -7c16.667 0 41.334 2.33301 74.001 7l-162 -261c-75.333 -120.667 -113 -200.334 -113 -239.001c0 -28.667 13.667 -43 41 -43c60 0 163.333 105.667 310 317c3.33301 6.66699 6.66602 10 9.99902 10c4 0 6 -2 6 -6z" />
    <glyph glyph-name="guillemotright" unicode="&#x3bc;" horiz-adv-x="713" 
d="M897 313c-0.666992 -2 -4 -7.33105 -10 -15.998l-43 -59c-126 -174 -219.667 -261 -281 -261c-29.333 0 -54.333 11.833 -75 35.5s-31 52.167 -31 85.5c0 27.333 13 63.666 39 108.999c-95.333 -153.333 -174 -230 -236 -230c-43.333 0 -65 25.333 -65 76
c0 14 0.666992 25 2 33l-357 -639c-40 5.33301 -63 8 -69 8c-18.667 0 -38.667 -4 -60 -12l662 1092c22.667 -4.66699 41 -7 55 -7c10 0 32.667 2.33301 68 7l-238 -392c-20.667 -33.333 -31 -65.333 -31 -96c0 -36.667 14.333 -55 43 -55c63.333 0 168 125.667 314 377
l96 166c22.667 -4.66699 39.667 -7 51 -7c16.667 0 41.334 2.33301 74.001 7l-162 -261c-75.333 -120.667 -113 -200.334 -113 -239.001c0 -28.667 13.667 -43 41 -43c60 0 163.333 105.667 310 317c3.33301 6.66699 6.66602 10 9.99902 10c4 0 6 -2 6 -6z" />
    <glyph glyph-name="pi" unicode="&#xb6;" horiz-adv-x="1694" 
d="M2464 1047c0 -38 -3.33496 -73.8311 -10.002 -107.498s-13.667 -50.5 -21 -50.5c-4 1.33301 -6 4 -6 8c0 12.667 3 35.334 9 68.001s9 58.334 9 77.001c0 82 -25.333 148.333 -76 199s-117.334 76 -200 76c-132.667 0 -261.667 -55.333 -387 -166
c-70.667 -62 -131.667 -133.833 -183 -215.5s-126.333 -225.5 -225 -431.5c-96.667 -202 -240.667 -350.333 -432 -445c-135.333 -66.667 -257.666 -100 -366.999 -100c-104 0 -187 26.667 -249 80s-93 125 -93 215c0 38.667 11.5 88.334 34.5 149.001s41.833 91 56.5 91
c4 -2 6 -5 6 -9c0 -2 -2.66699 -7.33301 -8 -16c-46.667 -74.667 -70 -146.334 -70 -215.001c0 -84.667 28.833 -152.334 86.5 -203.001s135.167 -76 232.5 -76c124.667 0 236.834 37.5 336.501 112.5s204.834 201.5 315.501 379.5
c125.333 201.333 228.333 353.166 309 455.499s168.667 192.166 264 269.499c-76.667 35.333 -149 53 -217 53c-126.667 0 -233.834 -44 -321.501 -132s-131.5 -196.333 -131.5 -325c0 -126.667 33 -190 99 -190c16.667 0 31.667 4.66699 45 14c0 1.33301 0.666992 2 2 2
c2.66699 -0.666992 4 -2 4 -4c0 -8 -13.333 -16.167 -40 -24.5s-53 -12.5 -79 -12.5c-88 0 -164.333 29.667 -229 89s-97 129.333 -97 210c0 113.333 64 209.333 192 288s284 118 468 118c116 0 223 -24.667 321 -74c124 87.333 243.667 131 359 131
c86 0 156.333 -26.833 211 -80.5s82 -122.834 82 -207.501z" />
    <glyph glyph-name="Ugrave" unicode="&#xb7;" horiz-adv-x="473" 
d="M479 270c0 -32.667 -13.332 -62.667 -39.999 -90s-56.334 -41 -89.001 -41s-49 15.667 -49 47c0 30.667 14 60.167 42 88.5s57 42.5 87 42.5c32.667 0 49 -15.667 49 -47z" />
    <glyph glyph-name="Ugrave" unicode="&#x2219;" horiz-adv-x="473" 
d="M479 270c0 -32.667 -13.332 -62.667 -39.999 -90s-56.334 -41 -89.001 -41s-49 15.667 -49 47c0 30.667 14 60.167 42 88.5s57 42.5 87 42.5c32.667 0 49 -15.667 49 -47z" />
    <glyph glyph-name="onesuperior" unicode="&#xb8;" horiz-adv-x="1024" 
d="M545 -100c0 -49.333 -28.667 -73.999 -86 -73.999c-26.667 0 -63 11.667 -109 35s-69 41.666 -69 54.999c0 4 2 6 6 6c2.66699 0 8 -2.66699 16 -8c38 -26 75 -39 111 -39c19.333 0 36 6 50 18s21 25.667 21 41c0 20.667 -13.667 46.667 -41 78l17 -4
c56 -38.667 84 -74.667 84 -108z" />
    <glyph glyph-name="period" unicode="&#xb9;" horiz-adv-x="651" 
d="M1026 1157c0 -4 -45.667 -75.667 -137 -215c-121.333 -185.333 -193.666 -322 -216.999 -410c-18.667 4.66699 -33.667 7 -45 7c-17.333 0 -40.666 -3 -69.999 -9c28.667 79.333 114.667 203.666 258 372.999c60 71.333 108.667 132 146 182
c-92.667 -97.333 -179 -179.666 -259 -246.999s-131.667 -101 -155 -101c-4.66699 0 -7.33398 2 -8.00098 6c0 4 8.66699 10.333 26 19c100.667 50 249.667 181 447 393c3.33301 5.33301 6.66602 8 9.99902 8c2.66699 -0.666992 4 -2.66699 4 -6z" />
    <glyph glyph-name="oe" unicode="&#xba;" horiz-adv-x="705" 
d="M1026 1245c0 -58.667 -24.668 -122.666 -74.001 -191.999c-65.333 -93.333 -128.666 -140 -189.999 -140c-30 0 -55.667 11.167 -77 33.5s-32 50.833 -32 85.5c0 77.333 47.333 149.666 142 216.999c55.333 40 112 60 170 60c40.667 0 61 -21.333 61 -64zM1010 1243
c0 35.333 -15.667 52.999 -47 52.999c-42 0 -93.167 -39.667 -153.5 -119s-90.5 -146.666 -90.5 -201.999c0 -30 15 -45 45 -45c56 0 113.333 43 172 129c49.333 72 74 133.333 74 184z" />
    <glyph glyph-name="currency" unicode="&#xbb;" horiz-adv-x="733" 
d="M766 262c-118 -22 -254.001 -77.3311 -408.001 -165.998c-11.333 -6.66699 -18 -10 -20 -10l-2 2c0 11.333 42.667 42.166 128 92.499s148.333 81.5 189 93.5c-61.333 54.667 -111.666 97 -150.999 127c-2.66699 3.33301 -4 5.66602 -4 6.99902
c2 0.666992 28.667 -13.333 80 -42zM542.999 262.002c-118 -22 -254.001 -77.3311 -408.001 -165.998c-11.333 -6.66699 -18 -10 -20 -10l-2 2c0 11.333 42.667 42.166 128 92.499s148.333 81.5 189 93.5c-61.333 54.667 -111.666 97 -150.999 127
c-3.33301 3.33301 -5 5.66602 -5 6.99902c2.66699 0.666992 29.667 -13.333 81 -42z" />
    <glyph glyph-name="hyphen" unicode="&#xbc;" horiz-adv-x="1367" 
d="M1026 1157c0 -4 -45.667 -75.667 -137 -215c-121.333 -185.333 -193.666 -322 -216.999 -410c-18.667 4.66699 -33.667 7 -45 7c-17.333 0 -40.666 -3 -69.999 -9c28.667 79.333 114.667 203.666 258 372.999c60 71.333 108.667 132 146 182
c-92.667 -97.333 -179 -179.666 -259 -246.999s-131.667 -101 -155 -101c-4.66699 0 -7.33398 2 -8.00098 6c0 4 8.66699 10.333 26 19c100.667 50 249.667 181 447 393c3.33301 5.33301 6.66602 8 9.99902 8c2.66699 -0.666992 4 -2.66699 4 -6zM1440 1145
c0 -38.667 -16.001 -71.668 -48.001 -99.001c-26.667 -23.333 -57.667 -38.666 -93 -45.999l-139 -160c-296 -352.667 -530.667 -660 -704 -922c-18 8 -37.667 12 -59 12c-19.333 0 -36.666 -1.33301 -51.999 -4l425 488l383 430l140 166l62 78c38 44.667 62.667 67 74 67
c7.33301 0 11 -3.33301 11 -10zM1628 698.999c0 -5.33301 -2.99902 -7.99902 -8.99902 -7.99902c-0.666992 0 -7.33398 2 -20.001 6c-16.667 2.66699 -29.667 4 -39 4c-107.333 0 -243.333 -83.333 -408 -250c-125.333 -127.333 -222.666 -210 -291.999 -248
c46 10 102 15 168 15c26.667 0 49.667 -1.33301 69 -4l144 200c64.667 87.333 104.667 146.666 120 177.999c2 5.33301 5 8.33301 9 9c4 0 6 -2 6 -6c0 -1.33301 -0.666992 -3 -2 -5l-7 -12l-16 -31l-29 -49l-41 -76c-43.333 -77.333 -81.333 -148.333 -114 -213h57
c100 0 150 31.667 150 95c0 8.66699 -3 19.334 -9 32.001c-1.33301 1.33301 -2 3.66602 -2 6.99902c0 4 2.33301 6 7 6c10.667 0 16 -15 16 -45c0 -82 -78 -123 -234 -123c-36 -79.333 -57 -140 -63 -182c-20.667 4 -36.334 6 -47.001 6c-13.333 0 -35.333 -2 -66 -6
c18.667 49.333 51.667 110 99 182c-11.333 1.33301 -31.333 3.33301 -60 6c-44.667 4 -80 6 -106 6c-18 0 -42.667 -1.33301 -74 -4c-50 -31.333 -89 -47 -117 -47c-8 0 -12 2.66699 -12 8c0 14 39.667 30.333 119 49c86.667 50 193 138 319 264
c170.667 170.667 308.667 256 414 256c46.667 0 70 -6.66699 70 -20z" />
    <glyph glyph-name="comma" unicode="&#xbd;" horiz-adv-x="1332" 
d="M1393 1145c0 -38.667 -16.001 -71.668 -48.001 -99.001c-26.667 -23.333 -57.667 -38.666 -93 -45.999l-139 -160c-296 -352.667 -530.667 -660 -704 -922c-18 8 -37.667 12 -59 12c-19.333 0 -36.666 -1.33301 -51.999 -4l425 488l383 430l140 166l62 78
c38 44.667 62.667 67 74 67c7.33301 0 11 -3.33301 11 -10zM1006 1157c0 -4 -45.667 -75.667 -137 -215c-121.333 -185.333 -193.666 -322 -216.999 -410c-18.667 4.66699 -33.667 7 -45 7c-17.333 0 -40.666 -3 -69.999 -9c28.667 79.333 114.667 203.666 258 372.999
c60 71.333 108.667 132 146 182c-92.667 -97.333 -179 -179.666 -259 -246.999s-131.667 -101 -155 -101c-4.66699 0 -7.33398 2 -8.00098 6c0 4 8.66699 10.333 26 19c100.667 50 249.667 181 447 393c3.33301 5.33301 6.66602 8 9.99902 8
c2.66699 -0.666992 4 -2.66699 4 -6zM1459 506.999c0 -72.667 -43.665 -137.669 -130.998 -195.002c-44 -28.667 -129.333 -67.667 -256 -117c-109.333 -42 -194 -90.333 -254 -145c29.333 22 63.333 33 102 33c35.333 0 80.666 -9 135.999 -27
c50.667 -16.667 86 -25 106 -25c77.333 0 129.333 47.333 156 142c2 6.66699 4.66699 10 8 10c4 0 6 -2 6 -6c0 -22 -14.333 -52.667 -43 -92c-51.333 -71.333 -114.666 -107 -189.999 -107c-29.333 0 -90.333 15 -183 45c-24.667 8 -47 12 -67 12
c-42.667 0 -66 -15.667 -70 -47c0 -10.667 -3.33301 -16 -10 -16c-5.33301 0 -8 2.66699 -8 8c0 18.667 16.333 44.667 49 78c43.333 44.667 128.666 96 255.999 154c99.333 44.667 178.333 97.5 237 158.5s88 120.833 88 179.5c0 52.667 -34 79 -102 79
c-71.333 0 -148.5 -35.5 -231.5 -106.5s-124.5 -137.167 -124.5 -198.5c0 -42 26.667 -63 80 -63c44 0 92 20 144 60s89.333 85.333 112 136c1.33301 6 4 9 8 9s6 -2.33301 6 -7c0 -18.667 -17.667 -48 -53 -88c-74 -82 -145.667 -123 -215 -123
c-71.333 0 -107 34.333 -107 103c0 70.667 40.5 136.834 121.5 198.501s168.167 92.5 261.5 92.5c49.333 0 89.666 -12.667 120.999 -38s47 -57.666 47 -96.999z" />
    <glyph glyph-name="slash" unicode="&#xbe;" horiz-adv-x="1349" 
d="M1509 1145c0 -38.667 -16.001 -71.668 -48.001 -99.001c-26.667 -23.333 -57.667 -38.666 -93 -45.999l-139 -160c-296 -352.667 -530.667 -660 -704 -922c-18 8 -37.667 12 -59 12c-19.333 0 -36.666 -1.33301 -51.999 -4l425 488l383 430l140 166l62 78
c38 44.667 62.667 67 74 67c7.33301 0 11 -3.33301 11 -10zM1036 1075c0 -94.667 -81.333 -156.667 -244 -186c94.667 -22 142 -70.667 142 -146c0 -57.333 -34.333 -107.833 -103 -151.5s-148.334 -65.5 -239.001 -65.5c-56.667 0 -103.667 11.167 -141 33.5
s-56 50.833 -56 85.5c0 36.667 18.5 67.667 55.5 93s81.833 38 134.5 38c40 0 60 -3.33301 60 -10c0 -4 -2.66699 -6 -8 -6l-17 2h-20c-46 0 -84.5 -11.833 -115.5 -35.5s-46.5 -52.834 -46.5 -87.501c0 -29.333 12 -53 36 -71s55 -27 93 -27c72.667 0 140 25.667 202 77
s93 106.666 93 165.999c0 48.667 -30.667 82.334 -92 101.001c-25.333 -5.33301 -54 -8 -86 -8h-12c-15.333 0 -23 3.33301 -23 10c0 9.33301 15.667 14 47 14c22.667 0 47.334 -2 74.001 -6c132 46.667 198 116.334 198 209.001c0 49.333 -31.333 74 -94 74
c-56 0 -112.333 -19 -169 -57s-85 -75.667 -85 -113c0 -34.667 22.667 -52 68 -52c61.333 0 120 37 176 111c2 4 5.33301 6 10 6c2.66699 -0.666992 4 -2 4 -4c0 -16 -22.333 -41.167 -67 -75.5s-87 -51.5 -127 -51.5c-56 0 -84 26 -84 78c0 44 27.667 83.333 83 118
s118.333 52 189 52c49.333 0 89 -10.5 119 -31.5s45 -48.833 45 -83.5zM1694 698.999c0 -5.33301 -2.99902 -7.99902 -8.99902 -7.99902c-0.666992 0 -7.33398 2 -20.001 6c-16.667 2.66699 -29.667 4 -39 4c-107.333 0 -243.333 -83.333 -408 -250
c-125.333 -127.333 -222.666 -210 -291.999 -248c46 10 102 15 168 15c26.667 0 49.667 -1.33301 69 -4l144 200c64.667 87.333 104.667 146.666 120 177.999c2 5.33301 5 8.33301 9 9c4 0 6 -2 6 -6c0 -1.33301 -0.666992 -3 -2 -5l-7 -12l-16 -31l-29 -49l-41 -76
c-43.333 -77.333 -81.333 -148.333 -114 -213h57c100 0 150 31.667 150 95c0 8.66699 -3 19.334 -9 32.001c-1.33301 1.33301 -2 3.66602 -2 6.99902c0 4 2.33301 6 7 6c10.667 0 16 -15 16 -45c0 -82 -78 -123 -234 -123c-36 -79.333 -57 -140 -63 -182
c-20.667 4 -36.334 6 -47.001 6c-13.333 0 -35.333 -2 -66 -6c18.667 49.333 51.667 110 99 182c-11.333 1.33301 -31.333 3.33301 -60 6c-44.667 4 -80 6 -106 6c-18 0 -42.667 -1.33301 -74 -4c-50 -31.333 -89 -47 -117 -47c-8 0 -12 2.66699 -12 8
c0 14 39.667 30.333 119 49c86.667 50 193 138 319 264c170.667 170.667 308.667 256 414 256c46.667 0 70 -6.66699 70 -20z" />
    <glyph glyph-name="quotedblright" unicode="&#xbf;" horiz-adv-x="893" 
d="M1110 1126c0 -26.667 -14.333 -53.667 -43 -81s-56.667 -41 -84 -41s-41 13.333 -41 40c0 30 13.667 58.667 41 86s55.333 41 84 41s43 -15 43 -45zM1042 426c0 -109.333 -58.334 -209.167 -175.001 -299.5s-246.667 -135.833 -390 -136.5c34 -82 90.667 -123 170 -123
c26 0 52 4.66699 78 14c5.33301 2.66699 8.66602 4 9.99902 4c4 -1.33301 6 -3.33301 6 -6c0 -5.33301 -11 -11 -33 -17s-42.333 -9 -61 -9c-85.333 0 -146.666 45.667 -183.999 137c-89.333 6 -162.166 34 -218.499 84s-84.5 111.333 -84.5 184
c0 105.333 63.333 198.333 190 279c45.333 28.667 157.333 77 336 145c184.667 70.667 277 143 277 217c0 34 -18.667 51 -56 51c-58 0 -114.667 -39.667 -170 -119c-2 -4 -4.66699 -6 -8 -6c-2.66699 0.666992 -4 2 -4 4c0 12 19 36 57 72c45.333 42.667 88.333 64 129 64
c44 0 66 -21.333 66 -64c0 -34.667 -22 -72.334 -66 -113.001c-23.333 -21.333 -99 -67.666 -227 -138.999c-281.333 -156 -422 -310.333 -422 -463c0 -112 66.333 -173.333 199 -184c-6.66699 24 -10 48.667 -10 74c0 118 47.167 230.333 141.5 337s193.833 160 298.5 160
c44 0 80.167 -14 108.5 -42s42.5 -63 42.5 -105zM1012 450.999c0 72 -40.333 108 -121 108c-95.333 0 -190.5 -53.833 -285.5 -161.5s-142.5 -215.5 -142.5 -323.5c0 -24 3.33301 -48.667 10 -74c135.333 0 261 55.333 377 166c108 102.667 162 197.667 162 285z" />
    <glyph glyph-name="fi" unicode="&#xc0;" horiz-adv-x="1860" 
d="M1786 1016c0 -7.33301 -12.332 -24.998 -36.999 -52.998c-68 -78 -132.333 -117 -193 -117c-38.667 0 -70.167 13.5 -94.5 40.5s-36.5 62.5 -36.5 106.5c0 37.333 22 97.666 66 180.999c20.667 38.667 31 70.667 31 96c0 33.333 -18.5 61.833 -55.5 85.5
s-82.167 35.5 -135.5 35.5c-152.667 0 -294.167 -58.667 -424.5 -176s-195.5 -244.333 -195.5 -381c0 -69.333 21.833 -126 65.5 -170s100.167 -66 169.5 -66c75.333 0 151.166 27.5 227.499 82.5s130.166 121.167 161.499 198.5c2 6.66699 4.66699 10 8 10
c6 0 9 -3.33301 9 -10c0 -14 -11.667 -38.833 -35 -74.5s-47.333 -65.5 -72 -89.5c-90 -88.667 -191 -133 -303 -133c-76 0 -137 23.333 -183 70s-69 108.667 -69 186c0 140.667 67.833 271 203.5 391s282.834 180 441.501 180c70 0 124.833 -17.333 164.5 -52
s59.5 -82.334 59.5 -143.001c0 -45.333 -16 -99 -48 -161c-28.667 -56.667 -43 -95 -43 -115c0 -49.333 29.333 -74 88 -74c66.667 0 135.667 49.333 207 148c6 8 11 12 15 12c5.33301 0 8 -2.66699 8 -8zM2857 1198c0 -12 -6.99902 -17.999 -20.999 -17.999
c-6 0 -28.333 4 -67 12c-71.333 14.667 -130.666 22 -178 22c-107.333 -32.667 -202.166 -96 -284.5 -190c-82.333 -94 -176.166 -246.333 -281.499 -457c-161.333 -323.333 -368 -514.333 -620 -573c52.667 -8 98.334 -12 137.001 -12c122.667 0 225.667 39.333 309 118
c80.667 76 147.667 156.667 201 242c6 9.33301 10.667 14 14 14c4 0 6.33301 -1.33301 7 -4c0 -10 -38.333 -61.667 -115 -155c-71.333 -87.333 -136.333 -147.5 -195 -180.5s-130.334 -49.5 -215.001 -49.5c-48.667 0 -108 7 -178 21c-42.667 -14 -91.667 -21 -147 -21
c-38.667 0 -58 7 -58 21c0 16 26 24 78 24c36.667 0 79 -3.33301 127 -10c103.333 24.667 181.5 65.334 234.5 122.001s155.167 210 306.5 460h-385c-163.333 -172 -289.666 -294.333 -378.999 -367c-208.667 -169.333 -405.334 -254 -590.001 -254
c-105.333 0 -194.833 24.667 -268.5 74s-110.5 109.333 -110.5 180c0 36.667 11.167 68 33.5 94s49.5 39 81.5 39c43.333 0 65 -21 65 -63c0 -22 -7.5 -40.833 -22.5 -56.5s-32.5 -23.5 -52.5 -23.5c-31.333 0 -47 15 -47 45l2 20c1.33301 2.66699 2 6.33398 2 11.001
c0 6.66699 -3 10 -9 10c-6.66699 0 -13.334 -8.33301 -20.001 -25s-10 -33.667 -10 -51c0 -65.333 34.333 -120.5 103 -165.5s153 -67.5 253 -67.5c143.333 0 301 70.333 473 211c39.333 31.333 83 72.666 131 123.999l228 234l30 31h-194l12 18
c64 0 129.667 -0.666992 197 -2c195.333 217.333 384.833 376.166 568.5 476.499s377.834 151.166 582.5 152.499c47.333 9.33301 91.666 14 132.999 14c92.667 0 139 -15 139 -45zM2540 1210c-174 -8.66699 -335.332 -58.668 -483.999 -150.001
s-320 -244.666 -514 -459.999h379c85.333 148.667 188.333 282 308.999 400c118.667 117.333 222 187.333 310 210zM2554 1446c-0.666992 -2.66699 -2.66797 -4 -6.00098 -4c-16.667 0 -38.5 24.667 -65.5 74s-47.5 101.666 -61.5 156.999l86 60
c-11.333 -32.667 -17 -65 -17 -97c0 -69.333 18.667 -128.666 56 -177.999c4.66699 -4.66699 7.33398 -8.66699 8.00098 -12z" />
    <glyph glyph-name="dotaccent" unicode="&#xc1;" horiz-adv-x="1860" 
d="M1786 1016c0 -7.33301 -12.332 -24.998 -36.999 -52.998c-68 -78 -132.333 -117 -193 -117c-38.667 0 -70.167 13.5 -94.5 40.5s-36.5 62.5 -36.5 106.5c0 37.333 22 97.666 66 180.999c20.667 38.667 31 70.667 31 96c0 33.333 -18.5 61.833 -55.5 85.5
s-82.167 35.5 -135.5 35.5c-152.667 0 -294.167 -58.667 -424.5 -176s-195.5 -244.333 -195.5 -381c0 -69.333 21.833 -126 65.5 -170s100.167 -66 169.5 -66c75.333 0 151.166 27.5 227.499 82.5s130.166 121.167 161.499 198.5c2 6.66699 4.66699 10 8 10
c6 0 9 -3.33301 9 -10c0 -14 -11.667 -38.833 -35 -74.5s-47.333 -65.5 -72 -89.5c-90 -88.667 -191 -133 -303 -133c-76 0 -137 23.333 -183 70s-69 108.667 -69 186c0 140.667 67.833 271 203.5 391s282.834 180 441.501 180c70 0 124.833 -17.333 164.5 -52
s59.5 -82.334 59.5 -143.001c0 -45.333 -16 -99 -48 -161c-28.667 -56.667 -43 -95 -43 -115c0 -49.333 29.333 -74 88 -74c66.667 0 135.667 49.333 207 148c6 8 11 12 15 12c5.33301 0 8 -2.66699 8 -8zM2857 1198c0 -12 -6.99902 -17.999 -20.999 -17.999
c-6 0 -28.333 4 -67 12c-71.333 14.667 -130.666 22 -178 22c-107.333 -32.667 -202.166 -96 -284.5 -190c-82.333 -94 -176.166 -246.333 -281.499 -457c-161.333 -323.333 -368 -514.333 -620 -573c52.667 -8 98.334 -12 137.001 -12c122.667 0 225.667 39.333 309 118
c80.667 76 147.667 156.667 201 242c6 9.33301 10.667 14 14 14c4 0 6.33301 -1.33301 7 -4c0 -10 -38.333 -61.667 -115 -155c-71.333 -87.333 -136.333 -147.5 -195 -180.5s-130.334 -49.5 -215.001 -49.5c-48.667 0 -108 7 -178 21c-42.667 -14 -91.667 -21 -147 -21
c-38.667 0 -58 7 -58 21c0 16 26 24 78 24c36.667 0 79 -3.33301 127 -10c103.333 24.667 181.5 65.334 234.5 122.001s155.167 210 306.5 460h-385c-163.333 -172 -289.666 -294.333 -378.999 -367c-208.667 -169.333 -405.334 -254 -590.001 -254
c-105.333 0 -194.833 24.667 -268.5 74s-110.5 109.333 -110.5 180c0 36.667 11.167 68 33.5 94s49.5 39 81.5 39c43.333 0 65 -21 65 -63c0 -22 -7.5 -40.833 -22.5 -56.5s-32.5 -23.5 -52.5 -23.5c-31.333 0 -47 15 -47 45l2 20c1.33301 2.66699 2 6.33398 2 11.001
c0 6.66699 -3 10 -9 10c-6.66699 0 -13.334 -8.33301 -20.001 -25s-10 -33.667 -10 -51c0 -65.333 34.333 -120.5 103 -165.5s153 -67.5 253 -67.5c143.333 0 301 70.333 473 211c39.333 31.333 83 72.666 131 123.999l228 234l30 31h-194l12 18
c64 0 129.667 -0.666992 197 -2c195.333 217.333 384.833 376.166 568.5 476.499s377.834 151.166 582.5 152.499c47.333 9.33301 91.666 14 132.999 14c92.667 0 139 -15 139 -45zM2540 1210c-174 -8.66699 -335.332 -58.668 -483.999 -150.001
s-320 -244.666 -514 -459.999h379c85.333 148.667 188.333 282 308.999 400c118.667 117.333 222 187.333 310 210zM2895 1665c-64.667 -50.667 -147.335 -97 -248.001 -139c-77.333 -33.333 -121.666 -50 -132.999 -50c-2.66699 0 -4.66699 0.666992 -6 2c0 2 4 5 12 9
c156 74 267.333 154.333 334 241z" />
    <glyph glyph-name="macron" unicode="&#xc2;" horiz-adv-x="1860" 
d="M1786 1016c0 -7.33301 -12.332 -24.998 -36.999 -52.998c-68 -78 -132.333 -117 -193 -117c-38.667 0 -70.167 13.5 -94.5 40.5s-36.5 62.5 -36.5 106.5c0 37.333 22 97.666 66 180.999c20.667 38.667 31 70.667 31 96c0 33.333 -18.5 61.833 -55.5 85.5
s-82.167 35.5 -135.5 35.5c-152.667 0 -294.167 -58.667 -424.5 -176s-195.5 -244.333 -195.5 -381c0 -69.333 21.833 -126 65.5 -170s100.167 -66 169.5 -66c75.333 0 151.166 27.5 227.499 82.5s130.166 121.167 161.499 198.5c2 6.66699 4.66699 10 8 10
c6 0 9 -3.33301 9 -10c0 -14 -11.667 -38.833 -35 -74.5s-47.333 -65.5 -72 -89.5c-90 -88.667 -191 -133 -303 -133c-76 0 -137 23.333 -183 70s-69 108.667 -69 186c0 140.667 67.833 271 203.5 391s282.834 180 441.501 180c70 0 124.833 -17.333 164.5 -52
s59.5 -82.334 59.5 -143.001c0 -45.333 -16 -99 -48 -161c-28.667 -56.667 -43 -95 -43 -115c0 -49.333 29.333 -74 88 -74c66.667 0 135.667 49.333 207 148c6 8 11 12 15 12c5.33301 0 8 -2.66699 8 -8zM2857 1198c0 -12 -6.99902 -17.999 -20.999 -17.999
c-6 0 -28.333 4 -67 12c-71.333 14.667 -130.666 22 -178 22c-107.333 -32.667 -202.166 -96 -284.5 -190c-82.333 -94 -176.166 -246.333 -281.499 -457c-161.333 -323.333 -368 -514.333 -620 -573c52.667 -8 98.334 -12 137.001 -12c122.667 0 225.667 39.333 309 118
c80.667 76 147.667 156.667 201 242c6 9.33301 10.667 14 14 14c4 0 6.33301 -1.33301 7 -4c0 -10 -38.333 -61.667 -115 -155c-71.333 -87.333 -136.333 -147.5 -195 -180.5s-130.334 -49.5 -215.001 -49.5c-48.667 0 -108 7 -178 21c-42.667 -14 -91.667 -21 -147 -21
c-38.667 0 -58 7 -58 21c0 16 26 24 78 24c36.667 0 79 -3.33301 127 -10c103.333 24.667 181.5 65.334 234.5 122.001s155.167 210 306.5 460h-385c-163.333 -172 -289.666 -294.333 -378.999 -367c-208.667 -169.333 -405.334 -254 -590.001 -254
c-105.333 0 -194.833 24.667 -268.5 74s-110.5 109.333 -110.5 180c0 36.667 11.167 68 33.5 94s49.5 39 81.5 39c43.333 0 65 -21 65 -63c0 -22 -7.5 -40.833 -22.5 -56.5s-32.5 -23.5 -52.5 -23.5c-31.333 0 -47 15 -47 45l2 20c1.33301 2.66699 2 6.33398 2 11.001
c0 6.66699 -3 10 -9 10c-6.66699 0 -13.334 -8.33301 -20.001 -25s-10 -33.667 -10 -51c0 -65.333 34.333 -120.5 103 -165.5s153 -67.5 253 -67.5c143.333 0 301 70.333 473 211c39.333 31.333 83 72.666 131 123.999l228 234l30 31h-194l12 18
c64 0 129.667 -0.666992 197 -2c195.333 217.333 384.833 376.166 568.5 476.499s377.834 151.166 582.5 152.499c47.333 9.33301 91.666 14 132.999 14c92.667 0 139 -15 139 -45zM2540 1210c-174 -8.66699 -335.332 -58.668 -483.999 -150.001
s-320 -244.666 -514 -459.999h379c85.333 148.667 188.333 282 308.999 400c118.667 117.333 222 187.333 310 210zM2689 1732c-7.33301 -84 -13.001 -165.332 -17.001 -243.999c0 -4.66699 -1.33301 -7.33398 -4 -8.00098c-2.66699 0 -4.66699 7.66699 -6 23
c-4.66699 56.667 -12 97.667 -22 123c-42.667 -28 -104 -59.667 -184 -95s-130.667 -53 -152 -53c-4 0 -6 1.33301 -6 4c0.666992 2 5.33398 4.66699 14 8c73.333 30.667 147.333 70 222 118s126.334 89.333 155.001 124z" />
    <glyph glyph-name="fl" unicode="&#xc3;" horiz-adv-x="1860" 
d="M1786 1016c0 -7.33301 -12.332 -24.998 -36.999 -52.998c-68 -78 -132.333 -117 -193 -117c-38.667 0 -70.167 13.5 -94.5 40.5s-36.5 62.5 -36.5 106.5c0 37.333 22 97.666 66 180.999c20.667 38.667 31 70.667 31 96c0 33.333 -18.5 61.833 -55.5 85.5
s-82.167 35.5 -135.5 35.5c-152.667 0 -294.167 -58.667 -424.5 -176s-195.5 -244.333 -195.5 -381c0 -69.333 21.833 -126 65.5 -170s100.167 -66 169.5 -66c75.333 0 151.166 27.5 227.499 82.5s130.166 121.167 161.499 198.5c2 6.66699 4.66699 10 8 10
c6 0 9 -3.33301 9 -10c0 -14 -11.667 -38.833 -35 -74.5s-47.333 -65.5 -72 -89.5c-90 -88.667 -191 -133 -303 -133c-76 0 -137 23.333 -183 70s-69 108.667 -69 186c0 140.667 67.833 271 203.5 391s282.834 180 441.501 180c70 0 124.833 -17.333 164.5 -52
s59.5 -82.334 59.5 -143.001c0 -45.333 -16 -99 -48 -161c-28.667 -56.667 -43 -95 -43 -115c0 -49.333 29.333 -74 88 -74c66.667 0 135.667 49.333 207 148c6 8 11 12 15 12c5.33301 0 8 -2.66699 8 -8zM2857 1198c0 -12 -6.99902 -17.999 -20.999 -17.999
c-6 0 -28.333 4 -67 12c-71.333 14.667 -130.666 22 -178 22c-107.333 -32.667 -202.166 -96 -284.5 -190c-82.333 -94 -176.166 -246.333 -281.499 -457c-161.333 -323.333 -368 -514.333 -620 -573c52.667 -8 98.334 -12 137.001 -12c122.667 0 225.667 39.333 309 118
c80.667 76 147.667 156.667 201 242c6 9.33301 10.667 14 14 14c4 0 6.33301 -1.33301 7 -4c0 -10 -38.333 -61.667 -115 -155c-71.333 -87.333 -136.333 -147.5 -195 -180.5s-130.334 -49.5 -215.001 -49.5c-48.667 0 -108 7 -178 21c-42.667 -14 -91.667 -21 -147 -21
c-38.667 0 -58 7 -58 21c0 16 26 24 78 24c36.667 0 79 -3.33301 127 -10c103.333 24.667 181.5 65.334 234.5 122.001s155.167 210 306.5 460h-385c-163.333 -172 -289.666 -294.333 -378.999 -367c-208.667 -169.333 -405.334 -254 -590.001 -254
c-105.333 0 -194.833 24.667 -268.5 74s-110.5 109.333 -110.5 180c0 36.667 11.167 68 33.5 94s49.5 39 81.5 39c43.333 0 65 -21 65 -63c0 -22 -7.5 -40.833 -22.5 -56.5s-32.5 -23.5 -52.5 -23.5c-31.333 0 -47 15 -47 45l2 20c1.33301 2.66699 2 6.33398 2 11.001
c0 6.66699 -3 10 -9 10c-6.66699 0 -13.334 -8.33301 -20.001 -25s-10 -33.667 -10 -51c0 -65.333 34.333 -120.5 103 -165.5s153 -67.5 253 -67.5c143.333 0 301 70.333 473 211c39.333 31.333 83 72.666 131 123.999l228 234l30 31h-194l12 18
c64 0 129.667 -0.666992 197 -2c195.333 217.333 384.833 376.166 568.5 476.499s377.834 151.166 582.5 152.499c47.333 9.33301 91.666 14 132.999 14c92.667 0 139 -15 139 -45zM2540 1210c-174 -8.66699 -335.332 -58.668 -483.999 -150.001
s-320 -244.666 -514 -459.999h379c85.333 148.667 188.333 282 308.999 400c118.667 117.333 222 187.333 310 210zM2790 1553c0 -9.33301 -18.499 -22.499 -55.499 -39.499s-64.833 -25.5 -83.5 -25.5c-21.333 0 -50.666 4.66699 -88 14l-20 5
c-63.333 16 -104.333 24 -123 24c-15.333 0 -34 -5 -56 -15c-6.66699 -4 -11.334 -6 -14 -6c-4 0 -6 1.33301 -6 4c0 9.33301 18.5 22.666 55.5 39.999s65.5 26 85.5 26c22.667 0 63 -7 121 -21l46 -11c28.667 -6 50.334 -9 65 -9c22 0 41.667 4.66699 59 14
c5.33301 2.66699 8.66602 4 9.99902 4c2.66699 -0.666992 4 -2 4 -4z" />
    <glyph glyph-name="igrave" unicode="&#xc4;" horiz-adv-x="1860" 
d="M1786 1016c0 -7.33301 -12.332 -24.998 -36.999 -52.998c-68 -78 -132.333 -117 -193 -117c-38.667 0 -70.167 13.5 -94.5 40.5s-36.5 62.5 -36.5 106.5c0 37.333 22 97.666 66 180.999c20.667 38.667 31 70.667 31 96c0 33.333 -18.5 61.833 -55.5 85.5
s-82.167 35.5 -135.5 35.5c-152.667 0 -294.167 -58.667 -424.5 -176s-195.5 -244.333 -195.5 -381c0 -69.333 21.833 -126 65.5 -170s100.167 -66 169.5 -66c75.333 0 151.166 27.5 227.499 82.5s130.166 121.167 161.499 198.5c2 6.66699 4.66699 10 8 10
c6 0 9 -3.33301 9 -10c0 -14 -11.667 -38.833 -35 -74.5s-47.333 -65.5 -72 -89.5c-90 -88.667 -191 -133 -303 -133c-76 0 -137 23.333 -183 70s-69 108.667 -69 186c0 140.667 67.833 271 203.5 391s282.834 180 441.501 180c70 0 124.833 -17.333 164.5 -52
s59.5 -82.334 59.5 -143.001c0 -45.333 -16 -99 -48 -161c-28.667 -56.667 -43 -95 -43 -115c0 -49.333 29.333 -74 88 -74c66.667 0 135.667 49.333 207 148c6 8 11 12 15 12c5.33301 0 8 -2.66699 8 -8zM2857 1198c0 -12 -6.99902 -17.999 -20.999 -17.999
c-6 0 -28.333 4 -67 12c-71.333 14.667 -130.666 22 -178 22c-107.333 -32.667 -202.166 -96 -284.5 -190c-82.333 -94 -176.166 -246.333 -281.499 -457c-161.333 -323.333 -368 -514.333 -620 -573c52.667 -8 98.334 -12 137.001 -12c122.667 0 225.667 39.333 309 118
c80.667 76 147.667 156.667 201 242c6 9.33301 10.667 14 14 14c4 0 6.33301 -1.33301 7 -4c0 -10 -38.333 -61.667 -115 -155c-71.333 -87.333 -136.333 -147.5 -195 -180.5s-130.334 -49.5 -215.001 -49.5c-48.667 0 -108 7 -178 21c-42.667 -14 -91.667 -21 -147 -21
c-38.667 0 -58 7 -58 21c0 16 26 24 78 24c36.667 0 79 -3.33301 127 -10c103.333 24.667 181.5 65.334 234.5 122.001s155.167 210 306.5 460h-385c-163.333 -172 -289.666 -294.333 -378.999 -367c-208.667 -169.333 -405.334 -254 -590.001 -254
c-105.333 0 -194.833 24.667 -268.5 74s-110.5 109.333 -110.5 180c0 36.667 11.167 68 33.5 94s49.5 39 81.5 39c43.333 0 65 -21 65 -63c0 -22 -7.5 -40.833 -22.5 -56.5s-32.5 -23.5 -52.5 -23.5c-31.333 0 -47 15 -47 45l2 20c1.33301 2.66699 2 6.33398 2 11.001
c0 6.66699 -3 10 -9 10c-6.66699 0 -13.334 -8.33301 -20.001 -25s-10 -33.667 -10 -51c0 -65.333 34.333 -120.5 103 -165.5s153 -67.5 253 -67.5c143.333 0 301 70.333 473 211c39.333 31.333 83 72.666 131 123.999l228 234l30 31h-194l12 18
c64 0 129.667 -0.666992 197 -2c195.333 217.333 384.833 376.166 568.5 476.499s377.834 151.166 582.5 152.499c47.333 9.33301 91.666 14 132.999 14c92.667 0 139 -15 139 -45zM2540 1210c-174 -8.66699 -335.332 -58.668 -483.999 -150.001
s-320 -244.666 -514 -459.999h379c85.333 148.667 188.333 282 308.999 400c118.667 117.333 222 187.333 310 210zM2710 1565c0 -24.667 -9 -46.833 -27 -66.5s-38.333 -29.5 -61 -29.5c-32.667 0 -49 15 -49 45c0 22.667 9.83301 43.667 29.5 63s41.167 29 64.5 29
c28.667 0 43 -13.667 43 -41zM2540 1565c0 -24.667 -9 -46.834 -27 -66.501s-38.333 -29.5 -61 -29.5c-32.667 0 -49 15.667 -49 47c0 22.667 9.83301 43.334 29.5 62.001s41.167 28 64.5 28c28.667 0 43 -13.667 43 -41z" />
    <glyph glyph-name="icircumflex" unicode="&#xc5;" horiz-adv-x="1860" 
d="M1786 1016c0 -7.33301 -12.332 -24.998 -36.999 -52.998c-68 -78 -132.333 -117 -193 -117c-38.667 0 -70.167 13.5 -94.5 40.5s-36.5 62.5 -36.5 106.5c0 37.333 22 97.666 66 180.999c20.667 38.667 31 70.667 31 96c0 33.333 -18.5 61.833 -55.5 85.5
s-82.167 35.5 -135.5 35.5c-152.667 0 -294.167 -58.667 -424.5 -176s-195.5 -244.333 -195.5 -381c0 -69.333 21.833 -126 65.5 -170s100.167 -66 169.5 -66c75.333 0 151.166 27.5 227.499 82.5s130.166 121.167 161.499 198.5c2 6.66699 4.66699 10 8 10
c6 0 9 -3.33301 9 -10c0 -14 -11.667 -38.833 -35 -74.5s-47.333 -65.5 -72 -89.5c-90 -88.667 -191 -133 -303 -133c-76 0 -137 23.333 -183 70s-69 108.667 -69 186c0 140.667 67.833 271 203.5 391s282.834 180 441.501 180c70 0 124.833 -17.333 164.5 -52
s59.5 -82.334 59.5 -143.001c0 -45.333 -16 -99 -48 -161c-28.667 -56.667 -43 -95 -43 -115c0 -49.333 29.333 -74 88 -74c66.667 0 135.667 49.333 207 148c6 8 11 12 15 12c5.33301 0 8 -2.66699 8 -8zM2857 1198c0 -12 -6.99902 -17.999 -20.999 -17.999
c-6 0 -28.333 4 -67 12c-71.333 14.667 -130.666 22 -178 22c-107.333 -32.667 -202.166 -96 -284.5 -190c-82.333 -94 -176.166 -246.333 -281.499 -457c-161.333 -323.333 -368 -514.333 -620 -573c52.667 -8 98.334 -12 137.001 -12c122.667 0 225.667 39.333 309 118
c80.667 76 147.667 156.667 201 242c6 9.33301 10.667 14 14 14c4 0 6.33301 -1.33301 7 -4c0 -10 -38.333 -61.667 -115 -155c-71.333 -87.333 -136.333 -147.5 -195 -180.5s-130.334 -49.5 -215.001 -49.5c-48.667 0 -108 7 -178 21c-42.667 -14 -91.667 -21 -147 -21
c-38.667 0 -58 7 -58 21c0 16 26 24 78 24c36.667 0 79 -3.33301 127 -10c103.333 24.667 181.5 65.334 234.5 122.001s155.167 210 306.5 460h-385c-163.333 -172 -289.666 -294.333 -378.999 -367c-208.667 -169.333 -405.334 -254 -590.001 -254
c-105.333 0 -194.833 24.667 -268.5 74s-110.5 109.333 -110.5 180c0 36.667 11.167 68 33.5 94s49.5 39 81.5 39c43.333 0 65 -21 65 -63c0 -22 -7.5 -40.833 -22.5 -56.5s-32.5 -23.5 -52.5 -23.5c-31.333 0 -47 15 -47 45l2 20c1.33301 2.66699 2 6.33398 2 11.001
c0 6.66699 -3 10 -9 10c-6.66699 0 -13.334 -8.33301 -20.001 -25s-10 -33.667 -10 -51c0 -65.333 34.333 -120.5 103 -165.5s153 -67.5 253 -67.5c143.333 0 301 70.333 473 211c39.333 31.333 83 72.666 131 123.999l228 234l30 31h-194l12 18
c64 0 129.667 -0.666992 197 -2c195.333 217.333 384.833 376.166 568.5 476.499s377.834 151.166 582.5 152.499c47.333 9.33301 91.666 14 132.999 14c92.667 0 139 -15 139 -45zM2540 1210c-174 -8.66699 -335.332 -58.668 -483.999 -150.001
s-320 -244.666 -514 -459.999h379c85.333 148.667 188.333 282 308.999 400c118.667 117.333 222 187.333 310 210zM2736 1544c0 -40 -16.834 -78.333 -50.501 -115s-69.5 -55 -107.5 -55s-57 19 -57 57c0 40 17.333 78 52 114s71.334 54 110.001 54
c35.333 0 53 -18.333 53 -55zM2716 1548c0 22 -10.333 33 -31 33c-26.667 0 -56.834 -18.5 -90.5 -55.5c-33.667 -37 -50.5 -70.5 -50.5 -100.5c0 -22 9.33301 -33 28 -33c28 0 59 18.5 93 55.5s51 70.5 51 100.5z" />
    <glyph glyph-name="exclamdown" unicode="&#xc6;" horiz-adv-x="2644" 
d="M1753 1016c0 -6.66699 -12.3311 -24.332 -36.998 -52.999c-66 -78 -130 -117 -192 -117c-39.333 0 -71 13.5 -95 40.5s-36 62.5 -36 106.5c0 40 22.333 100.333 67 181c20.667 36 31 68 31 96c0 33.333 -18.5 61.833 -55.5 85.5s-82.167 35.5 -135.5 35.5
c-153.333 0 -295.333 -58.667 -426 -176s-196 -244.333 -196 -381c0 -70 22 -126.833 66 -170.5s100.333 -65.5 169 -65.5c76.667 0 153.167 27.5 229.5 82.5s130.5 121.167 162.5 198.5c1.33301 6.66699 4 10 8 10c5.33301 0 8 -3.33301 8 -10
c0 -14.667 -11.5 -39.667 -34.5 -75s-47.167 -65 -72.5 -89c-91.333 -88.667 -193 -133 -305 -133c-74.667 0 -135.334 23.5 -182.001 70.5s-70 108.167 -70 183.5c0 142 67.667 273 203 393s283.666 180 444.999 180c69.333 0 123.833 -17.333 163.5 -52
s59.5 -82.334 59.5 -143.001c0 -48 -15.667 -101.667 -47 -161c-30 -56.667 -45 -95 -45 -115c0 -49.333 29.333 -74 88 -74c65.333 0 134.333 49.333 207 148c4 8 8.66699 12 14 12s8 -2.66699 8 -8zM3045 1120c0 -44.667 -41.002 -66.998 -123.002 -66.998
c-60 0 -155.333 15.667 -286 47c-13.333 2.66699 -57 13.667 -131 33c-20.667 5.33301 -34.334 9.33301 -41.001 12c-113.333 -65.333 -170 -146.666 -170 -243.999c0 -48.667 16.333 -82 49 -100c42.667 4 76 6 100 6c74 0 111 -8.33301 111 -25
c0 -10.667 -15.667 -16 -47 -16c-58 0 -111.333 7.33301 -160 22c-63.333 -8.66699 -135.833 -31.167 -217.5 -67.5s-151.167 -76.5 -208.5 -120.5h174l-10 -16h-184c-126 -106 -189 -220.667 -189 -344c0 -127.333 69 -208.666 207 -243.999
c-24.667 39.333 -37 85.666 -37 138.999c0 133.333 66.833 255.166 200.5 365.499s281.167 165.5 442.5 165.5c72 0 129.667 -18 173 -54s65 -83.667 65 -143c0 -131.333 -71.333 -249.166 -214 -353.499s-303.667 -156.5 -483 -156.5c-36 0 -69.333 2 -100 6
c58.667 -86 154.334 -129 287.001 -129c74 0 136.667 11.667 188 35l13 2c4 -1.33301 6 -4 6 -8c0 -9.33301 -24.5 -19.166 -73.5 -29.499s-94.167 -15.5 -135.5 -15.5c-143.333 0 -250 50.333 -320 151c-98.667 19.333 -177.5 57.333 -236.5 114s-88.5 122.667 -88.5 198
c0 103.333 52.333 203.666 157 300.999h-237c-201.333 -219.333 -377.666 -377.333 -528.999 -474s-296.666 -145 -435.999 -145c-107.333 0 -198 24.667 -272 74s-111 109.333 -111 180c0 36.667 11.167 68 33.5 94s49.5 39 81.5 39c43.333 0 65 -21 65 -63
c0 -21.333 -7.33301 -39.666 -22 -54.999s-32.334 -23 -53.001 -23c-31.333 0 -47 15 -47 45c0 9.33301 0.666992 15.666 2 18.999s2 7.33301 2 12c0 6.66699 -3 10 -9 10c-6.66699 0 -13.334 -8.33301 -20.001 -25s-10 -33.667 -10 -51
c0 -66.667 33.833 -122.834 101.5 -168.501s150.5 -68.5 248.5 -68.5c168.667 0 344.667 84.667 528 254c66.667 61.333 179.334 176.666 338.001 345.999c-78 0 -142.667 -0.666992 -194 -2l14 20c62.667 0 128.334 -0.666992 197.001 -2
c195.333 223.333 355 379.166 479 467.499s245.333 132.5 364 132.5c30.667 0 73.667 -6 129 -18c93.333 42 197.333 63 312 63c90 0 167 -12.167 231 -36.5s96 -53.833 96 -88.5zM3025 1122c0 26 -27.5 49 -82.5 69s-118.167 30 -189.5 30
c-95.333 0 -184.333 -21.333 -267 -64c180 -57.333 327.667 -86 443 -86c64 0 96 17 96 51zM2384 1171c-49.333 8.66699 -84.332 13 -104.999 13c-97.333 0 -192.333 -36.667 -285 -110s-243.334 -231.333 -452.001 -474h242c128 102.667 307.333 169 538 199
c-73.333 30 -110 79 -110 147c0 89.333 57.333 164.333 172 225zM2744 477.004c0 48.667 -19 88.5 -57 119.5s-86.333 46.5 -145 46.5c-143.333 0 -283 -59.667 -419 -179s-204 -242 -204 -368c0 -36.667 11 -72.667 33 -108c34 -7.33301 68 -11 102 -11
c160 0 315 54.5 465 163.5s225 221.167 225 336.5z" />
    <glyph glyph-name="idieresis" unicode="&#xc7;" horiz-adv-x="1632" 
d="M1917 1110c0 -43.333 -29.999 -88.333 -89.999 -135c54.667 -80.667 82 -155 82 -223c0 -16.667 -5 -25 -15 -25c-8 0 -12 11 -12 33c0 66.667 -23.333 134.334 -70 203.001c-96.667 -72 -228.167 -134.167 -394.5 -186.5s-313.833 -78.5 -442.5 -78.5
c-18 0 -33.667 0.666992 -47 2c-106.667 -148.667 -160 -292 -160 -430c0 -94 29.167 -168.333 87.5 -223s137.833 -82 238.5 -82c190 0 359.333 91 508 273c90 110 135 214.333 135 313c0 52 -15.667 93.333 -47 124s-73 46 -125 46
c-83.333 0 -172.833 -43.833 -268.5 -131.5s-143.5 -169.5 -143.5 -245.5c0 -6.66699 2 -10 6 -10c3.33301 0.666992 6 2 8 4c18 16 34.667 24 50 24c34 0 51 -18.333 51 -55c0 -49.333 -24 -74 -72 -74c-44 0 -66 26.667 -66 80c0 95.333 48.333 189.833 145 283.5
s194.667 140.5 294 140.5c128 0 192 -70.333 192 -211c0 -145.333 -69.5 -277.833 -208.5 -397.5s-293.167 -179.5 -462.5 -179.5c-118 0 -217.167 39.667 -297.5 119s-120.5 177.333 -120.5 294c0 113.333 39.667 229.666 119 348.999
c-288.667 53.333 -433 167.333 -433 342c0 104 53.667 191 161 261s241 105 401 105c223.333 0 449 -74.333 677 -223c39.333 8 79.666 12 120.999 12c132.667 0 199 -32.667 199 -98zM1901 1110c0 54.667 -53.333 82.001 -160 82.001c-33.333 0 -73 -4.66699 -119 -14
c79.333 -54.667 145 -118.334 197 -191.001c54.667 46.667 82 87.667 82 123zM1804 977.001c-51.333 74 -120.332 139.667 -206.999 197c-124.667 -34 -246.334 -92.5 -365.001 -175.5s-216 -177.5 -292 -283.5c139.333 0 293.5 25.5 462.5 76.5
s302.833 112.833 401.5 185.5zM1569 1192c-202.667 117.333 -418.333 176 -647 176c-141.333 0 -264.833 -33.333 -370.5 -100s-158.5 -144.667 -158.5 -234c0 -159.333 135.333 -262.333 406 -309c168 234 424.667 389.667 770 467zM1087 -143.999
c0 -49.333 -28.667 -73.999 -86 -73.999c-26.667 0 -63 11.667 -109 35s-69 41.666 -69 54.999c0 4 2 6 6 6c2.66699 0 8 -2.66699 16 -8c38 -26 75 -39 111 -39c19.333 0 36 6 50 18s21 25.667 21 41c0 20.667 -13.667 46.667 -41 78l17 -4c56 -38.667 84 -74.667 84 -108z
" />
    <glyph glyph-name="cedilla" unicode="&#xc8;" horiz-adv-x="1722" 
d="M2124 1120c0 -44.667 -40.9961 -66.999 -122.996 -66.999c-64.667 0 -218.334 30 -461.001 90c-113.333 -64.667 -170 -146 -170 -244c0 -47.333 16.333 -80 49 -98c47.333 4 83 6 107 6c69.333 0 104 -8.33301 104 -25c0 -10.667 -18.333 -16 -55 -16
c-46.667 0 -97.334 6.66699 -152.001 20c-74 -10.667 -160 -39.334 -258 -86.001c-249.333 -119.333 -374 -274 -374 -464c0 -126 68 -206 204 -240c-24.667 40.667 -37 87.667 -37 141c0 131.333 67 252.333 201 363s280.667 166 440 166c73.333 0 131.666 -18 174.999 -54
s65 -84.333 65 -145c0 -130 -71.333 -247.167 -214 -351.5s-303.334 -156.5 -482.001 -156.5c-36 0 -69.667 2 -101 6c64 -86 159 -129 285 -129c78 0 141.667 11.667 191 35l12 2c4 -1.33301 6 -4 6 -8c0 -9.33301 -24.667 -19.166 -74 -29.499s-94.333 -15.5 -135 -15.5
c-139.333 0 -245.666 50.333 -318.999 151c-102 22.667 -181.833 61.167 -239.5 115.5s-86.5 117.5 -86.5 189.5c0 96.667 40 187.167 120 271.5s186.667 148.166 320 191.499c80.667 26.667 173 46 277 58c-74 31.333 -111 81 -111 149c0 87.333 54 160.333 162 219
c-154.667 37.333 -282.334 56 -383.001 56c-197.333 0 -365.5 -49.333 -504.5 -148s-208.5 -218 -208.5 -358c0 -62.667 18.333 -116.334 55 -161.001s80.667 -67 132 -67c35.333 0 53 5.66699 53 17c0 6 -6.33301 8 -19 6c-35.333 0 -53 16.333 -53 49
c0 18.667 7.83301 34.667 23.5 48s34.5 20 56.5 20c42.667 0 64 -20.667 64 -62c0 -27.333 -12.167 -50.5 -36.5 -69.5s-53.833 -28.5 -88.5 -28.5c-62 0 -114.833 27.833 -158.5 83.5s-65.5 122.834 -65.5 201.501c0 118 51.333 226.333 154 325
c122 117.333 293.333 176 514 176c122.667 0 286 -25 490 -75c92 44.667 199 67 321 67c90.667 0 168 -12.167 232 -36.5s96 -53.833 96 -88.5zM2103 1122c0 26 -27.501 49 -82.501 69s-118.167 30 -189.5 30c-98 0 -187.333 -21.333 -268 -64
c176.667 -57.333 325.334 -86 446.001 -86c62.667 0 94 17 94 51zM1821 475.001c0 48 -19.001 87.667 -57.001 119s-86 47 -144 47c-143.333 0 -283.333 -59.5 -420 -178.5s-205 -240.5 -205 -364.5c0 -36 11 -72.667 33 -110c38.667 -7.33301 74.334 -11 107.001 -11
c157.333 0 311 54.5 461 163.5s225 220.5 225 334.5zM1900 1451c-0.666992 -2.66699 -2.66797 -4 -6.00098 -4c-16.667 0 -38.5 24.667 -65.5 74s-47.5 101.666 -61.5 156.999l86 60c-11.333 -32.667 -17 -65 -17 -97c0 -69.333 18.667 -128.666 56 -177.999
c4.66699 -4.66699 7.33398 -8.66699 8.00098 -12z" />
    <glyph glyph-name="ntilde" unicode="&#xc9;" horiz-adv-x="1722" 
d="M2124 1120c0 -44.667 -40.9961 -66.999 -122.996 -66.999c-64.667 0 -218.334 30 -461.001 90c-113.333 -64.667 -170 -146 -170 -244c0 -47.333 16.333 -80 49 -98c47.333 4 83 6 107 6c69.333 0 104 -8.33301 104 -25c0 -10.667 -18.333 -16 -55 -16
c-46.667 0 -97.334 6.66699 -152.001 20c-74 -10.667 -160 -39.334 -258 -86.001c-249.333 -119.333 -374 -274 -374 -464c0 -126 68 -206 204 -240c-24.667 40.667 -37 87.667 -37 141c0 131.333 67 252.333 201 363s280.667 166 440 166c73.333 0 131.666 -18 174.999 -54
s65 -84.333 65 -145c0 -130 -71.333 -247.167 -214 -351.5s-303.334 -156.5 -482.001 -156.5c-36 0 -69.667 2 -101 6c64 -86 159 -129 285 -129c78 0 141.667 11.667 191 35l12 2c4 -1.33301 6 -4 6 -8c0 -9.33301 -24.667 -19.166 -74 -29.499s-94.333 -15.5 -135 -15.5
c-139.333 0 -245.666 50.333 -318.999 151c-102 22.667 -181.833 61.167 -239.5 115.5s-86.5 117.5 -86.5 189.5c0 96.667 40 187.167 120 271.5s186.667 148.166 320 191.499c80.667 26.667 173 46 277 58c-74 31.333 -111 81 -111 149c0 87.333 54 160.333 162 219
c-154.667 37.333 -282.334 56 -383.001 56c-197.333 0 -365.5 -49.333 -504.5 -148s-208.5 -218 -208.5 -358c0 -62.667 18.333 -116.334 55 -161.001s80.667 -67 132 -67c35.333 0 53 5.66699 53 17c0 6 -6.33301 8 -19 6c-35.333 0 -53 16.333 -53 49
c0 18.667 7.83301 34.667 23.5 48s34.5 20 56.5 20c42.667 0 64 -20.667 64 -62c0 -27.333 -12.167 -50.5 -36.5 -69.5s-53.833 -28.5 -88.5 -28.5c-62 0 -114.833 27.833 -158.5 83.5s-65.5 122.834 -65.5 201.501c0 118 51.333 226.333 154 325
c122 117.333 293.333 176 514 176c122.667 0 286 -25 490 -75c92 44.667 199 67 321 67c90.667 0 168 -12.167 232 -36.5s96 -53.833 96 -88.5zM2103 1122c0 26 -27.501 49 -82.501 69s-118.167 30 -189.5 30c-98 0 -187.333 -21.333 -268 -64
c176.667 -57.333 325.334 -86 446.001 -86c62.667 0 94 17 94 51zM1821 475.001c0 48 -19.001 87.667 -57.001 119s-86 47 -144 47c-143.333 0 -283.333 -59.5 -420 -178.5s-205 -240.5 -205 -364.5c0 -36 11 -72.667 33 -110c38.667 -7.33301 74.334 -11 107.001 -11
c157.333 0 311 54.5 461 163.5s225 220.5 225 334.5zM2280 1660c-64.667 -50.667 -147.334 -97 -248.001 -139c-77.333 -33.333 -121.666 -50 -132.999 -50c-2.66699 0 -4.66699 0.666992 -6 2c0 2 4 5 12 9c156 74 267.333 154.333 334 241z" />
    <glyph glyph-name="breve" unicode="&#xca;" horiz-adv-x="1722" 
d="M2134 1736c-7.33301 -84 -13.001 -165.332 -17.001 -243.999c0 -4.66699 -1.33301 -7.33398 -4 -8.00098c-2.66699 0 -4.66699 7.66699 -6 23c-4.66699 56.667 -12 97.667 -22 123c-42.667 -28 -104 -59.667 -184 -95s-130.667 -53 -152 -53c-4 0 -6 1.33301 -6 4
c0.666992 2 5.33398 4.66699 14.001 8c73.333 30.667 147.333 70 222 118s126.334 89.333 155 124zM2124 1120c0 -44.667 -40.9961 -66.999 -122.996 -66.999c-64.667 0 -218.334 30 -461.001 90c-113.333 -64.667 -170 -146 -170 -244c0 -47.333 16.333 -80 49 -98
c47.333 4 83 6 107 6c69.333 0 104 -8.33301 104 -25c0 -10.667 -18.333 -16 -55 -16c-46.667 0 -97.334 6.66699 -152.001 20c-74 -10.667 -160 -39.334 -258 -86.001c-249.333 -119.333 -374 -274 -374 -464c0 -126 68 -206 204 -240c-24.667 40.667 -37 87.667 -37 141
c0 131.333 67 252.333 201 363s280.667 166 440 166c73.333 0 131.666 -18 174.999 -54s65 -84.333 65 -145c0 -130 -71.333 -247.167 -214 -351.5s-303.334 -156.5 -482.001 -156.5c-36 0 -69.667 2 -101 6c64 -86 159 -129 285 -129c78 0 141.667 11.667 191 35l12 2
c4 -1.33301 6 -4 6 -8c0 -9.33301 -24.667 -19.166 -74 -29.499s-94.333 -15.5 -135 -15.5c-139.333 0 -245.666 50.333 -318.999 151c-102 22.667 -181.833 61.167 -239.5 115.5s-86.5 117.5 -86.5 189.5c0 96.667 40 187.167 120 271.5s186.667 148.166 320 191.499
c80.667 26.667 173 46 277 58c-74 31.333 -111 81 -111 149c0 87.333 54 160.333 162 219c-154.667 37.333 -282.334 56 -383.001 56c-197.333 0 -365.5 -49.333 -504.5 -148s-208.5 -218 -208.5 -358c0 -62.667 18.333 -116.334 55 -161.001s80.667 -67 132 -67
c35.333 0 53 5.66699 53 17c0 6 -6.33301 8 -19 6c-35.333 0 -53 16.333 -53 49c0 18.667 7.83301 34.667 23.5 48s34.5 20 56.5 20c42.667 0 64 -20.667 64 -62c0 -27.333 -12.167 -50.5 -36.5 -69.5s-53.833 -28.5 -88.5 -28.5c-62 0 -114.833 27.833 -158.5 83.5
s-65.5 122.834 -65.5 201.501c0 118 51.333 226.333 154 325c122 117.333 293.333 176 514 176c122.667 0 286 -25 490 -75c92 44.667 199 67 321 67c90.667 0 168 -12.167 232 -36.5s96 -53.833 96 -88.5zM2103 1122c0 26 -27.501 49 -82.501 69s-118.167 30 -189.5 30
c-98 0 -187.333 -21.333 -268 -64c176.667 -57.333 325.334 -86 446.001 -86c62.667 0 94 17 94 51zM1821 475.002c0 48 -19.001 87.667 -57.001 119s-86 47 -144 47c-143.333 0 -283.333 -59.5 -420 -178.5s-205 -240.5 -205 -364.5c0 -36 11 -72.667 33 -110
c38.667 -7.33301 74.334 -11 107.001 -11c157.333 0 311 54.5 461 163.5s225 220.5 225 334.5z" />
    <glyph glyph-name="ring" unicode="&#xcb;" horiz-adv-x="1722" 
d="M2057 1563c0 -24.667 -9 -46.833 -27 -66.5s-38.333 -29.5 -61 -29.5c-32.667 0 -49 15 -49 45c0 22.667 9.83301 43.667 29.5 63s41.167 29 64.5 29c28.667 0 43 -13.667 43 -41zM1887 1563c0 -24.667 -9 -46.834 -27 -66.501s-38.333 -29.5 -61 -29.5
c-32.667 0 -49 15.667 -49 47c0 22.667 9.83301 43.334 29.5 62.001s41.167 28 64.5 28c28.667 0 43 -13.667 43 -41zM2124 1120c0 -44.667 -40.9961 -66.999 -122.996 -66.999c-64.667 0 -218.334 30 -461.001 90c-113.333 -64.667 -170 -146 -170 -244
c0 -47.333 16.333 -80 49 -98c47.333 4 83 6 107 6c69.333 0 104 -8.33301 104 -25c0 -10.667 -18.333 -16 -55 -16c-46.667 0 -97.334 6.66699 -152.001 20c-74 -10.667 -160 -39.334 -258 -86.001c-249.333 -119.333 -374 -274 -374 -464c0 -126 68 -206 204 -240
c-24.667 40.667 -37 87.667 -37 141c0 131.333 67 252.333 201 363s280.667 166 440 166c73.333 0 131.666 -18 174.999 -54s65 -84.333 65 -145c0 -130 -71.333 -247.167 -214 -351.5s-303.334 -156.5 -482.001 -156.5c-36 0 -69.667 2 -101 6c64 -86 159 -129 285 -129
c78 0 141.667 11.667 191 35l12 2c4 -1.33301 6 -4 6 -8c0 -9.33301 -24.667 -19.166 -74 -29.499s-94.333 -15.5 -135 -15.5c-139.333 0 -245.666 50.333 -318.999 151c-102 22.667 -181.833 61.167 -239.5 115.5s-86.5 117.5 -86.5 189.5c0 96.667 40 187.167 120 271.5
s186.667 148.166 320 191.499c80.667 26.667 173 46 277 58c-74 31.333 -111 81 -111 149c0 87.333 54 160.333 162 219c-154.667 37.333 -282.334 56 -383.001 56c-197.333 0 -365.5 -49.333 -504.5 -148s-208.5 -218 -208.5 -358c0 -62.667 18.333 -116.334 55 -161.001
s80.667 -67 132 -67c35.333 0 53 5.66699 53 17c0 6 -6.33301 8 -19 6c-35.333 0 -53 16.333 -53 49c0 18.667 7.83301 34.667 23.5 48s34.5 20 56.5 20c42.667 0 64 -20.667 64 -62c0 -27.333 -12.167 -50.5 -36.5 -69.5s-53.833 -28.5 -88.5 -28.5
c-62 0 -114.833 27.833 -158.5 83.5s-65.5 122.834 -65.5 201.501c0 118 51.333 226.333 154 325c122 117.333 293.333 176 514 176c122.667 0 286 -25 490 -75c92 44.667 199 67 321 67c90.667 0 168 -12.167 232 -36.5s96 -53.833 96 -88.5zM2103 1122
c0 26 -27.501 49 -82.501 69s-118.167 30 -189.5 30c-98 0 -187.333 -21.333 -268 -64c176.667 -57.333 325.334 -86 446.001 -86c62.667 0 94 17 94 51zM1821 475.002c0 48 -19.001 87.667 -57.001 119s-86 47 -144 47c-143.333 0 -283.333 -59.5 -420 -178.5
s-205 -240.5 -205 -364.5c0 -36 11 -72.667 33 -110c38.667 -7.33301 74.334 -11 107.001 -11c157.333 0 311 54.5 461 163.5s225 220.5 225 334.5z" />
    <glyph glyph-name="Lslash" unicode="&#xcc;" horiz-adv-x="1307" 
d="M2083 1323c0 -11.333 -27.5029 -29.166 -82.5029 -53.499s-117.833 -46.166 -188.5 -65.499c-166 -118.667 -330.333 -330.334 -493 -635.001l-16 -30c8 -1.33301 17.333 -2 28 -2c81.333 0 156.333 25 225 75s110.334 110.333 125.001 181
c2.66699 10.667 6.33398 16 11.001 16c4 0 6 -2.66699 6 -8c0 -40.667 -22 -87 -66 -139c-78.667 -94.667 -180.334 -142 -305.001 -142c-12 0 -23.667 0.666992 -35 2l-28 -55c-48.667 -93.333 -91.667 -162.666 -129 -207.999c-34.667 -42.667 -82 -85.334 -142 -128.001
c-167.333 -118.667 -338.666 -178 -513.999 -178c-98 0 -178.833 20.667 -242.5 62s-95.5 94.333 -95.5 159c0 34.667 9.83301 64.167 29.5 88.5s43.5 36.5 71.5 36.5c43.333 0 65 -22.667 65 -68c0 -22 -7.16699 -40.667 -21.5 -56s-31.833 -23 -52.5 -23
c-31.333 0 -47 15 -47 45v20c0 6 -2 9.33301 -6 10c-12 0 -18 -17 -18 -51c0 -57.333 28 -105.5 84 -144.5s125.667 -58.5 209 -58.5c200.667 0 381.334 100.333 542.001 301c47.333 59.333 111 151 191 275c-113.333 49.333 -170 129 -170 239
c0 133.333 75 232.333 225 297c76 33.333 195.667 63.666 359 90.999l110 18l94 20c36 26.667 82.833 53.167 140.5 79.5s97.5 39.5 119.5 39.5c11.333 0 17 -3.33301 17 -10zM1782 1196c-15.333 -3.33301 -38 -8.66699 -68 -16c-24.667 -6.66699 -60.667 -15.667 -108 -27
c-162.667 -38.667 -292.167 -95.5 -388.5 -170.5s-144.5 -156.167 -144.5 -243.5c0 -84 41 -143.333 123 -178c176.667 282 372 493.667 586 635zM1808 1447c-0.666992 -2.66699 -2.66797 -4 -6.00098 -4c-16.667 0 -38.5 24.667 -65.5 74s-47.5 101.666 -61.5 156.999
l86 60c-11.333 -32.667 -17 -65 -17 -97c0 -69.333 18.667 -128.666 56 -177.999c4.66699 -4.66699 7.33398 -8.66699 8.00098 -12z" />
    <glyph glyph-name="hungarumlaut" unicode="&#xcd;" horiz-adv-x="1307" 
d="M2083 1323c0 -11.333 -27.5029 -29.166 -82.5029 -53.499s-117.833 -46.166 -188.5 -65.499c-166 -118.667 -330.333 -330.334 -493 -635.001l-16 -30c8 -1.33301 17.333 -2 28 -2c81.333 0 156.333 25 225 75s110.334 110.333 125.001 181
c2.66699 10.667 6.33398 16 11.001 16c4 0 6 -2.66699 6 -8c0 -40.667 -22 -87 -66 -139c-78.667 -94.667 -180.334 -142 -305.001 -142c-12 0 -23.667 0.666992 -35 2l-28 -55c-48.667 -93.333 -91.667 -162.666 -129 -207.999c-34.667 -42.667 -82 -85.334 -142 -128.001
c-167.333 -118.667 -338.666 -178 -513.999 -178c-98 0 -178.833 20.667 -242.5 62s-95.5 94.333 -95.5 159c0 34.667 9.83301 64.167 29.5 88.5s43.5 36.5 71.5 36.5c43.333 0 65 -22.667 65 -68c0 -22 -7.16699 -40.667 -21.5 -56s-31.833 -23 -52.5 -23
c-31.333 0 -47 15 -47 45v20c0 6 -2 9.33301 -6 10c-12 0 -18 -17 -18 -51c0 -57.333 28 -105.5 84 -144.5s125.667 -58.5 209 -58.5c200.667 0 381.334 100.333 542.001 301c47.333 59.333 111 151 191 275c-113.333 49.333 -170 129 -170 239
c0 133.333 75 232.333 225 297c76 33.333 195.667 63.666 359 90.999l110 18l94 20c36 26.667 82.833 53.167 140.5 79.5s97.5 39.5 119.5 39.5c11.333 0 17 -3.33301 17 -10zM1782 1196c-15.333 -3.33301 -38 -8.66699 -68 -16c-24.667 -6.66699 -60.667 -15.667 -108 -27
c-162.667 -38.667 -292.167 -95.5 -388.5 -170.5s-144.5 -156.167 -144.5 -243.5c0 -84 41 -143.333 123 -178c176.667 282 372 493.667 586 635zM2230 1670c-64.667 -50.667 -147.335 -97 -248.001 -139c-77.333 -33.333 -121.666 -50 -132.999 -50
c-2.66699 0 -4.66699 0.666992 -6 2c0 2 4 5 12 9c156 74 267.333 154.333 334 241z" />
    <glyph glyph-name="ogonek" unicode="&#xce;" horiz-adv-x="1307" 
d="M2083 1323c0 -11.333 -27.5029 -29.166 -82.5029 -53.499s-117.833 -46.166 -188.5 -65.499c-166 -118.667 -330.333 -330.334 -493 -635.001l-16 -30c8 -1.33301 17.333 -2 28 -2c81.333 0 156.333 25 225 75s110.334 110.333 125.001 181
c2.66699 10.667 6.33398 16 11.001 16c4 0 6 -2.66699 6 -8c0 -40.667 -22 -87 -66 -139c-78.667 -94.667 -180.334 -142 -305.001 -142c-12 0 -23.667 0.666992 -35 2l-28 -55c-48.667 -93.333 -91.667 -162.666 -129 -207.999c-34.667 -42.667 -82 -85.334 -142 -128.001
c-167.333 -118.667 -338.666 -178 -513.999 -178c-98 0 -178.833 20.667 -242.5 62s-95.5 94.333 -95.5 159c0 34.667 9.83301 64.167 29.5 88.5s43.5 36.5 71.5 36.5c43.333 0 65 -22.667 65 -68c0 -22 -7.16699 -40.667 -21.5 -56s-31.833 -23 -52.5 -23
c-31.333 0 -47 15 -47 45v20c0 6 -2 9.33301 -6 10c-12 0 -18 -17 -18 -51c0 -57.333 28 -105.5 84 -144.5s125.667 -58.5 209 -58.5c200.667 0 381.334 100.333 542.001 301c47.333 59.333 111 151 191 275c-113.333 49.333 -170 129 -170 239
c0 133.333 75 232.333 225 297c76 33.333 195.667 63.666 359 90.999l110 18l94 20c36 26.667 82.833 53.167 140.5 79.5s97.5 39.5 119.5 39.5c11.333 0 17 -3.33301 17 -10zM1782 1196c-15.333 -3.33301 -38 -8.66699 -68 -16c-24.667 -6.66699 -60.667 -15.667 -108 -27
c-162.667 -38.667 -292.167 -95.5 -388.5 -170.5s-144.5 -156.167 -144.5 -243.5c0 -84 41 -143.333 123 -178c176.667 282 372 493.667 586 635zM1927 1732c-7.33301 -84 -13.002 -165.332 -17.002 -243.999c0 -4.66699 -1.33301 -7.33398 -4 -8.00098
c-2.66699 0 -4.66699 7.66699 -6 23c-4.66699 56.667 -12 97.667 -22 123c-42.667 -28 -104 -59.667 -184 -95s-130.667 -53 -152 -53c-4 0 -6 1.33301 -6 4c0.666992 2 5.33398 4.66699 14.001 8c73.333 30.667 147.333 70 222 118s126.334 89.333 155.001 124z" />
    <glyph glyph-name="caron" unicode="&#xcf;" horiz-adv-x="1307" 
d="M2083 1323c0 -11.333 -27.5029 -29.166 -82.5029 -53.499s-117.833 -46.166 -188.5 -65.499c-166 -118.667 -330.333 -330.334 -493 -635.001l-16 -30c8 -1.33301 17.333 -2 28 -2c81.333 0 156.333 25 225 75s110.334 110.333 125.001 181
c2.66699 10.667 6.33398 16 11.001 16c4 0 6 -2.66699 6 -8c0 -40.667 -22 -87 -66 -139c-78.667 -94.667 -180.334 -142 -305.001 -142c-12 0 -23.667 0.666992 -35 2l-28 -55c-48.667 -93.333 -91.667 -162.666 -129 -207.999c-34.667 -42.667 -82 -85.334 -142 -128.001
c-167.333 -118.667 -338.666 -178 -513.999 -178c-98 0 -178.833 20.667 -242.5 62s-95.5 94.333 -95.5 159c0 34.667 9.83301 64.167 29.5 88.5s43.5 36.5 71.5 36.5c43.333 0 65 -22.667 65 -68c0 -22 -7.16699 -40.667 -21.5 -56s-31.833 -23 -52.5 -23
c-31.333 0 -47 15 -47 45v20c0 6 -2 9.33301 -6 10c-12 0 -18 -17 -18 -51c0 -57.333 28 -105.5 84 -144.5s125.667 -58.5 209 -58.5c200.667 0 381.334 100.333 542.001 301c47.333 59.333 111 151 191 275c-113.333 49.333 -170 129 -170 239
c0 133.333 75 232.333 225 297c76 33.333 195.667 63.666 359 90.999l110 18l94 20c36 26.667 82.833 53.167 140.5 79.5s97.5 39.5 119.5 39.5c11.333 0 17 -3.33301 17 -10zM1782 1196c-15.333 -3.33301 -38 -8.66699 -68 -16c-24.667 -6.66699 -60.667 -15.667 -108 -27
c-162.667 -38.667 -292.167 -95.5 -388.5 -170.5s-144.5 -156.167 -144.5 -243.5c0 -84 41 -143.333 123 -178c176.667 282 372 493.667 586 635zM1965 1559c0 -24.667 -9 -46.833 -27 -66.5s-38.333 -29.5 -61 -29.5c-32.667 0 -49 15 -49 45
c0 22.667 9.83301 43.667 29.5 63s41.167 29 64.5 29c28.667 0 43 -13.667 43 -41zM1795 1559c0 -24.667 -9 -46.834 -27 -66.501s-38.333 -29.5 -61 -29.5c-32.667 0 -49 15.667 -49 47c0 22.667 9.83301 43.334 29.5 62.001s41.167 28 64.5 28c28.667 0 43 -13.667 43 -41
z" />
    <glyph glyph-name="exclam" unicode="&#xd0;" horiz-adv-x="1735" 
d="M2568 1028c0 -34 -3.99707 -69.835 -11.9971 -107.502s-15.667 -56.5 -23 -56.5c-4 0 -6 2 -6 6c0 4.66699 0.666992 9 2 13c15.333 40.667 23 88.334 23 143.001c0 84 -25.5 151.5 -76.5 202.5s-118.5 76.5 -202.5 76.5c-164.667 0 -321 -77.333 -469 -232
c57.333 -106.667 86 -218.667 86 -336c0 -218.667 -83.833 -404 -251.5 -556s-372.5 -228 -614.5 -228c-74.667 0 -177 10.333 -307 31c-112.667 -20.667 -220.667 -31 -324 -31c-176 0 -264 17.667 -264 53c0 17.333 21.5 32.666 64.5 45.999s93.167 20 150.5 20
c69.333 0 207.333 -22.667 414 -68c130.667 34 234.5 86 311.5 156s177.167 203 300.5 399h-164l6 19h170c132.667 214 261 380.333 385 499c-96.667 164 -254.334 246 -473.001 246c-225.333 0 -432 -88.667 -620 -266c-94.667 -89.333 -170.334 -188 -227.001 -296
s-85 -207.333 -85 -298c0 -72 22.833 -129.667 68.5 -173s106.167 -65 181.5 -65c127.333 0 259.5 68.5 396.5 205.5s205.5 269.167 205.5 396.5c0 47.333 -13.333 85.833 -40 115.5s-61.667 44.5 -105 44.5c-49.333 0 -74 -8.66699 -74 -26c0 -4.66699 3.66699 -7 11 -7h10
c2.66699 1.33301 7.33398 2 14.001 2c32.667 0 49 -15 49 -45c0 -22 -8.33301 -41.167 -25 -57.5s-36.334 -24.5 -59.001 -24.5c-40.667 0 -61 22 -61 66c0 30.667 13.333 56.834 40 78.501s59 32.5 97 32.5c48.667 0 88.167 -16.167 118.5 -48.5s45.5 -74.5 45.5 -126.5
c0 -134.667 -70.167 -272.334 -210.5 -413.001s-277.833 -211 -412.5 -211c-92.667 0 -169 30.833 -229 92.5s-90 140.834 -90 237.501c0 206.667 102.333 392.334 307 557.001s436 247 694 247c219.333 0 384.666 -81 495.999 -243c164.667 150 330 225 496 225
c84.667 0 152.834 -27.167 204.5 -81.5c51.667 -54.333 77.5 -125.5 77.5 -213.5zM1835 810.998c0 82.667 -17.667 162.668 -53 240.001c-80 -90.667 -174.333 -248.334 -283 -473.001h193l-6 -19h-197c-70.667 -154.667 -159.167 -274.834 -265.5 -360.501
s-250.5 -153.167 -432.5 -202.5c84.667 -18 174.667 -27 270 -27c255.333 0 462 123 620 369c102.667 158.667 154 316.334 154 473.001zM682.003 -10.001c-184 26 -321.333 39 -412 39c-80 0 -120 -7.66699 -120 -23c0 -23.333 87.333 -35 262 -35
c100 0 190 6.33301 270 19z" />
    <glyph glyph-name="oacute" unicode="&#xd1;" horiz-adv-x="1784" 
d="M3097 985c0 -56 -6.33301 -84.0029 -19 -84.0029c-5.33301 0 -8 2 -8 6c0 7.33301 1.33301 19 4 35s4 28.333 4 37c0 92 -32.667 167.5 -98 226.5s-148.666 88.5 -250 88.5c-200.667 0 -402.667 -130.333 -606 -391c-64 -81.333 -188.333 -277.333 -373 -588
c-53.333 -90 -108.166 -170.167 -164.499 -240.5s-93.5 -105.5 -111.5 -105.5c-10 0 -15 5 -15 15c0 12.667 15 26.334 45 41.001c58.667 27.333 88 95.333 88 204c0 20.667 -1.33301 55 -4 103c-6.66699 118.667 -10 221 -10 307c0 143.333 13.833 261.166 41.5 353.499
s73.834 173.833 138.501 244.5c1.33301 2 2.66602 4.66699 3.99902 8c-20.667 2.66699 -66.334 -39.666 -137.001 -126.999c-37.333 -46 -70.833 -93.667 -100.5 -143s-106.834 -186.666 -231.501 -411.999c-106.667 -192.667 -231 -341.5 -373 -446.5
s-290 -157.5 -444 -157.5c-86.667 0 -158.167 19.333 -214.5 58s-84.5 88.334 -84.5 149.001c0 34.667 10 63.834 30 87.501s45 35.5 75 35.5c43.333 0 65 -21.333 65 -64c0 -22 -7 -40.833 -21 -56.5s-31 -23.5 -51 -23.5c-32.667 0 -49 18 -49 54
c0 13.333 -2.66699 20 -8 20c-10.667 0 -16 -18.333 -16 -55c0 -54.667 26.167 -99.5 78.5 -134.5s118.833 -52.5 199.5 -52.5c154.667 0 298.167 58.333 430.5 175s283.833 318.667 454.5 606c139.333 234 250.666 387.667 333.999 461c57.333 50 94 75 110 75
c2.66699 -0.666992 4.33398 -2 5.00098 -4c0 -1.33301 -4.33301 -7.33301 -13 -18c-42 -56.667 -68.5 -116.834 -79.5 -180.501s-18.5 -199.5 -22.5 -407.5c-5.33301 -254 -36.666 -435.667 -93.999 -545c-1.33301 0 -2 -1.33301 -2 -4l2 -2c12 0 113 167.333 303 502
c138.667 244.667 272.5 421.5 401.5 530.5s268.167 163.5 417.5 163.5c106.667 0 194.834 -32.5 264.5 -97.5c69.667 -65 104.5 -147.167 104.5 -246.5zM1495 1055c0 -14.667 -19 -43.333 -57 -86c-57.333 -64.667 -112.666 -97 -165.999 -97
c-36.667 0 -67.667 13.5 -93 40.5s-38 60.167 -38 99.5c0 38 13.667 83.667 41 137c34 66.667 51 113.667 51 141c0 34 -16 61.333 -48 82s-74 31 -126 31c-148.667 0 -288.334 -60 -419.001 -180s-196 -247.667 -196 -383c0 -70 21.5 -127.167 64.5 -171.5
s98.167 -66.5 165.5 -66.5c60 0 120.833 17.167 182.5 51.5s111.5 78.5 149.5 132.5c2.66699 3.33301 4.66699 5 6 5c5.33301 0 8 -3 8 -9c0 -13.333 -21.333 -39 -64 -77c-88 -79.333 -183.333 -119 -286 -119c-72 0 -130.667 23.333 -176 70s-68 107.334 -68 182.001
c0 144.667 66.833 277.667 200.5 399s279.834 182 438.501 182c65.333 0 116.5 -16.333 153.5 -49s55.5 -77.667 55.5 -135c0 -42.667 -21.333 -107.667 -64 -195c-14.667 -30.667 -22 -55 -22 -73c0 -50.667 27.333 -76 82 -76c32.667 0 69.167 15.667 109.5 47
s72.833 69.666 97.5 114.999c3.33301 6.66699 6.66602 10 9.99902 10c5.33301 0 8 -2.66699 8 -8zM2451 1548c0 -9.33301 -18.5 -22.499 -55.5 -39.499s-64.833 -25.5 -83.5 -25.5c-21.333 0 -50.666 4.66699 -87.999 14l-20 5c-63.333 16 -104.333 24 -123 24
c-15.333 0 -34 -5 -56 -15c-6.66699 -4 -11.334 -6 -14.001 -6c-4 0 -6 1.33301 -6 4c0 9.33301 18.5 22.666 55.5 39.999s65.5 26 85.5 26c22.667 0 63 -7 121 -21l46 -11c28.667 -6 50.334 -9 65 -9c22 0 41.667 4.66699 59 14c5.33301 2.66699 8.66602 4 10 4
c2.66699 -0.666992 4 -2 4 -4z" />
    <glyph glyph-name="Zcaron" unicode="&#xd2;" horiz-adv-x="1624" 
d="M1858 799c0 -102 -28.668 -205.832 -86.001 -311.499s-136.666 -201.167 -237.999 -286.5c-97.333 -82.667 -201.833 -148.167 -313.5 -196.5s-214.167 -72.5 -307.5 -72.5c-122.667 0 -222.167 41.667 -298.5 125s-114.5 192 -114.5 326c0 122.667 38 247.667 114 375
s178.667 237 308 329c92 66.667 195.5 120.667 310.5 162s218.833 62 311.5 62c92 0 165.5 -22.333 220.5 -67s82.5 -104.334 82.5 -179.001c0 -30.667 -5.33301 -67 -16 -109c18 -52.667 27 -105 27 -157zM1831 1063c0 67.333 -23.6709 121.664 -71.0039 162.997
s-109.666 62 -186.999 62c-153.333 0 -308.333 -51 -465 -153c-150 -98 -273 -223.667 -369 -377c-100.667 -158.667 -151 -315.667 -151 -471c0 -98.667 29.167 -179 87.5 -241s133.5 -93 225.5 -93c186.667 0 374.334 96 563.001 288s293.334 393 314.001 603
c-22.667 -40 -63.167 -87.167 -121.5 -141.5s-97.833 -81.5 -118.5 -81.5c-5.33301 0 -8 2.66699 -8 8c0 3.33301 5.33301 8 16 14c108 60 186 139.333 234 238c0 83.333 -24.333 149.5 -73 198.5s-114.667 73.5 -198 73.5c-154.667 0 -313.5 -82.5 -476.5 -247.5
s-244.5 -326.167 -244.5 -483.5c0 -62.667 14.667 -113.5 44 -152.5s68 -58.5 116 -58.5c22.667 0 45.834 6.66699 69.501 20s35.5 26.333 35.5 39c-0.666992 4 -2 6 -4 6l-9 -4c-8 -8 -21 -12 -39 -12c-31.333 0 -47 18.333 -47 55c0 22.667 7.66699 41.667 23 57
s33.666 23 54.999 23c42.667 0 64 -23.667 64 -71c0 -35.333 -15.167 -66 -45.5 -92s-65.833 -39 -106.5 -39c-57.333 0 -105.166 23.5 -143.499 70.5s-57.5 105.833 -57.5 176.5c0 162.667 84.833 324.834 254.5 486.501s339.5 242.5 509.5 242.5
c72.667 0 137.667 -17.167 195 -51.5s96.333 -79.166 117 -134.499c8 26.667 12 53.334 12 80.001zM1744 1446c-0.666992 -2.66699 -2.66797 -4 -6.00098 -4c-16.667 0 -38.5 24.667 -65.5 74s-47.5 101.666 -61.5 156.999l86 60c-11.333 -32.667 -17 -65 -17 -97
c0 -69.333 18.667 -128.666 56 -177.999c4.66699 -4.66699 7.33398 -8.66699 8.00098 -12z" />
    <glyph glyph-name="lslash" unicode="&#xd3;" horiz-adv-x="1624" 
d="M1954 1665c-64.667 -50.667 -147.334 -97 -248.001 -139c-77.333 -33.333 -121.666 -50 -132.999 -50c-2.66699 0 -4.66699 0.666992 -6 2c0 2 4 5 12 9c156 74 267.333 154.333 334 241zM1858 799c0 -102 -28.668 -205.832 -86.001 -311.499
s-136.666 -201.167 -237.999 -286.5c-97.333 -82.667 -201.833 -148.167 -313.5 -196.5s-214.167 -72.5 -307.5 -72.5c-122.667 0 -222.167 41.667 -298.5 125s-114.5 192 -114.5 326c0 122.667 38 247.667 114 375s178.667 237 308 329c92 66.667 195.5 120.667 310.5 162
s218.833 62 311.5 62c92 0 165.5 -22.333 220.5 -67s82.5 -104.334 82.5 -179.001c0 -30.667 -5.33301 -67 -16 -109c18 -52.667 27 -105 27 -157zM1831 1063c0 67.333 -23.6709 121.664 -71.0039 162.997s-109.666 62 -186.999 62c-153.333 0 -308.333 -51 -465 -153
c-150 -98 -273 -223.667 -369 -377c-100.667 -158.667 -151 -315.667 -151 -471c0 -98.667 29.167 -179 87.5 -241s133.5 -93 225.5 -93c186.667 0 374.334 96 563.001 288s293.334 393 314.001 603c-22.667 -40 -63.167 -87.167 -121.5 -141.5s-97.833 -81.5 -118.5 -81.5
c-5.33301 0 -8 2.66699 -8 8c0 3.33301 5.33301 8 16 14c108 60 186 139.333 234 238c0 83.333 -24.333 149.5 -73 198.5s-114.667 73.5 -198 73.5c-154.667 0 -313.5 -82.5 -476.5 -247.5s-244.5 -326.167 -244.5 -483.5c0 -62.667 14.667 -113.5 44 -152.5
s68 -58.5 116 -58.5c22.667 0 45.834 6.66699 69.501 20s35.5 26.333 35.5 39c-0.666992 4 -2 6 -4 6l-9 -4c-8 -8 -21 -12 -39 -12c-31.333 0 -47 18.333 -47 55c0 22.667 7.66699 41.667 23 57s33.666 23 54.999 23c42.667 0 64 -23.667 64 -71
c0 -35.333 -15.167 -66 -45.5 -92s-65.833 -39 -106.5 -39c-57.333 0 -105.166 23.5 -143.499 70.5s-57.5 105.833 -57.5 176.5c0 162.667 84.833 324.834 254.5 486.501s339.5 242.5 509.5 242.5c72.667 0 137.667 -17.167 195 -51.5s96.333 -79.166 117 -134.499
c8 26.667 12 53.334 12 80.001z" />
    <glyph glyph-name="Scaron" unicode="&#xd4;" horiz-adv-x="1624" 
d="M1858 799c0 -102 -28.668 -205.832 -86.001 -311.499s-136.666 -201.167 -237.999 -286.5c-97.333 -82.667 -201.833 -148.167 -313.5 -196.5s-214.167 -72.5 -307.5 -72.5c-122.667 0 -222.167 41.667 -298.5 125s-114.5 192 -114.5 326c0 122.667 38 247.667 114 375
s178.667 237 308 329c92 66.667 195.5 120.667 310.5 162s218.833 62 311.5 62c92 0 165.5 -22.333 220.5 -67s82.5 -104.334 82.5 -179.001c0 -30.667 -5.33301 -67 -16 -109c18 -52.667 27 -105 27 -157zM1831 1063c0 67.333 -23.6709 121.664 -71.0039 162.997
s-109.666 62 -186.999 62c-153.333 0 -308.333 -51 -465 -153c-150 -98 -273 -223.667 -369 -377c-100.667 -158.667 -151 -315.667 -151 -471c0 -98.667 29.167 -179 87.5 -241s133.5 -93 225.5 -93c186.667 0 374.334 96 563.001 288s293.334 393 314.001 603
c-22.667 -40 -63.167 -87.167 -121.5 -141.5s-97.833 -81.5 -118.5 -81.5c-5.33301 0 -8 2.66699 -8 8c0 3.33301 5.33301 8 16 14c108 60 186 139.333 234 238c0 83.333 -24.333 149.5 -73 198.5s-114.667 73.5 -198 73.5c-154.667 0 -313.5 -82.5 -476.5 -247.5
s-244.5 -326.167 -244.5 -483.5c0 -62.667 14.667 -113.5 44 -152.5s68 -58.5 116 -58.5c22.667 0 45.834 6.66699 69.501 20s35.5 26.333 35.5 39c-0.666992 4 -2 6 -4 6l-9 -4c-8 -8 -21 -12 -39 -12c-31.333 0 -47 18.333 -47 55c0 22.667 7.66699 41.667 23 57
s33.666 23 54.999 23c42.667 0 64 -23.667 64 -71c0 -35.333 -15.167 -66 -45.5 -92s-65.833 -39 -106.5 -39c-57.333 0 -105.166 23.5 -143.499 70.5s-57.5 105.833 -57.5 176.5c0 162.667 84.833 324.834 254.5 486.501s339.5 242.5 509.5 242.5
c72.667 0 137.667 -17.167 195 -51.5s96.333 -79.166 117 -134.499c8 26.667 12 53.334 12 80.001zM1840 1732c-7.33301 -84 -13.002 -165.332 -17.002 -243.999c0 -4.66699 -1.33301 -7.33398 -4 -8.00098c-2.66699 0 -4.66699 7.66699 -6 23
c-4.66699 56.667 -12 97.667 -22 123c-42.667 -28 -104 -59.667 -184 -95s-130.667 -53 -152 -53c-4 0 -6 1.33301 -6 4c0.666992 2 5.33398 4.66699 14.001 8c73.333 30.667 147.333 70 222 118s126.334 89.333 155.001 124z" />
    <glyph glyph-name="daggerdbl" unicode="&#xd5;" horiz-adv-x="1624" 
d="M1858 799c0 -102 -28.668 -205.832 -86.001 -311.499s-136.666 -201.167 -237.999 -286.5c-97.333 -82.667 -201.833 -148.167 -313.5 -196.5s-214.167 -72.5 -307.5 -72.5c-122.667 0 -222.167 41.667 -298.5 125s-114.5 192 -114.5 326c0 122.667 38 247.667 114 375
s178.667 237 308 329c92 66.667 195.5 120.667 310.5 162s218.833 62 311.5 62c92 0 165.5 -22.333 220.5 -67s82.5 -104.334 82.5 -179.001c0 -30.667 -5.33301 -67 -16 -109c18 -52.667 27 -105 27 -157zM1831 1063c0 67.333 -23.6709 121.664 -71.0039 162.997
s-109.666 62 -186.999 62c-153.333 0 -308.333 -51 -465 -153c-150 -98 -273 -223.667 -369 -377c-100.667 -158.667 -151 -315.667 -151 -471c0 -98.667 29.167 -179 87.5 -241s133.5 -93 225.5 -93c186.667 0 374.334 96 563.001 288s293.334 393 314.001 603
c-22.667 -40 -63.167 -87.167 -121.5 -141.5s-97.833 -81.5 -118.5 -81.5c-5.33301 0 -8 2.66699 -8 8c0 3.33301 5.33301 8 16 14c108 60 186 139.333 234 238c0 83.333 -24.333 149.5 -73 198.5s-114.667 73.5 -198 73.5c-154.667 0 -313.5 -82.5 -476.5 -247.5
s-244.5 -326.167 -244.5 -483.5c0 -62.667 14.667 -113.5 44 -152.5s68 -58.5 116 -58.5c22.667 0 45.834 6.66699 69.501 20s35.5 26.333 35.5 39c-0.666992 4 -2 6 -4 6l-9 -4c-8 -8 -21 -12 -39 -12c-31.333 0 -47 18.333 -47 55c0 22.667 7.66699 41.667 23 57
s33.666 23 54.999 23c42.667 0 64 -23.667 64 -71c0 -35.333 -15.167 -66 -45.5 -92s-65.833 -39 -106.5 -39c-57.333 0 -105.166 23.5 -143.499 70.5s-57.5 105.833 -57.5 176.5c0 162.667 84.833 324.834 254.5 486.501s339.5 242.5 509.5 242.5
c72.667 0 137.667 -17.167 195 -51.5s96.333 -79.166 117 -134.499c8 26.667 12 53.334 12 80.001zM1951 1553c0 -9.33301 -18.5 -22.499 -55.5 -39.499s-64.833 -25.5 -83.5 -25.5c-21.333 0 -50.666 4.66699 -87.999 14l-20 5c-63.333 16 -104.333 24 -123 24
c-15.333 0 -34 -5 -56 -15c-6.66699 -4 -11.334 -6 -14.001 -6c-4 0 -6 1.33301 -6 4c0 9.33301 18.5 22.666 55.5 39.999s65.5 26 85.5 26c22.667 0 63 -7 121 -21l46 -11c28.667 -6 50.334 -9 65.001 -9c22 0 41.667 4.66699 59 14c5.33301 2.66699 8.66602 4 9.99902 4
c2.66699 -0.666992 4 -2 4 -4z" />
    <glyph glyph-name="ograve" unicode="&#xd6;" horiz-adv-x="1624" 
d="M1858 799c0 -102 -28.668 -205.832 -86.001 -311.499s-136.666 -201.167 -237.999 -286.5c-97.333 -82.667 -201.833 -148.167 -313.5 -196.5s-214.167 -72.5 -307.5 -72.5c-122.667 0 -222.167 41.667 -298.5 125s-114.5 192 -114.5 326c0 122.667 38 247.667 114 375
s178.667 237 308 329c92 66.667 195.5 120.667 310.5 162s218.833 62 311.5 62c92 0 165.5 -22.333 220.5 -67s82.5 -104.334 82.5 -179.001c0 -30.667 -5.33301 -67 -16 -109c18 -52.667 27 -105 27 -157zM1831 1063c0 67.333 -23.6709 121.664 -71.0039 162.997
s-109.666 62 -186.999 62c-153.333 0 -308.333 -51 -465 -153c-150 -98 -273 -223.667 -369 -377c-100.667 -158.667 -151 -315.667 -151 -471c0 -98.667 29.167 -179 87.5 -241s133.5 -93 225.5 -93c186.667 0 374.334 96 563.001 288s293.334 393 314.001 603
c-22.667 -40 -63.167 -87.167 -121.5 -141.5s-97.833 -81.5 -118.5 -81.5c-5.33301 0 -8 2.66699 -8 8c0 3.33301 5.33301 8 16 14c108 60 186 139.333 234 238c0 83.333 -24.333 149.5 -73 198.5s-114.667 73.5 -198 73.5c-154.667 0 -313.5 -82.5 -476.5 -247.5
s-244.5 -326.167 -244.5 -483.5c0 -62.667 14.667 -113.5 44 -152.5s68 -58.5 116 -58.5c22.667 0 45.834 6.66699 69.501 20s35.5 26.333 35.5 39c-0.666992 4 -2 6 -4 6l-9 -4c-8 -8 -21 -12 -39 -12c-31.333 0 -47 18.333 -47 55c0 22.667 7.66699 41.667 23 57
s33.666 23 54.999 23c42.667 0 64 -23.667 64 -71c0 -35.333 -15.167 -66 -45.5 -92s-65.833 -39 -106.5 -39c-57.333 0 -105.166 23.5 -143.499 70.5s-57.5 105.833 -57.5 176.5c0 162.667 84.833 324.834 254.5 486.501s339.5 242.5 509.5 242.5
c72.667 0 137.667 -17.167 195 -51.5s96.333 -79.166 117 -134.499c8 26.667 12 53.334 12 80.001zM1863 1565c0 -24.667 -9 -46.833 -27 -66.5s-38.333 -29.5 -61 -29.5c-32.667 0 -49 15 -49 45c0 22.667 9.83301 43.667 29.5 63s41.167 29 64.5 29
c28.667 0 43 -13.667 43 -41zM1693 1565c0 -24.667 -9 -46.834 -27 -66.501s-38.333 -29.5 -61 -29.5c-32.667 0 -49 15.667 -49 47c0 22.667 9.83301 43.334 29.5 62.001s41.167 28 64.5 28c28.667 0 43 -13.667 43 -41z" />
    <glyph glyph-name="scedilla" unicode="&#xd7;" horiz-adv-x="1071" 
d="M1214 885c12.667 -8 8.66797 -20.998 -11.999 -38.998l-364 -328l157 -340c10.667 -22.667 16 -38 16 -46c0 -8.66699 -4 -14.334 -12 -17.001c-12 -4.66699 -24.667 9 -38 41l-154 333l-387 -348c-20 -17.333 -34.333 -26 -43 -26s-13 5.33301 -13 16
c0 9.33301 7.66699 21 23 35l404 360l-136 291c-9.33301 20.667 -14 34.667 -14 42c0 8.66699 4 14.667 12 18c11.333 3.33301 20.333 -2.33398 27 -17.001l141 -305l344 307c23.333 21.333 39.666 29 48.999 23z" />
    <glyph glyph-name="logicalnot" unicode="&#xd8;" horiz-adv-x="1624" 
d="M1858 799c0 -102 -28.667 -205.833 -86 -311.5s-136.666 -201.167 -237.999 -286.5c-97.333 -82.667 -201.833 -148.167 -313.5 -196.5s-214.167 -72.5 -307.5 -72.5c-47.333 0 -96.333 7.66699 -147 23l-113 -162h-32l120 172c-160.667 80.667 -241 220 -241 418
c0 124 38 249.333 114 376s178.667 236 308 328c93.333 67.333 197.166 121.5 311.499 162.5s217.833 61.5 310.5 61.5c43.333 0 85 -5.66699 125 -17l137 193h33l-141 -203c99.333 -46.667 149 -119 149 -217c0 -30 -5.33301 -67 -16 -111c18 -52.667 27 -105 27 -157z
M1831 1063c0 95.333 -47.666 164.332 -142.999 206.999l-80 -113c47.333 -11.333 90.666 -33.333 129.999 -66s66.333 -68.667 81 -108c8 26.667 12 53.334 12 80.001zM1569 1147c-28.667 4 -48 6.00195 -58 6.00195c-150 0 -305.5 -81.333 -466.5 -244
s-241.5 -320.334 -241.5 -473.001c0 -106.667 37.333 -180.334 112 -221.001zM1780 881.001c2 138.667 -59.002 225.333 -183.002 260l-657 -938c34.667 -10 64 -15 88 -15c40 0 77.333 8.5 112 25.5s52 35.167 52 54.5c0 5.33301 -2 8 -6 8
c-0.666992 -0.666992 -2.66699 -2 -6 -4c-11.333 -8 -23.666 -12 -36.999 -12c-31.333 0 -47 18.333 -47 55c0 53.333 26 80 78 80c40.667 0 61 -23 61 -69c0 -42 -20 -78.167 -60 -108.5s-87.667 -45.5 -143 -45.5c-30 0 -64 5.33301 -102 16l-150 -215
c43.333 -13.333 83.666 -20 120.999 -20c186.667 0 374.334 96 563.001 288s293.334 393 314.001 603c-22.667 -40 -63.167 -87.167 -121.5 -141.5s-97.833 -81.5 -118.5 -81.5c-5.33301 0 -8 2.66699 -8 8c0 3.33301 5.33301 8 16 14c108 60 186 139.333 234 238z
M1661 1280c-37.333 6.66699 -68 10 -92 10c-151.333 0 -305 -51.333 -461 -154c-150 -98.667 -273 -224.667 -369 -378c-100.667 -160 -151 -317 -151 -471c0 -136.667 56 -237 168 -301l149 213c-98 55.333 -147 144.666 -147 267.999
c0 152.667 84.167 307.834 252.5 465.501s333.833 236.5 496.5 236.5c13.333 0 37.333 -2 72 -6z" />
    <glyph glyph-name="Eth" unicode="&#xd9;" horiz-adv-x="1845" 
d="M2363 1237c-462.667 -634.667 -694.003 -1044.33 -694.003 -1229c0 -45.333 14.833 -82.5 44.5 -111.5s67.5 -43.5 113.5 -43.5c79.333 0 157 42.333 233 127c6.66699 6.66699 11.667 10 15 10c4 0 6 -2.66699 6 -8c0 -7.33301 -11.667 -21 -35 -41
c-78.667 -70 -151.667 -105 -219 -105c-63.333 0 -116 24.667 -158 74s-63 111.333 -63 186c0 128 65.667 296.333 197 505l-31 -42l-48 -65c-120.667 -168.667 -236.5 -300.667 -347.5 -396s-203.167 -143 -276.5 -143c-48 0 -86.667 17.333 -116 52s-44 80.667 -44 138
c0 60.667 16.167 120.834 48.5 180.501s104.833 163.5 217.5 311.5c118 154 193 261.167 225 321.5s48 124.5 48 192.5c0 63.333 -23.5 113.666 -70.5 150.999s-110.833 56 -191.5 56c-204 0 -400.167 -92.833 -588.5 -278.5s-282.5 -378.834 -282.5 -579.501
c0 -75.333 21.167 -135.833 63.5 -181.5s98.5 -68.5 168.5 -68.5c132.667 0 260.334 75.667 383.001 227c128 158.667 192 303.334 192 434.001c0 110.667 -47 166 -141 166c-23.333 0 -45.333 -5.33301 -66 -16s-31 -22.334 -31 -35.001c0 -5.33301 3 -8 9 -8
c4 0.666992 10 2.66699 18 6c3.33301 1.33301 8 2 14 2c34.667 0 52 -16.333 52 -49c0 -21.333 -8 -40 -24 -56s-34.667 -24 -56 -24c-41.333 0 -62 22 -62 66c0 36 14.833 67.167 44.5 93.5s64.834 39.5 105.501 39.5c47.333 0 85 -16.667 113 -50s42 -78.333 42 -135
c0 -130.667 -62.667 -276 -188 -436c-127.333 -162.667 -262.333 -244 -405 -244c-84 0 -151.5 28.833 -202.5 86.5s-76.5 134.167 -76.5 229.5c0 218.667 114.667 418 344 598c89.333 70 186 126 290 168s197.667 63 281 63c101.333 0 180 -27.167 236 -81.5
s84 -130.166 84 -227.499c0 -82.667 -20.333 -161.167 -61 -235.5s-142 -218.5 -304 -432.5c-70.667 -93.333 -117 -160.166 -139 -200.499s-33 -78.5 -33 -114.5c0 -32.667 10.167 -59.667 30.5 -81s45.833 -32 76.5 -32c100 0 238.333 100.667 415 302
s406.334 520.666 689.001 957.999c35.333 -2.66699 55 -4 59 -4c25.333 0 57.333 3.33301 96 10zM2005 1455c-0.666992 -2.66699 -2.66797 -4 -6.00098 -4c-16.667 0 -38.5 24.667 -65.5 74s-47.5 101.666 -61.5 156.999l86 60c-11.333 -32.667 -17 -65 -17 -97
c0 -69.333 18.667 -128.666 56 -177.999c4.66699 -4.66699 7.33398 -8.66699 8.00098 -12z" />
    <glyph glyph-name="zcaron" unicode="&#xda;" horiz-adv-x="1845" 
d="M2363 1237c-462.667 -634.667 -694.003 -1044.33 -694.003 -1229c0 -45.333 14.833 -82.5 44.5 -111.5s67.5 -43.5 113.5 -43.5c79.333 0 157 42.333 233 127c6.66699 6.66699 11.667 10 15 10c4 0 6 -2.66699 6 -8c0 -7.33301 -11.667 -21 -35 -41
c-78.667 -70 -151.667 -105 -219 -105c-63.333 0 -116 24.667 -158 74s-63 111.333 -63 186c0 128 65.667 296.333 197 505l-31 -42l-48 -65c-120.667 -168.667 -236.5 -300.667 -347.5 -396s-203.167 -143 -276.5 -143c-48 0 -86.667 17.333 -116 52s-44 80.667 -44 138
c0 60.667 16.167 120.834 48.5 180.501s104.833 163.5 217.5 311.5c118 154 193 261.167 225 321.5s48 124.5 48 192.5c0 63.333 -23.5 113.666 -70.5 150.999s-110.833 56 -191.5 56c-204 0 -400.167 -92.833 -588.5 -278.5s-282.5 -378.834 -282.5 -579.501
c0 -75.333 21.167 -135.833 63.5 -181.5s98.5 -68.5 168.5 -68.5c132.667 0 260.334 75.667 383.001 227c128 158.667 192 303.334 192 434.001c0 110.667 -47 166 -141 166c-23.333 0 -45.333 -5.33301 -66 -16s-31 -22.334 -31 -35.001c0 -5.33301 3 -8 9 -8
c4 0.666992 10 2.66699 18 6c3.33301 1.33301 8 2 14 2c34.667 0 52 -16.333 52 -49c0 -21.333 -8 -40 -24 -56s-34.667 -24 -56 -24c-41.333 0 -62 22 -62 66c0 36 14.833 67.167 44.5 93.5s64.834 39.5 105.501 39.5c47.333 0 85 -16.667 113 -50s42 -78.333 42 -135
c0 -130.667 -62.667 -276 -188 -436c-127.333 -162.667 -262.333 -244 -405 -244c-84 0 -151.5 28.833 -202.5 86.5s-76.5 134.167 -76.5 229.5c0 218.667 114.667 418 344 598c89.333 70 186 126 290 168s197.667 63 281 63c101.333 0 180 -27.167 236 -81.5
s84 -130.166 84 -227.499c0 -82.667 -20.333 -161.167 -61 -235.5s-142 -218.5 -304 -432.5c-70.667 -93.333 -117 -160.166 -139 -200.499s-33 -78.5 -33 -114.5c0 -32.667 10.167 -59.667 30.5 -81s45.833 -32 76.5 -32c100 0 238.333 100.667 415 302
s406.334 520.666 689.001 957.999c35.333 -2.66699 55 -4 59 -4c25.333 0 57.333 3.33301 96 10zM2349 1666c-64.667 -50.667 -147.335 -97 -248.001 -139c-77.333 -33.333 -121.666 -50 -132.999 -50c-2.66699 0 -4.66699 0.666992 -6 2c0 2 4 5 12 9
c156 74 267.333 154.333 334 241z" />
    </font>
</defs>
</svg>
